<?xml version="1.0" encoding="UTF-8"?>
<svg width="37px" height="39px" viewBox="0 0 37 39" version="1.1" xmlns="http://www.w3.org/2000/svg" xmlns:xlink="http://www.w3.org/1999/xlink">
    <!-- Generator: Sketch 58 (84663) - https://sketch.com -->
    <title>icon</title>
    <desc>Created with Sketch.</desc>
    <g id="icon" stroke="none" stroke-width="1" fill="none" fill-rule="evenodd">
        <path d="M4.77837848,3.55271368e-15 L14.4173618,10.6290395 L4.77837848,21.2575658 L4.77837848,3.55271368e-15 M36.9592004,14.6450132 L23.2931818,29.7149211 L23.2931818,14.6450132 L36.9592004,14.6450132 M22.2653525,23.9203421 L22.2653525,38.1722763 L15.8033896,31.0465658 L22.2653525,23.9203421 M4.26446382,23.3538158 L8.52892764,28.0563947 L0,28.0563947 L4.26446382,23.3538158 M22.2653525,15.4629868 L22.2653525,22.3911316 L15.6240334,29.7149211 L15.6240334,22.7867763 L22.2653525,15.4629868 M14.5962041,11.9601711 L14.5962041,21.2575658 L10.3805622,16.6088684 L14.5962041,11.9601711 M9.68780519,17.3734737 L14.4173618,22.5892105 L9.68780519,27.8049474 L4.95773469,22.5892105 L9.68780519,17.3734737" id="Fill-13" fill="#413F72"></path>
    </g>
</svg>