<?xml version="1.0" encoding="UTF-8"?>
<svg width="277px" height="39px" viewBox="0 0 277 39" version="1.1" xmlns="http://www.w3.org/2000/svg" xmlns:xlink="http://www.w3.org/1999/xlink">
    <!-- Generator: Sketch 59 (86127) - https://sketch.com -->
    <title>logo-alt</title>
    <desc>Created with Sketch.</desc>
    <g id="logo-alt" stroke="none" stroke-width="1" fill="none" fill-rule="evenodd">
        <g id="DravetSuisse-CMYK-RZ_DravetSuisse">
            <path d="M14.4651558,27.1742763 C14.4651558,24.7383158 12.7646122,22.6343684 10.2140538,22.6343684 C7.66349536,22.6343684 5.96295176,24.7383158 5.96295176,27.1742763 C5.96295176,29.6476974 7.66349536,31.7146974 10.2140538,31.7146974 C12.7646122,31.7146974 14.4651558,29.6476974 14.4651558,27.1742763 Z M14.4651558,33.5600132 C13.5781391,35.1841579 11.5080909,36.5132368 8.77252319,36.5132368 C4.04091095,36.5132368 0.34432282,32.4895658 0.34432282,27.1742763 C0.34432282,21.8589868 4.04091095,17.8358289 8.77252319,17.8358289 C11.3970853,17.8358289 13.5041354,19.0905 14.4651558,20.8254868 L14.4651558,10.2323684 L20.1207866,10.2323684 L20.1207866,36.0698684 L14.4651558,36.0698684 L14.4651558,33.5600132 L14.4651558,33.5600132 Z" id="Fill-1" fill="#413F72"></path>
            <path d="M37.7177384,23.4092368 C36.9417273,23.2250132 36.4612171,23.1511184 35.7956976,23.1511184 C32.6166215,23.1511184 30.5835751,24.7383158 30.5835751,29.1309474 L30.5835751,36.0698684 L24.9279443,36.0698684 L24.9279443,18.2786842 L30.5835751,18.2786842 L30.5835751,21.1580132 C31.397102,19.4964079 33.5041521,17.9831053 36.0917124,17.9831053 C36.6832282,17.9831053 37.2007403,18.0575132 37.7177384,18.2786842 L37.7177384,23.4092368" id="Fill-2" fill="#413F72"></path>
            <path d="M52.9856289,27.1742763 C52.9856289,24.7383158 51.2855993,22.6343684 48.7345269,22.6343684 C46.1844824,22.6343684 44.4834249,24.7383158 44.4834249,27.1742763 C44.4834249,29.6476974 46.1844824,31.7146974 48.7345269,31.7146974 C51.2855993,31.7146974 52.9856289,29.6476974 52.9856289,27.1742763 Z M58.6417737,18.2786842 L58.6417737,36.0698684 L52.9856289,36.0698684 L52.9856289,33.5600132 C52.0986122,35.1841579 50.028564,36.5132368 47.2929963,36.5132368 C42.561384,36.5132368 38.8647959,32.4895658 38.8647959,27.1742763 C38.8647959,21.8589868 42.561384,17.8358289 47.2929963,17.8358289 C49.9175584,17.8358289 52.0246085,19.0905 52.9856289,20.8254868 L52.9856289,18.2786842 L58.6417737,18.2786842 L58.6417737,18.2786842 Z" id="Fill-3" fill="#413F72"></path>
            <polyline id="Fill-4" fill="#413F72" points="66.8865065 18.2786842 71.2116122 29.4629605 75.5737199 18.2786842 81.4878497 18.2786842 73.4296679 36.0698684 68.9195529 36.0698684 60.9718627 18.2786842 66.8865065 18.2786842"></polyline>
            <path d="M87.4405232,25.2915 L94.8336994,25.2915 C94.8336994,23.1511184 93.3181651,21.7850921 91.1371113,21.7850921 C89.0300612,21.7850921 87.4405232,23.0402763 87.4405232,25.2915 Z M87.4405232,28.5403026 C87.4405232,30.6806842 88.4385455,32.4895658 91.2851187,32.4895658 C93.2811633,32.4895658 94.2051818,31.6038553 94.6116883,30.4595132 L100.156827,30.4595132 C99.5653117,33.8186447 96.4602393,36.5501842 91.3591224,36.5501842 C85.1119759,36.5501842 81.7478905,32.4156711 81.7478905,27.1742763 C81.7478905,21.9698289 85.074974,17.7988816 91.1001095,17.7988816 C96.829744,17.7988816 100.378839,21.5639211 100.378839,26.5097368 C100.378839,27.2112237 100.341837,27.5801842 100.193829,28.5403026 L87.4405232,28.5403026 L87.4405232,28.5403026 Z" id="Fill-5" fill="#413F72"></path>
            <path d="M114.796714,36.0698684 C113.946699,36.2176579 112.726666,36.3654474 110.989121,36.3654474 C108.364558,36.3654474 104.704972,36.0329211 104.704972,30.0905526 L104.704972,22.4865789 L101.895401,22.4865789 L101.895401,18.2786842 L104.704972,18.2786842 L104.704972,13.0003421 L110.324115,13.0003421 L110.324115,18.2786842 L114.390208,18.2786842 L114.390208,22.4865789 L110.324115,22.4865789 L110.324115,28.8353684 C110.324115,31.4930132 111.358625,31.8619737 112.911161,31.8619737 C113.392186,31.8619737 114.279202,31.8255395 114.796714,31.7511316 L114.796714,36.0698684" id="Fill-6" fill="#413F72"></path>
            <path d="M133.835197,30.8654211 C133.835197,35.0368816 130.138609,36.5501842 125.887506,36.5501842 C120.638382,36.5501842 117.569798,34.2615 117.569798,30.1269868 L123.114937,30.1269868 C123.114937,32.0097632 124.297968,32.7481974 125.960996,32.7481974 C127.329037,32.7481974 128.290058,32.2678816 128.290058,31.0865921 C128.290058,29.7210789 126.885529,29.4999079 123.521443,28.4294605 C120.453373,27.4698553 118.01382,26.5471974 118.01382,23.2614474 C118.01382,19.5338684 121.155894,17.7988816 125.665495,17.7988816 C131.173633,17.7988816 133.576184,20.4195789 133.576184,23.8151447 L127.994043,23.8151447 C127.994043,22.3393026 127.218032,21.4900263 125.702497,21.4900263 C124.519466,21.4900263 123.558445,22.0067763 123.558445,23.0402763 C123.558445,24.3693553 125.110981,24.5905263 128.105048,25.5875921 C131.247636,26.5097368 133.835197,27.3590132 133.835197,30.8654211" id="Fill-7" fill="#8CC46B"></path>
            <path d="M155.239228,18.2786842 L155.239228,36.0698684 L149.583597,36.0698684 L149.583597,33.5230658 C148.585575,35.4053289 146.515527,36.5132368 143.705955,36.5132368 C141.266403,36.5132368 139.713866,35.6639605 138.752846,34.4831842 C137.643818,33.1171579 137.384805,31.3826842 137.384805,28.8353684 L137.384805,18.2786842 L143.003948,18.2786842 L143.003948,27.3959605 C143.003948,29.9427632 143.779959,31.7146974 146.145508,31.7146974 C148.47457,31.7146974 149.583597,29.9427632 149.583597,27.2112237 L149.583597,18.2786842 L155.239228,18.2786842" id="Fill-8" fill="#8CC46B"></path>
            <path d="M160.711905,36.0693553 L166.367536,36.0693553 L166.367536,18.2786842 L160.711905,18.2786842 L160.711905,36.0693553 Z M163.520963,6.90146053 C165.591011,6.90146053 167.180549,8.48865789 167.180549,10.4822763 C167.180549,12.4379211 165.591011,14.0620658 163.520963,14.0620658 C161.487917,14.0620658 159.898378,12.4379211 159.898378,10.4822763 C159.898378,8.48865789 161.487917,6.90146053 163.520963,6.90146053 L163.520963,6.90146053 Z" id="Fill-9" fill="#8CC46B"></path>
            <path d="M186.920525,30.8654211 C186.920525,35.0368816 183.224451,36.5501842 178.972835,36.5501842 C173.723711,36.5501842 170.65564,34.2615 170.65564,30.1269868 L176.200779,30.1269868 C176.200779,32.0097632 177.383297,32.7481974 179.046839,32.7481974 C180.414879,32.7481974 181.3759,32.2678816 181.3759,31.0865921 C181.3759,29.7210789 179.971371,29.4999079 176.607286,28.4294605 C173.539215,27.4698553 171.099148,26.5471974 171.099148,23.2614474 C171.099148,19.5338684 174.241223,17.7988816 178.751338,17.7988816 C184.258961,17.7988816 186.662026,20.4195789 186.662026,23.8151447 L181.079885,23.8151447 C181.079885,22.3393026 180.303874,21.4900263 178.78834,21.4900263 C177.605308,21.4900263 176.644288,22.0067763 176.644288,23.0402763 C176.644288,24.3693553 178.196824,24.5905263 181.190891,25.5875921 C184.332965,26.5097368 186.920525,27.3590132 186.920525,30.8654211" id="Fill-10" fill="#8CC46B"></path>
            <path d="M205.774512,30.8654211 C205.774512,35.0368816 202.077924,36.5501842 197.826822,36.5501842 C192.577698,36.5501842 189.509113,34.2615 189.509113,30.1269868 L195.054252,30.1269868 C195.054252,32.0097632 196.237284,32.7481974 197.900312,32.7481974 C199.268353,32.7481974 200.229887,32.2678816 200.229887,31.0865921 C200.229887,29.7210789 198.824844,29.4999079 195.460759,28.4294605 C192.393202,27.4698553 189.953135,26.5471974 189.953135,23.2614474 C189.953135,19.5338684 193.09521,17.7988816 197.604811,17.7988816 C203.112948,17.7988816 205.516013,20.4195789 205.516013,23.8151447 L199.933358,23.8151447 C199.933358,22.3393026 199.157861,21.4900263 197.641813,21.4900263 C196.459295,21.4900263 195.498275,22.0067763 195.498275,23.0402763 C195.498275,24.3693553 197.050297,24.5905263 200.044364,25.5875921 C203.186438,26.5097368 205.774512,27.3590132 205.774512,30.8654211" id="Fill-11" fill="#8CC46B"></path>
            <path d="M214.092735,25.2915 L221.485911,25.2915 C221.485911,23.1511184 219.970377,21.7850921 217.789837,21.7850921 C215.682273,21.7850921 214.092735,23.0402763 214.092735,25.2915 Z M214.092735,28.5403026 C214.092735,30.6806842 215.091271,32.4895658 217.93733,32.4895658 C219.933375,32.4895658 220.857393,31.6038553 221.2639,30.4595132 L226.809039,30.4595132 C226.217523,33.8186447 223.112451,36.5501842 218.011334,36.5501842 C211.764187,36.5501842 208.400102,32.4156711 208.400102,27.1742763 C208.400102,21.9698289 211.727186,17.7988816 217.752321,17.7988816 C223.482469,17.7988816 227.03105,21.5639211 227.03105,26.5097368 C227.03105,27.2112237 226.994048,27.5801842 226.846555,28.5403026 L214.092735,28.5403026 L214.092735,28.5403026 Z" id="Fill-12" fill="#8CC46B"></path>
            <path d="M244.721534,0.483907895 L254.360518,11.1129474 L244.721534,21.7414737 L244.721534,0.483907895 M276.902356,15.1289211 L263.236338,30.1988289 L263.236338,15.1289211 L276.902356,15.1289211 M262.208508,24.40425 L262.208508,38.6561842 L255.746545,31.5304737 L262.208508,24.40425 M244.20762,23.8377237 L248.472083,28.5403026 L239.943156,28.5403026 L244.20762,23.8377237 M262.208508,15.9468947 L262.208508,22.8750395 L255.567189,30.1988289 L255.567189,23.2706842 L262.208508,15.9468947 M254.53936,12.4440789 L254.53936,21.7414737 L250.323718,17.0927763 L254.53936,12.4440789 M249.630961,17.8573816 L254.360518,23.0731184 L249.630961,28.2888553 L244.900891,23.0731184 L249.630961,17.8573816" id="Fill-13" fill="#413F72"></path>
        </g>
        <g id="DravetSuisse-CMYK-RZ_DravetSuisse-Copy">
            <path d="M14.4651558,27.1742763 C14.4651558,24.7383158 12.7646122,22.6343684 10.2140538,22.6343684 C7.66349536,22.6343684 5.96295176,24.7383158 5.96295176,27.1742763 C5.96295176,29.6476974 7.66349536,31.7146974 10.2140538,31.7146974 C12.7646122,31.7146974 14.4651558,29.6476974 14.4651558,27.1742763 Z M14.4651558,33.5600132 C13.5781391,35.1841579 11.5080909,36.5132368 8.77252319,36.5132368 C4.04091095,36.5132368 0.34432282,32.4895658 0.34432282,27.1742763 C0.34432282,21.8589868 4.04091095,17.8358289 8.77252319,17.8358289 C11.3970853,17.8358289 13.5041354,19.0905 14.4651558,20.8254868 L14.4651558,10.2323684 L20.1207866,10.2323684 L20.1207866,36.0698684 L14.4651558,36.0698684 L14.4651558,33.5600132 L14.4651558,33.5600132 Z" id="Fill-1" fill="#FFFFFF"></path>
            <path d="M37.7177384,23.4092368 C36.9417273,23.2250132 36.4612171,23.1511184 35.7956976,23.1511184 C32.6166215,23.1511184 30.5835751,24.7383158 30.5835751,29.1309474 L30.5835751,36.0698684 L24.9279443,36.0698684 L24.9279443,18.2786842 L30.5835751,18.2786842 L30.5835751,21.1580132 C31.397102,19.4964079 33.5041521,17.9831053 36.0917124,17.9831053 C36.6832282,17.9831053 37.2007403,18.0575132 37.7177384,18.2786842 L37.7177384,23.4092368" id="Fill-2" fill="#FFFFFF"></path>
            <path d="M52.9856289,27.1742763 C52.9856289,24.7383158 51.2855993,22.6343684 48.7345269,22.6343684 C46.1844824,22.6343684 44.4834249,24.7383158 44.4834249,27.1742763 C44.4834249,29.6476974 46.1844824,31.7146974 48.7345269,31.7146974 C51.2855993,31.7146974 52.9856289,29.6476974 52.9856289,27.1742763 Z M58.6417737,18.2786842 L58.6417737,36.0698684 L52.9856289,36.0698684 L52.9856289,33.5600132 C52.0986122,35.1841579 50.028564,36.5132368 47.2929963,36.5132368 C42.561384,36.5132368 38.8647959,32.4895658 38.8647959,27.1742763 C38.8647959,21.8589868 42.561384,17.8358289 47.2929963,17.8358289 C49.9175584,17.8358289 52.0246085,19.0905 52.9856289,20.8254868 L52.9856289,18.2786842 L58.6417737,18.2786842 L58.6417737,18.2786842 Z" id="Fill-3" fill="#FFFFFF"></path>
            <polyline id="Fill-4" fill="#FFFFFF" points="66.8865065 18.2786842 71.2116122 29.4629605 75.5737199 18.2786842 81.4878497 18.2786842 73.4296679 36.0698684 68.9195529 36.0698684 60.9718627 18.2786842 66.8865065 18.2786842"></polyline>
            <path d="M87.4405232,25.2915 L94.8336994,25.2915 C94.8336994,23.1511184 93.3181651,21.7850921 91.1371113,21.7850921 C89.0300612,21.7850921 87.4405232,23.0402763 87.4405232,25.2915 Z M87.4405232,28.5403026 C87.4405232,30.6806842 88.4385455,32.4895658 91.2851187,32.4895658 C93.2811633,32.4895658 94.2051818,31.6038553 94.6116883,30.4595132 L100.156827,30.4595132 C99.5653117,33.8186447 96.4602393,36.5501842 91.3591224,36.5501842 C85.1119759,36.5501842 81.7478905,32.4156711 81.7478905,27.1742763 C81.7478905,21.9698289 85.074974,17.7988816 91.1001095,17.7988816 C96.829744,17.7988816 100.378839,21.5639211 100.378839,26.5097368 C100.378839,27.2112237 100.341837,27.5801842 100.193829,28.5403026 L87.4405232,28.5403026 L87.4405232,28.5403026 Z" id="Fill-5" fill="#FFFFFF"></path>
            <path d="M114.796714,36.0698684 C113.946699,36.2176579 112.726666,36.3654474 110.989121,36.3654474 C108.364558,36.3654474 104.704972,36.0329211 104.704972,30.0905526 L104.704972,22.4865789 L101.895401,22.4865789 L101.895401,18.2786842 L104.704972,18.2786842 L104.704972,13.0003421 L110.324115,13.0003421 L110.324115,18.2786842 L114.390208,18.2786842 L114.390208,22.4865789 L110.324115,22.4865789 L110.324115,28.8353684 C110.324115,31.4930132 111.358625,31.8619737 112.911161,31.8619737 C113.392186,31.8619737 114.279202,31.8255395 114.796714,31.7511316 L114.796714,36.0698684" id="Fill-6" fill="#FFFFFF"></path>
            <path d="M133.835197,30.8654211 C133.835197,35.0368816 130.138609,36.5501842 125.887506,36.5501842 C120.638382,36.5501842 117.569798,34.2615 117.569798,30.1269868 L123.114937,30.1269868 C123.114937,32.0097632 124.297968,32.7481974 125.960996,32.7481974 C127.329037,32.7481974 128.290058,32.2678816 128.290058,31.0865921 C128.290058,29.7210789 126.885529,29.4999079 123.521443,28.4294605 C120.453373,27.4698553 118.01382,26.5471974 118.01382,23.2614474 C118.01382,19.5338684 121.155894,17.7988816 125.665495,17.7988816 C131.173633,17.7988816 133.576184,20.4195789 133.576184,23.8151447 L127.994043,23.8151447 C127.994043,22.3393026 127.218032,21.4900263 125.702497,21.4900263 C124.519466,21.4900263 123.558445,22.0067763 123.558445,23.0402763 C123.558445,24.3693553 125.110981,24.5905263 128.105048,25.5875921 C131.247636,26.5097368 133.835197,27.3590132 133.835197,30.8654211" id="Fill-7" fill="#8CC46B"></path>
            <path d="M155.239228,18.2786842 L155.239228,36.0698684 L149.583597,36.0698684 L149.583597,33.5230658 C148.585575,35.4053289 146.515527,36.5132368 143.705955,36.5132368 C141.266403,36.5132368 139.713866,35.6639605 138.752846,34.4831842 C137.643818,33.1171579 137.384805,31.3826842 137.384805,28.8353684 L137.384805,18.2786842 L143.003948,18.2786842 L143.003948,27.3959605 C143.003948,29.9427632 143.779959,31.7146974 146.145508,31.7146974 C148.47457,31.7146974 149.583597,29.9427632 149.583597,27.2112237 L149.583597,18.2786842 L155.239228,18.2786842" id="Fill-8" fill="#8CC46B"></path>
            <path d="M160.711905,36.0693553 L166.367536,36.0693553 L166.367536,18.2786842 L160.711905,18.2786842 L160.711905,36.0693553 Z M163.520963,6.90146053 C165.591011,6.90146053 167.180549,8.48865789 167.180549,10.4822763 C167.180549,12.4379211 165.591011,14.0620658 163.520963,14.0620658 C161.487917,14.0620658 159.898378,12.4379211 159.898378,10.4822763 C159.898378,8.48865789 161.487917,6.90146053 163.520963,6.90146053 L163.520963,6.90146053 Z" id="Fill-9" fill="#8CC46B"></path>
            <path d="M186.920525,30.8654211 C186.920525,35.0368816 183.224451,36.5501842 178.972835,36.5501842 C173.723711,36.5501842 170.65564,34.2615 170.65564,30.1269868 L176.200779,30.1269868 C176.200779,32.0097632 177.383297,32.7481974 179.046839,32.7481974 C180.414879,32.7481974 181.3759,32.2678816 181.3759,31.0865921 C181.3759,29.7210789 179.971371,29.4999079 176.607286,28.4294605 C173.539215,27.4698553 171.099148,26.5471974 171.099148,23.2614474 C171.099148,19.5338684 174.241223,17.7988816 178.751338,17.7988816 C184.258961,17.7988816 186.662026,20.4195789 186.662026,23.8151447 L181.079885,23.8151447 C181.079885,22.3393026 180.303874,21.4900263 178.78834,21.4900263 C177.605308,21.4900263 176.644288,22.0067763 176.644288,23.0402763 C176.644288,24.3693553 178.196824,24.5905263 181.190891,25.5875921 C184.332965,26.5097368 186.920525,27.3590132 186.920525,30.8654211" id="Fill-10" fill="#8CC46B"></path>
            <path d="M205.774512,30.8654211 C205.774512,35.0368816 202.077924,36.5501842 197.826822,36.5501842 C192.577698,36.5501842 189.509113,34.2615 189.509113,30.1269868 L195.054252,30.1269868 C195.054252,32.0097632 196.237284,32.7481974 197.900312,32.7481974 C199.268353,32.7481974 200.229887,32.2678816 200.229887,31.0865921 C200.229887,29.7210789 198.824844,29.4999079 195.460759,28.4294605 C192.393202,27.4698553 189.953135,26.5471974 189.953135,23.2614474 C189.953135,19.5338684 193.09521,17.7988816 197.604811,17.7988816 C203.112948,17.7988816 205.516013,20.4195789 205.516013,23.8151447 L199.933358,23.8151447 C199.933358,22.3393026 199.157861,21.4900263 197.641813,21.4900263 C196.459295,21.4900263 195.498275,22.0067763 195.498275,23.0402763 C195.498275,24.3693553 197.050297,24.5905263 200.044364,25.5875921 C203.186438,26.5097368 205.774512,27.3590132 205.774512,30.8654211" id="Fill-11" fill="#8CC46B"></path>
            <path d="M214.092735,25.2915 L221.485911,25.2915 C221.485911,23.1511184 219.970377,21.7850921 217.789837,21.7850921 C215.682273,21.7850921 214.092735,23.0402763 214.092735,25.2915 Z M214.092735,28.5403026 C214.092735,30.6806842 215.091271,32.4895658 217.93733,32.4895658 C219.933375,32.4895658 220.857393,31.6038553 221.2639,30.4595132 L226.809039,30.4595132 C226.217523,33.8186447 223.112451,36.5501842 218.011334,36.5501842 C211.764187,36.5501842 208.400102,32.4156711 208.400102,27.1742763 C208.400102,21.9698289 211.727186,17.7988816 217.752321,17.7988816 C223.482469,17.7988816 227.03105,21.5639211 227.03105,26.5097368 C227.03105,27.2112237 226.994048,27.5801842 226.846555,28.5403026 L214.092735,28.5403026 L214.092735,28.5403026 Z" id="Fill-12" fill="#8CC46B"></path>
            <path d="M244.721534,0.483907895 L254.360518,11.1129474 L244.721534,21.7414737 L244.721534,0.483907895 M276.902356,15.1289211 L263.236338,30.1988289 L263.236338,15.1289211 L276.902356,15.1289211 M262.208508,24.40425 L262.208508,38.6561842 L255.746545,31.5304737 L262.208508,24.40425 M244.20762,23.8377237 L248.472083,28.5403026 L239.943156,28.5403026 L244.20762,23.8377237 M262.208508,15.9468947 L262.208508,22.8750395 L255.567189,30.1988289 L255.567189,23.2706842 L262.208508,15.9468947 M254.53936,12.4440789 L254.53936,21.7414737 L250.323718,17.0927763 L254.53936,12.4440789 M249.630961,17.8573816 L254.360518,23.0731184 L249.630961,28.2888553 L244.900891,23.0731184 L249.630961,17.8573816" id="Fill-13" fill="#FFFFFF"></path>
        </g>
    </g>
</svg>