<?xml version="1.0" encoding="UTF-8"?>
<svg width="208px" height="105px" viewBox="0 0 208 105" version="1.1" xmlns="http://www.w3.org/2000/svg" xmlns:xlink="http://www.w3.org/1999/xlink">
    <title>logo</title>
    <desc>Created with Sketch.</desc>
    <g id="logo" stroke="none" stroke-width="1" fill="none" fill-rule="evenodd">
        <path d="M41.139,100.767 C36.202,100.767 31.622,99.24 28.124,95.76 C25.777,93.425 24.297,90.264 22.332,88.252 C16.962,82.759 4.388,79.026 0.589,62.837 C-2.87,48.095 9.832,31.902 14.742,26.168 C21.192,18.635 40.067,8.862 54.445,8.862 C55.186,8.862 55.917,8.888 56.632,8.942 C50.543,12.796 45.322,17.872 41.293,23.833 C35.681,32.127 32.391,42.204 32.395,52.946 C32.394,60.102 33.852,66.978 36.491,73.212 C40.451,82.568 47.037,90.493 55.339,96.103 C55.622,96.295 55.908,96.484 56.196,96.67 C51.294,99.263 46.04,100.768 41.139,100.767 M75.455,80.923 C74.626,80.656 73.814,80.355 73.019,80.019 C67.761,77.798 63.253,74.057 60.083,69.363 C56.914,64.66 55.077,59.069 55.072,52.946 C55.074,48.858 55.894,45.023 57.376,41.514 C59.598,36.257 63.338,31.748 68.033,28.578 C72.404,25.633 77.544,23.838 83.164,23.596 C92.267,35.837 92.984,54.16 81.673,73.934 C80.665,75.696 78.132,78.36 75.455,80.923" id="Fill-1" fill="#CDDD76"></path>
        <path d="M84.429,105 C74.063,105 64.317,101.931 56.196,96.67 C60.195,94.555 63.958,91.716 67.103,88.38 C67.103,88.38 71.44,84.765 75.455,80.923 C78.279,81.83 81.29,82.321 84.451,82.323 C90.573,82.318 96.164,80.481 100.867,77.312 C105.561,74.143 109.302,69.634 111.523,64.377 C113.005,60.869 113.825,57.033 113.827,52.946 C113.822,46.822 111.985,41.23 108.816,36.528 C105.647,31.833 101.138,28.093 95.881,25.872 C92.373,24.39 88.537,23.57 84.451,23.568 C84.019,23.568 83.59,23.578 83.164,23.596 C77.911,16.533 69.867,11.495 59.73,9.372 C58.734,9.163 57.698,9.022 56.632,8.942 C59.022,7.428 61.547,6.103 64.185,4.986 C70.416,2.349 77.287,0.891 84.438,0.891 C84.442,0.891 84.447,0.891 84.451,0.891 C84.458,0.891 84.465,0.891 84.473,0.891 C95.205,0.891 105.273,4.18 113.561,9.788 C121.863,15.398 128.448,23.323 132.408,32.68 C135.047,38.914 136.506,45.79 136.504,52.946 C136.509,63.688 133.218,73.764 127.607,82.058 C121.996,90.36 114.071,96.945 104.715,100.904 C98.484,103.542 91.614,105 84.462,105 C84.459,105 84.454,105 84.451,105 C84.443,105 84.436,105 84.429,105" id="Fill-3" fill="#0A5088"></path>
        <path d="M56.196,96.67 C55.908,96.484 55.622,96.295 55.339,96.103 C47.037,90.493 40.451,82.568 36.491,73.212 C33.852,66.978 32.394,60.102 32.395,52.946 C32.391,42.204 35.681,32.127 41.293,23.833 C45.322,17.872 50.543,12.796 56.632,8.942 C57.698,9.022 58.734,9.163 59.73,9.372 C69.867,11.495 77.911,16.533 83.164,23.596 C77.544,23.838 72.404,25.633 68.033,28.578 C63.338,31.748 59.598,36.257 57.376,41.514 C55.894,45.023 55.074,48.858 55.072,52.946 C55.077,59.069 56.914,64.66 60.083,69.363 C63.253,74.057 67.761,77.798 73.019,80.019 C73.814,80.355 74.626,80.656 75.455,80.923 C71.44,84.765 67.103,88.38 67.103,88.38 C63.958,91.716 60.195,94.555 56.196,96.67" id="Fill-5" fill="#205153"></path>
        <path d="M102.41,60.321 C106.025,60.321 107.369,58.753 107.369,52.642 C107.369,46.913 105.994,45.313 102.41,45.313 L101.257,45.313 L101.257,60.321 L102.41,60.321 Z M102.601,41.858 C108.712,41.858 111.912,43.841 111.912,52.704 C111.912,61.888 108.201,63.776 102.505,63.776 L97.609,63.776 C97.066,63.776 96.937,63.647 96.937,63.104 L96.937,42.53 C96.937,41.954 97.066,41.858 97.642,41.858 L102.601,41.858 L102.601,41.858 Z" id="Fill-6" fill="#B9D137"></path>
        <path d="M123.273,51.36 C125.353,51.36 127.113,51.042 127.113,48.097 C127.113,45.313 125.289,45.218 123.625,45.218 L122.441,45.218 L122.441,51.36 L123.273,51.36 Z M122.441,63.104 C122.441,63.681 122.314,63.776 121.769,63.776 L118.794,63.776 C118.25,63.776 118.121,63.681 118.121,63.104 L118.121,42.53 C118.121,41.954 118.25,41.858 118.794,41.858 L123.978,41.858 C126.441,41.858 131.433,42.018 131.433,48.034 C131.433,52.161 128.968,53.345 127.785,53.952 L132.552,62.497 C132.648,62.655 132.808,62.913 132.808,63.104 C132.808,63.296 132.488,63.392 132.169,63.487 L129.48,64.257 C129.353,64.288 129.162,64.319 129.033,64.319 C128.873,64.319 128.617,63.936 128.296,63.329 L123.978,54.722 L122.441,54.722 L122.441,63.104 L122.441,63.104 Z" id="Fill-7" fill="#B9D137"></path>
        <path d="M145.736,49.538 C145.449,48.29 145.193,46.401 145.033,45.058 L144.968,45.058 C144.841,46.401 144.552,48.257 144.232,49.538 L142.824,55.04 L147.048,55.04 L145.736,49.538 Z M141.033,63.104 C140.904,63.681 140.841,63.776 140.361,63.776 L137.128,63.776 C136.712,63.776 136.521,63.712 136.49,63.487 C136.49,63.329 136.585,63.071 136.617,62.944 L142.921,42.337 C143.048,41.921 143.082,41.858 143.625,41.858 L146.953,41.858 C147.433,41.858 147.496,41.985 147.625,42.37 L153.896,63.009 C153.927,63.136 154.023,63.392 154.023,63.52 C154.023,63.712 153.705,63.776 153.384,63.776 L149.8,63.776 C149.48,63.776 149.416,63.681 149.255,63.104 L147.849,57.921 L142.345,57.921 L141.033,63.104 L141.033,63.104 Z" id="Fill-8" fill="#B9D137"></path>
        <path d="M166.152,63.52 C166.025,63.968 165.992,64.063 165.449,64.063 L161.8,64.063 C161.257,64.063 161.193,63.968 161.097,63.52 L155.464,43.202 C155.402,42.977 155.304,42.722 155.304,42.53 C155.304,42.306 155.658,42.241 155.914,42.177 L159.113,41.634 C159.242,41.634 159.337,41.569 159.593,41.569 C159.753,41.569 159.945,41.569 160.074,42.21 L162.792,55.073 C163.017,56.097 163.4,58.497 163.593,59.968 L163.656,59.968 C163.849,58.497 164.361,56.097 164.617,55.073 L167.72,42.21 C167.88,41.569 168.041,41.569 168.201,41.569 C168.457,41.569 168.552,41.634 168.681,41.634 L171.496,41.985 C171.751,42.05 172.103,42.114 172.103,42.337 C172.103,42.53 172.007,42.786 171.945,43.009 L166.152,63.52" id="Fill-9" fill="#B9D137"></path>
        <path d="M189.287,63.104 C189.287,63.681 189.191,63.776 188.648,63.776 L178.121,63.776 C177.576,63.776 177.449,63.681 177.449,63.104 L177.449,42.53 C177.449,41.954 177.576,41.858 178.121,41.858 L188.615,41.858 C189.255,41.858 189.416,41.921 189.416,42.21 C189.416,42.37 189.384,42.435 189.32,42.657 L188.712,44.802 C188.583,45.282 188.232,45.313 187.976,45.313 L181.769,45.313 L181.769,50.593 L187.208,50.593 C187.783,50.593 187.88,50.688 187.88,51.265 L187.88,53.376 C187.88,53.952 187.751,54.05 187.208,54.05 L181.769,54.05 L181.769,60.321 L188.615,60.321 C189.191,60.321 189.287,60.417 189.287,60.993 L189.287,63.104" id="Fill-10" fill="#B9D137"></path>
        <path d="M201.927,63.104 C201.927,63.681 201.8,63.776 201.255,63.776 L198.281,63.776 C197.736,63.776 197.609,63.681 197.609,63.104 L197.609,45.698 L193.417,45.698 C192.968,45.698 192.873,45.601 192.873,45.153 L192.873,42.401 C192.873,41.954 192.968,41.858 193.417,41.858 L206.599,41.858 C207.24,41.858 207.4,41.921 207.4,42.21 C207.4,42.37 207.367,42.435 207.304,42.657 L206.632,45.185 C206.503,45.698 206.152,45.698 205.896,45.698 L201.927,45.698 L201.927,63.104" id="Fill-11" fill="#B9D137"></path>
    </g>
</svg>