<svg width="277" height="39" xmlns="http://www.w3.org/2000/svg"><g id="logo-alt" stroke="none" stroke-width="1" fill="none" fill-rule="evenodd"><g id="DravetSuisse-CMYK-RZ_DravetSuisse"><path d="M14.465 27.174c0-2.436-1.7-4.54-4.25-4.54-2.552 0-4.252 2.104-4.252 4.54 0 2.474 1.7 4.54 4.251 4.54 2.55 0 4.251-2.066 4.251-4.54zm0 6.386c-.887 1.624-2.957 2.953-5.692 2.953-4.732 0-8.429-4.023-8.429-9.339 0-5.315 3.697-9.338 8.429-9.338 2.624 0 4.731 1.255 5.692 2.99V10.231h5.656V36.07h-5.656v-2.51z" id="Fill-1" fill="#413F72"/><path d="M37.718 23.41c-.776-.185-1.257-.259-1.922-.259-3.18 0-5.212 1.587-5.212 5.98v6.939h-5.656V18.279h5.656v2.879c.813-1.662 2.92-3.175 5.508-3.175.591 0 1.109.075 1.626.296v5.13" id="Fill-2" fill="#413F72"/><path d="M52.986 27.174c0-2.436-1.7-4.54-4.251-4.54-2.55 0-4.252 2.104-4.252 4.54 0 2.474 1.701 4.54 4.252 4.54 2.55 0 4.25-2.066 4.25-4.54zm5.656-8.895v17.79h-5.656V33.56c-.887 1.624-2.957 2.953-5.693 2.953-4.732 0-8.428-4.023-8.428-9.339 0-5.315 3.696-9.338 8.428-9.338 2.625 0 4.732 1.255 5.693 2.99v-2.547h5.656z" id="Fill-3" fill="#413F72"/><path id="Fill-4" fill="#413F72" d="M66.887 18.279l4.325 11.184 4.362-11.184h5.914l-8.058 17.79h-4.51l-7.948-17.79h5.915"/><path d="M87.44 25.291h7.394c0-2.14-1.516-3.506-3.697-3.506-2.107 0-3.696 1.255-3.696 3.506zm0 3.25c0 2.14.999 3.949 3.845 3.949 1.996 0 2.92-.886 3.327-2.03h5.545c-.592 3.359-3.697 6.09-8.798 6.09-6.247 0-9.611-4.134-9.611-9.376 0-5.204 3.327-9.375 9.352-9.375 5.73 0 9.279 3.765 9.279 8.71 0 .702-.037 1.071-.185 2.031H87.44z" id="Fill-5" fill="#413F72"/><path d="M114.797 36.07c-.85.148-2.07.295-3.808.295-2.624 0-6.284-.332-6.284-6.274v-7.604h-2.81v-4.208h2.81V13h5.62v5.279h4.065v4.208h-4.066v6.348c0 2.658 1.035 3.027 2.587 3.027.481 0 1.368-.036 1.886-.11v4.318" id="Fill-6" fill="#413F72"/><path d="M133.835 30.865c0 4.172-3.696 5.685-7.947 5.685-5.25 0-8.318-2.288-8.318-6.423h5.545c0 1.883 1.183 2.621 2.846 2.621 1.368 0 2.33-.48 2.33-1.661 0-1.366-1.405-1.587-4.77-2.658-3.068-.96-5.507-1.882-5.507-5.168 0-3.727 3.142-5.462 7.651-5.462 5.509 0 7.911 2.62 7.911 6.016h-5.582c0-1.476-.776-2.325-2.292-2.325-1.183 0-2.144.517-2.144 1.55 0 1.33 1.553 1.55 4.547 2.548 3.143.922 5.73 1.771 5.73 5.277" id="Fill-7" fill="#8CC46B"/><path d="M155.24 18.279v17.79h-5.656v-2.546c-.998 1.882-3.068 2.99-5.878 2.99-2.44 0-3.992-.849-4.953-2.03-1.11-1.366-1.368-3.1-1.368-5.648V18.28h5.619v9.117c0 2.547.776 4.319 3.142 4.319 2.329 0 3.438-1.772 3.438-4.504V18.28h5.655" id="Fill-8" fill="#8CC46B"/><path d="M160.712 36.07h5.656V18.278h-5.656v17.79zM163.52 6.9c2.07 0 3.66 1.588 3.66 3.581 0 1.956-1.59 3.58-3.66 3.58-2.033 0-3.623-1.624-3.623-3.58 0-1.993 1.59-3.58 3.623-3.58z" id="Fill-9" fill="#8CC46B"/><path d="M186.92 30.865c0 4.172-3.696 5.685-7.947 5.685-5.25 0-8.317-2.288-8.317-6.423h5.545c0 1.883 1.182 2.621 2.846 2.621 1.368 0 2.329-.48 2.329-1.661 0-1.366-1.405-1.587-4.769-2.658-3.068-.96-5.508-1.882-5.508-5.168 0-3.727 3.142-5.462 7.652-5.462 5.508 0 7.911 2.62 7.911 6.016h-5.582c0-1.476-.776-2.325-2.292-2.325-1.183 0-2.144.517-2.144 1.55 0 1.33 1.553 1.55 4.547 2.548 3.142.922 5.73 1.771 5.73 5.277" id="Fill-10" fill="#8CC46B"/><path d="M205.775 30.865c0 4.172-3.697 5.685-7.948 5.685-5.25 0-8.318-2.288-8.318-6.423h5.545c0 1.883 1.183 2.621 2.846 2.621 1.368 0 2.33-.48 2.33-1.661 0-1.366-1.405-1.587-4.77-2.658-3.067-.96-5.507-1.882-5.507-5.168 0-3.727 3.142-5.462 7.652-5.462 5.508 0 7.911 2.62 7.911 6.016h-5.583c0-1.476-.775-2.325-2.291-2.325-1.183 0-2.144.517-2.144 1.55 0 1.33 1.552 1.55 4.546 2.548 3.142.922 5.73 1.771 5.73 5.277" id="Fill-11" fill="#8CC46B"/><path d="M214.093 25.291h7.393c0-2.14-1.516-3.506-3.696-3.506-2.108 0-3.697 1.255-3.697 3.506zm0 3.25c0 2.14.998 3.949 3.844 3.949 1.996 0 2.92-.886 3.327-2.03h5.545c-.591 3.359-3.697 6.09-8.798 6.09-6.247 0-9.61-4.134-9.61-9.376 0-5.204 3.326-9.375 9.351-9.375 5.73 0 9.279 3.765 9.279 8.71 0 .702-.037 1.071-.184 2.031h-12.754z" id="Fill-12" fill="#8CC46B"/><path d="M244.722.484l9.639 10.629-9.64 10.628V.484m32.181 14.645l-13.666 15.07v-15.07h13.666m-14.693 9.275v14.252l-6.462-7.126 6.462-7.126m-18.001-.566l4.264 4.702h-8.529l4.265-4.702m18-7.891v6.928l-6.64 7.324V23.27l6.64-7.324m-7.669-3.503v9.297l-4.215-4.648 4.215-4.649m-4.908 5.413l4.73 5.216-4.73 5.216-4.73-5.216 4.73-5.216" id="Fill-13" fill="#413F72"/></g><g id="DravetSuisse-CMYK-RZ_DravetSuisse-Copy"><path d="M14.465 27.174c0-2.436-1.7-4.54-4.25-4.54-2.552 0-4.252 2.104-4.252 4.54 0 2.474 1.7 4.54 4.251 4.54 2.55 0 4.251-2.066 4.251-4.54zm0 6.386c-.887 1.624-2.957 2.953-5.692 2.953-4.732 0-8.429-4.023-8.429-9.339 0-5.315 3.697-9.338 8.429-9.338 2.624 0 4.731 1.255 5.692 2.99V10.231h5.656V36.07h-5.656v-2.51z" id="Fill-1" fill="#FFF"/><path d="M37.718 23.41c-.776-.185-1.257-.259-1.922-.259-3.18 0-5.212 1.587-5.212 5.98v6.939h-5.656V18.279h5.656v2.879c.813-1.662 2.92-3.175 5.508-3.175.591 0 1.109.075 1.626.296v5.13" id="Fill-2" fill="#FFF"/><path d="M52.986 27.174c0-2.436-1.7-4.54-4.251-4.54-2.55 0-4.252 2.104-4.252 4.54 0 2.474 1.701 4.54 4.252 4.54 2.55 0 4.25-2.066 4.25-4.54zm5.656-8.895v17.79h-5.656V33.56c-.887 1.624-2.957 2.953-5.693 2.953-4.732 0-8.428-4.023-8.428-9.339 0-5.315 3.696-9.338 8.428-9.338 2.625 0 4.732 1.255 5.693 2.99v-2.547h5.656z" id="Fill-3" fill="#FFF"/><path id="Fill-4" fill="#FFF" d="M66.887 18.279l4.325 11.184 4.362-11.184h5.914l-8.058 17.79h-4.51l-7.948-17.79h5.915"/><path d="M87.44 25.291h7.394c0-2.14-1.516-3.506-3.697-3.506-2.107 0-3.696 1.255-3.696 3.506zm0 3.25c0 2.14.999 3.949 3.845 3.949 1.996 0 2.92-.886 3.327-2.03h5.545c-.592 3.359-3.697 6.09-8.798 6.09-6.247 0-9.611-4.134-9.611-9.376 0-5.204 3.327-9.375 9.352-9.375 5.73 0 9.279 3.765 9.279 8.71 0 .702-.037 1.071-.185 2.031H87.44z" id="Fill-5" fill="#FFF"/><path d="M114.797 36.07c-.85.148-2.07.295-3.808.295-2.624 0-6.284-.332-6.284-6.274v-7.604h-2.81v-4.208h2.81V13h5.62v5.279h4.065v4.208h-4.066v6.348c0 2.658 1.035 3.027 2.587 3.027.481 0 1.368-.036 1.886-.11v4.318" id="Fill-6" fill="#FFF"/><path d="M133.835 30.865c0 4.172-3.696 5.685-7.947 5.685-5.25 0-8.318-2.288-8.318-6.423h5.545c0 1.883 1.183 2.621 2.846 2.621 1.368 0 2.33-.48 2.33-1.661 0-1.366-1.405-1.587-4.77-2.658-3.068-.96-5.507-1.882-5.507-5.168 0-3.727 3.142-5.462 7.651-5.462 5.509 0 7.911 2.62 7.911 6.016h-5.582c0-1.476-.776-2.325-2.292-2.325-1.183 0-2.144.517-2.144 1.55 0 1.33 1.553 1.55 4.547 2.548 3.143.922 5.73 1.771 5.73 5.277" id="Fill-7" fill="#8CC46B"/><path d="M155.24 18.279v17.79h-5.656v-2.546c-.998 1.882-3.068 2.99-5.878 2.99-2.44 0-3.992-.849-4.953-2.03-1.11-1.366-1.368-3.1-1.368-5.648V18.28h5.619v9.117c0 2.547.776 4.319 3.142 4.319 2.329 0 3.438-1.772 3.438-4.504V18.28h5.655" id="Fill-8" fill="#8CC46B"/><path d="M160.712 36.07h5.656V18.278h-5.656v17.79zM163.52 6.9c2.07 0 3.66 1.588 3.66 3.581 0 1.956-1.59 3.58-3.66 3.58-2.033 0-3.623-1.624-3.623-3.58 0-1.993 1.59-3.58 3.623-3.58z" id="Fill-9" fill="#8CC46B"/><path d="M186.92 30.865c0 4.172-3.696 5.685-7.947 5.685-5.25 0-8.317-2.288-8.317-6.423h5.545c0 1.883 1.182 2.621 2.846 2.621 1.368 0 2.329-.48 2.329-1.661 0-1.366-1.405-1.587-4.769-2.658-3.068-.96-5.508-1.882-5.508-5.168 0-3.727 3.142-5.462 7.652-5.462 5.508 0 7.911 2.62 7.911 6.016h-5.582c0-1.476-.776-2.325-2.292-2.325-1.183 0-2.144.517-2.144 1.55 0 1.33 1.553 1.55 4.547 2.548 3.142.922 5.73 1.771 5.73 5.277" id="Fill-10" fill="#8CC46B"/><path d="M205.775 30.865c0 4.172-3.697 5.685-7.948 5.685-5.25 0-8.318-2.288-8.318-6.423h5.545c0 1.883 1.183 2.621 2.846 2.621 1.368 0 2.33-.48 2.33-1.661 0-1.366-1.405-1.587-4.77-2.658-3.067-.96-5.507-1.882-5.507-5.168 0-3.727 3.142-5.462 7.652-5.462 5.508 0 7.911 2.62 7.911 6.016h-5.583c0-1.476-.775-2.325-2.291-2.325-1.183 0-2.144.517-2.144 1.55 0 1.33 1.552 1.55 4.546 2.548 3.142.922 5.73 1.771 5.73 5.277" id="Fill-11" fill="#8CC46B"/><path d="M214.093 25.291h7.393c0-2.14-1.516-3.506-3.696-3.506-2.108 0-3.697 1.255-3.697 3.506zm0 3.25c0 2.14.998 3.949 3.844 3.949 1.996 0 2.92-.886 3.327-2.03h5.545c-.591 3.359-3.697 6.09-8.798 6.09-6.247 0-9.61-4.134-9.61-9.376 0-5.204 3.326-9.375 9.351-9.375 5.73 0 9.279 3.765 9.279 8.71 0 .702-.037 1.071-.184 2.031h-12.754z" id="Fill-12" fill="#8CC46B"/><path d="M244.722.484l9.639 10.629-9.64 10.628V.484m32.181 14.645l-13.666 15.07v-15.07h13.666m-14.693 9.275v14.252l-6.462-7.126 6.462-7.126m-18.001-.566l4.264 4.702h-8.529l4.265-4.702m18-7.891v6.928l-6.64 7.324V23.27l6.64-7.324m-7.669-3.503v9.297l-4.215-4.648 4.215-4.649m-4.908 5.413l4.73 5.216-4.73 5.216-4.73-5.216 4.73-5.216" id="Fill-13" fill="#FFF"/></g></g></svg>