<svg xmlns="http://www.w3.org/2000/svg" xmlns:xlink="http://www.w3.org/1999/xlink" style="position: absolute; width: 0; height: 0; overflow: hidden;"><symbol id="chev-left" viewBox="0 0 24 24"><path d="M15 6l-6 6 6 6" stroke-linecap="round" stroke-width="2" stroke="#fff" fill="none" stroke-linejoin="round"/></symbol><symbol id="chev-right" viewBox="0 0 24 24"><path d="M9 18l6-6-6-6" stroke-linecap="round" stroke-width="2" stroke="#fff" fill="none" stroke-linejoin="round"/></symbol><symbol id="compose"><g fill="#474A56"><path d="M46.972 45.62a5.531 5.531 0 01-5.522 5.522H12.712a5.53 5.53 0 01-5.524-5.522V16.88a5.529 5.529 0 015.524-5.52h22.546c.041-.047.07-.098.116-.143l3.309-3.31H12.712c-4.951 0-8.976 4.024-8.976 8.973v28.74c0 4.948 4.025 8.974 8.976 8.974H41.45c4.948 0 8.974-4.026 8.974-8.974V19.799l-3.452 3.453V45.62z"/><path d="M53.373 11.217l-6.184-6.182a1.222 1.222 0 00-1.728 0l-.864.865-1.963 1.962-.115.115-25.124 25.122a1.208 1.208 0 00-.267.407l-4.186 10.368a1.22 1.22 0 001.59 1.59l6.587-2.66 3.782-1.526c.151-.063.29-.153.403-.272l27.961-27.96.108-.105c.227-.228.357-.538.357-.864 0-.32-.13-.63-.357-.86zm-29.617 27.89l-4.05 1.635-2.045-2.042 1.638-4.048L46.322 7.624l2.055 2.051L22.663 35.39a.611.611 0 00.865.86L49.24 10.54l1.54 1.54-27.025 27.028z"/></g></symbol><symbol id="globe" viewBox="0 0 24 24"><path d="M23.704 12.587c.005-.029.018-.056.018-.087 0-.018-.009-.034-.01-.052.005-.134.02-.265.02-.4 0-1.672-.357-3.261-.989-4.702a.512.512 0 00-.048-.1C20.872 3.196 16.826.36 12.116.308c-.024 0-.047-.007-.07-.007l-.012.002-.048-.002-.026.001-.007-.001c-.013 0-.025.003-.038.004-4.737.028-8.809 2.874-10.64 6.941a.46.46 0 00-.048.1 11.677 11.677 0 00-.989 4.702c0 .122.015.24.018.361-.006.031-.019.059-.019.091 0 .054.015.103.031.152a11.656 11.656 0 001.414 5.031c.012.029.031.052.048.079 2 3.575 5.81 6.003 10.183 6.029.013 0 .025.004.038.004l.007-.001.026.001.048-.002.012.002c.024 0 .047-.006.07-.007 4.351-.048 8.139-2.471 10.128-6.033.014-.024.032-.044.043-.07a11.652 11.652 0 001.419-5.098zM1.286 13h4.567a21.06 21.06 0 00.533 4h-3.93a10.644 10.644 0 01-1.17-4zm.749-5h4.161a22.11 22.11 0 00-.367 4H1.24c.006-1.414.29-2.763.795-4zm20.694 4h-4.562a22.11 22.11 0 00-.367-4h4.134c.505 1.237.789 2.586.795 4zm-5.562 0h-4.682V8h4.289c.249 1.243.39 2.594.393 4zm-4.683-5V1.349C14.217 1.676 15.735 3.9 16.545 7h-4.061zm-1-5.648V7H7.451c.805-3.084 2.311-5.303 4.033-5.648zm0 6.648v4H6.829c.003-1.406.144-2.757.393-4h4.262zm-4.632 5h4.632v4H7.428a19.872 19.872 0 01-.576-4zm4.632 5v4.743c-1.549-.31-2.923-2.135-3.77-4.743h3.77zm1 4.746V18h3.797c-.851 2.624-2.237 4.452-3.797 4.746zm0-5.746v-4h4.66a19.82 19.82 0 01-.577 4h-4.083zm5.66-4h4.539a10.686 10.686 0 01-1.17 4h-3.902a21.21 21.21 0 00.533-4zm3.322-6h-3.88c-.543-2.239-1.436-4.075-2.559-5.254A10.79 10.79 0 0121.466 7zM8.976 1.738C7.85 2.915 6.954 4.756 6.409 7H2.502a10.792 10.792 0 016.474-5.262zM3.043 18h3.61c.552 1.834 1.352 3.343 2.323 4.358A10.785 10.785 0 013.043 18zm11.985 4.349c.967-1.015 1.764-2.521 2.315-4.349h3.583a10.787 10.787 0 01-5.898 4.349z"/></symbol><symbol id="navigation-menu-vertical" viewBox="0 0 24 24"><path d="M14.298.952a3.25 3.25 0 11-4.596 4.596A3.25 3.25 0 0114.298.952M14.298 9.702a3.25 3.25 0 11-4.596 4.596 3.25 3.25 0 014.596-4.596M14.298 18.452a3.25 3.25 0 11-4.596 4.596 3.25 3.25 0 014.596-4.596"/></symbol><symbol id="pdf-file" viewBox="0 0 24 24"><path d="M21.961 6.308l-.108-.162L15.854.147l-.162-.108L15.5 0h-13a.5.5 0 00-.5.5v23a.5.5 0 00.5.5h19a.5.5 0 00.5-.5v-17l-.039-.192zM16 1.707L20.293 6H16V1.707zM3 23V1h12v5.5a.5.5 0 00.5.5H21v16H3zm15.5-10h-2.255a.5.5 0 00-.5.5v5.188a.5.5 0 001 0v-2.094h1.141a.5.5 0 000-1h-1.141V14H18.5a.5.5 0 000-1zm-6.47 0h-.938a.5.5 0 00-.5.5v5.188a.5.5 0 00.5.5h.938c1.357 0 2.269-1.243 2.269-3.094C14.3 14.243 13.388 13 12.03 13zm0 5.188h-.438V14h.438c.937 0 1.269 1.128 1.269 2.094.001.966-.332 2.094-1.269 2.094zM7.521 13H6.28a.5.5 0 00-.5.5v5.188a.5.5 0 001 0v-2.094h.74c1.155 0 1.74-.604 1.74-1.797S8.675 13 7.521 13zm0 2.594H6.78V14h.74c.638 0 .74.189.74.797 0 .608-.101.797-.739.797z"/></symbol><symbol id="search" viewBox="0 0 24 24"><path d="M23.854 23.146l-9.009-9.009A8.455 8.455 0 0017 8.5C17 3.813 13.187 0 8.5 0 3.813 0 0 3.813 0 8.5 0 13.187 3.813 17 8.5 17a8.45 8.45 0 005.637-2.156l9.009 9.009a.5.5 0 10.708-.707zM1 8.5C1 4.364 4.364 1 8.5 1S16 4.364 16 8.5 12.636 16 8.5 16 1 12.636 1 8.5z"/></symbol><symbol id="write"><g fill="#474A56"><path d="M15.324 43.272c1.005.66 3.025 1.428 5.416 1.428 5.353 0 7.79-3.398 7.79-6.56 0-2.188-1.17-4.044-3.049-5.042 1.491-1.056 2.316-2.592 2.316-4.397 0-2.682-1.947-5.385-6.296-5.385-2.383 0-4.454.873-5.502 1.621a.842.842 0 00-.3.983l.704 1.877a.842.842 0 001.28.388c.71-.509 2.007-1.104 3.32-1.104 1.61 0 2.499.722 2.499 2.03 0 1.75-2.037 2.384-3.409 2.384h-1.435a.842.842 0 00-.843.842v1.936c0 .464.377.841.843.841h1.435c.678 0 4.051.144 4.084 2.983.013.726-.255 1.424-.735 1.913-.603.613-1.52.924-2.732.924-1.607 0-3.136-.664-3.789-1.054a.845.845 0 00-1.226.44l-.705 1.963a.846.846 0 00.334.99zM31.593 28.88c.065.252.24.46.478.566.24.104.51.091.74-.031l2.128-1.15v15.27c0 .464.377.842.843.842h2.492a.842.842 0 00.843-.841V24.48a.842.842 0 00-.843-.843h-2.2a.834.834 0 00-.397.1l-4.163 2.228a.842.842 0 00-.418.95l.497 1.965z"/><path d="M48.267 4.687H8.67a5.184 5.184 0 00-5.18 5.178v39.688a5.184 5.184 0 005.18 5.179h39.598a5.186 5.186 0 005.18-5.179V9.866a5.184 5.184 0 00-5.18-5.179zm-8.97 3.74a2.005 2.005 0 11-.001 4.011 2.005 2.005 0 010-4.01zm-21.55-.016a2.005 2.005 0 11-.001 4.011 2.005 2.005 0 010-4.01zm32.329 41.143a1.81 1.81 0 01-1.808 1.809h-39.6a1.81 1.81 0 01-1.807-1.809v-34.07h43.215v34.07z"/></g></symbol></svg>