<?xml version="1.0" encoding="UTF-8"?>
<svg  version="1.1" viewBox="0 0 57 57" xmlns="http://www.w3.org/2000/svg" xmlns:xlink="http://www.w3.org/1999/xlink">
    <!--Generated by IJSVG (https://github.com/iconjar/IJSVG)-->
    <g transform="scale(1.00542)">
        <path fill="currentColor" d="M46.907,28.779c0.842,0 1.57,-0.579 1.761,-1.397l4.912,-16.005c0.227,-0.974 -0.376,-1.946 -1.349,-2.173c-0.973,-0.226 -1.944,0.377 -2.172,1.349l-0.517,2.21h-33.223l-0.959,-4.511c-0.178,-0.835 -0.916,-1.432 -1.769,-1.432h-8.301c-1,0 -1.809,0.81 -1.809,1.808c0,0.999 0.81,1.809 1.809,1.809h6.838l4.602,21.621c-0.004,0.017 -0.012,0.033 -0.016,0.05l-1.177,5.77c-0.09,0.441 0.023,0.9 0.308,1.249c0.285,0.349 0.711,0.551 1.162,0.551h30.351c0.829,0 1.5,-0.671 1.5,-1.5c0,-0.829 -0.671,-1.5 -1.5,-1.5h-28.514l0.624,-3.059l27.439,-4.84Z"></path>
        <path fill="currentColor" d="M23.6968,44.2152c1.65895,1.65895 1.65895,4.34863 0,6.00758c-1.65895,1.65895 -4.34863,1.65895 -6.00758,7.10543e-15c-1.65895,-1.65895 -1.65895,-4.34863 0,-6.00758c1.65895,-1.65895 4.34863,-1.65895 6.00758,-7.10543e-15"></path>
        <path fill="currentColor" d="M46.1368,44.2152c1.65895,1.65895 1.65895,4.34863 0,6.00758c-1.65895,1.65895 -4.34863,1.65895 -6.00758,7.10543e-15c-1.65895,-1.65895 -1.65895,-4.34863 -7.10543e-15,-6.00758c1.65895,-1.65895 4.34863,-1.65895 6.00758,-7.10543e-15"></path>
    </g>
</svg>