<?xml version="1.0" encoding="UTF-8"?>
<svg width="57" height="57" version="1.1" viewBox="0 0 57 57" xmlns="http://www.w3.org/2000/svg" xmlns:xlink="http://www.w3.org/1999/xlink">
    <!--Generated by IJSVG (https://github.com/iconjar/IJSVG)-->
    <g transform="scale(1.00542)">
        <path fill="#474A56" d="M46.719,45.374c0,3.027 -2.467,5.492 -5.492,5.492h-28.584c-3.03,0 -5.494,-2.465 -5.494,-5.492v-28.585c0,-3.027 2.464,-5.491 5.494,-5.491h22.425c0.041,-0.046 0.07,-0.097 0.115,-0.141l3.291,-3.293h-25.831c-4.924,0 -8.927,4.003 -8.927,8.925v28.585c0,4.921 4.003,8.926 8.927,8.926h28.584c4.921,0 8.925,-4.005 8.925,-8.926v-25.682l-3.433,3.435v22.247Z"></path>
        <path fill="#474A56" d="M53.085,11.157l-6.15,-6.149c-0.477,-0.475 -1.246,-0.475 -1.719,0l-0.859,0.86l-1.953,1.952l-0.114,0.114l-24.989,24.987c-0.114,0.115 -0.205,0.252 -0.265,0.404l-4.164,10.312c-0.184,0.453 -0.078,0.969 0.268,1.313c0.232,0.232 0.543,0.355 0.856,0.355c0.154,0 0.308,-0.028 0.457,-0.087l6.552,-2.645l3.762,-1.518c0.15,-0.062 0.288,-0.152 0.401,-0.27l27.81,-27.809l0.107,-0.105c0.226,-0.227 0.355,-0.535 0.355,-0.859c7.10543e-15,-0.318 -0.129,-0.627 -0.355,-0.855Zm-29.457,27.739l-4.028,1.626l-2.034,-2.031l1.629,-4.026l26.877,-26.882l2.044,2.04l-25.575,25.576c-0.235,0.237 -0.235,0.618 0,0.856c0.122,0.119 0.273,0.18 0.429,0.18c0.157,0 0.312,-0.061 0.431,-0.18l25.575,-25.573l1.531,1.532l-26.879,26.882Z"></path>
    </g>
</svg>