<?xml version="1.0" encoding="UTF-8"?>
<svg version="1.1" viewBox="0 0 24 24" xmlns="http://www.w3.org/2000/svg" xmlns:xlink="http://www.w3.org/1999/xlink">
    <!--Generated by IJSVG (https://github.com/iconjar/IJSVG)-->
    <path d="M23.704,12.587c0.005,-0.029 0.018,-0.056 0.018,-0.087c0,-0.018 -0.009,-0.034 -0.01,-0.052c0.005,-0.134 0.02,-0.265 0.02,-0.4c0,-1.672 -0.357,-3.261 -0.989,-4.702c-0.012,-0.036 -0.029,-0.068 -0.048,-0.1c-1.823,-4.05 -5.869,-6.886 -10.579,-6.938c-0.024,0 -0.047,-0.007 -0.07,-0.007c-0.004,0 -0.008,0.002 -0.012,0.002c-0.016,0 -0.032,-0.002 -0.048,-0.002c-0.009,0 -0.017,0.001 -0.026,0.001c-0.002,0 -0.004,-0.001 -0.007,-0.001c-0.013,0 -0.025,0.003 -0.038,0.004c-4.737,0.028 -8.809,2.874 -10.64,6.941c-0.02,0.032 -0.036,0.064 -0.048,0.1c-0.632,1.441 -0.989,3.03 -0.989,4.702c0,0.122 0.015,0.24 0.018,0.361c-0.006,0.031 -0.019,0.059 -0.019,0.091c0,0.054 0.015,0.103 0.031,0.152c0.093,1.815 0.586,3.524 1.414,5.031c0.012,0.029 0.031,0.052 0.048,0.079c2,3.575 5.81,6.003 10.183,6.029c0.013,0 0.025,0.004 0.038,0.004c0.002,0 0.004,-0.001 0.007,-0.001c0.009,0 0.017,0.001 0.026,0.001c0.016,0 0.032,-0.002 0.048,-0.002c0.004,0 0.008,0.002 0.012,0.002c0.024,0 0.047,-0.006 0.07,-0.007c4.351,-0.048 8.139,-2.471 10.128,-6.033c0.014,-0.024 0.032,-0.044 0.043,-0.07c0.839,-1.526 1.335,-3.258 1.419,-5.098Zm-22.418,0.413h4.567c0.057,1.427 0.242,2.771 0.533,4h-3.93c-0.635,-1.217 -1.044,-2.567 -1.17,-4Zm0.749,-5h4.161c-0.232,1.244 -0.364,2.586 -0.367,4h-4.589c0.006,-1.414 0.29,-2.763 0.795,-4Zm20.694,4h-4.562c-0.003,-1.414 -0.135,-2.756 -0.367,-4h4.134c0.505,1.237 0.789,2.586 0.795,4Zm-5.562,0h-4.682v-4h4.289c0.249,1.243 0.39,2.594 0.393,4Zm-4.683,-5v-5.651c1.733,0.327 3.251,2.551 4.061,5.651h-4.061Zm-1,-5.648v5.648h-4.033c0.805,-3.084 2.311,-5.303 4.033,-5.648Zm0,6.648v4h-4.655c0.003,-1.406 0.144,-2.757 0.393,-4h4.262Zm-4.632,5h4.632v4h-4.056c-0.311,-1.222 -0.513,-2.575 -0.576,-4Zm4.632,5v4.743c-1.549,-0.31 -2.923,-2.135 -3.77,-4.743h3.77Zm1,4.746v-4.746h3.797c-0.851,2.624 -2.237,4.452 -3.797,4.746Zm0,-5.746v-4h4.66c-0.063,1.424 -0.265,2.777 -0.577,4h-4.083Zm5.66,-4h4.539c-0.127,1.432 -0.536,2.783 -1.17,4h-3.902c0.29,-1.228 0.475,-2.573 0.533,-4Zm3.322,-6h-3.88c-0.543,-2.239 -1.436,-4.075 -2.559,-5.254c2.782,0.824 5.096,2.74 6.439,5.254Zm-12.49,-5.262c-1.126,1.177 -2.022,3.018 -2.567,5.262h-3.907c1.35,-2.524 3.678,-4.445 6.474,-5.262Zm-5.933,16.262h3.61c0.552,1.834 1.352,3.343 2.323,4.358c-2.452,-0.717 -4.545,-2.28 -5.933,-4.358Zm11.985,4.349c0.967,-1.015 1.764,-2.521 2.315,-4.349h3.583c-1.382,2.068 -3.461,3.628 -5.898,4.349Z"></path>
</svg>