<?xml version="1.0" encoding="UTF-8"?>
<svg version="1.1" viewBox="0 0 24 24" xmlns="http://www.w3.org/2000/svg" xmlns:xlink="http://www.w3.org/1999/xlink">
    <!--Generated by IJSVG (https://github.com/iconjar/IJSVG)-->
    <path d="M20.953,4.026l1.31793e-09,1.48361e-09c-0.183393,-0.20645 -0.499424,-0.22514 -0.705873,-0.0417469c-0.0623017,0.0553439 -0.109783,0.125382 -0.138127,0.203747l-1.109,3.07l7.63137e-08,-1.9085e-07c-0.270303,0.675993 -0.886588,1.15171 -1.609,1.242h-2.838l-4.64749e-09,5.81554e-10c-0.274005,0.0342871 -0.468336,0.284208 -0.434049,0.558213c0.00704775,0.0563221 0.0236343,0.111033 0.0490485,0.161787l0.885,2.28l1.0102e-08,2.02728e-08c0.0844921,0.169559 0.257556,0.276804 0.447,0.277h0.829l-1.41976e-08,-1.4662e-11c0.276142,0.000285163 0.499769,0.224374 0.499483,0.500516c-7.97416e-05,0.0772191 -0.0180436,0.15337 -0.0524834,0.222484l-2.776,5.692l-1.33543e-08,3.52046e-08c-0.397052,1.0467 -1.56745,1.57335 -2.61415,1.1763c-0.627953,-0.238205 -1.09715,-0.771982 -1.25285,-1.4253l-0.991,-4.167l-2.67245e-09,-5.33317e-09c-0.0847713,-0.16917 -0.257778,-0.275994 -0.447,-0.276h-0.445l-1.42062e-07,-3.55271e-15c-1.79493,-7.84587e-08 -3.25,-1.45507 -3.25,-3.25c7.84587e-08,-1.79493 1.45507,-3.25 3.25,-3.25h4.1l-2.18557e-08,-8.88178e-16c0.276142,1.20706e-08 0.5,-0.223858 0.5,-0.5v-1.146l6.17012e-10,4.96795e-05c0,-0.814954 -0.494479,-1.5484 -1.24995,-1.85403l-0.284,-0.114l5.5092e-08,2.17532e-08c-0.256845,-0.101416 -0.382845,-0.391844 -0.281429,-0.648689c0.0419592,-0.106265 0.119046,-0.194956 0.218429,-0.251311l2.721,-1.4l6.63505e-08,-3.39591e-08c0.245817,-0.125812 0.343099,-0.427077 0.217287,-0.672894c-0.0728426,-0.142322 -0.209354,-0.241227 -0.367287,-0.266106l8.54497e-08,1.37092e-08c-0.603217,-0.0967778 -1.21312,-0.145936 -1.82405,-0.147019l1.63943e-07,3.56488e-10c-6.64176,-0.0144422 -12.0377,5.35806 -12.0521,11.9998c-0.0144422,6.64176 5.35806,12.0377 11.9998,12.0521c6.64176,0.0144422 12.0377,-5.35806 12.0521,-11.9998c0.00643445,-2.95911 -1.07835,-5.81671 -3.04682,-8.02612Z" fill="currentColor"></path>
</svg>