<?xml version="1.0" encoding="UTF-8"?>
<svg version="1.1" viewBox="0 0 57 57" xmlns="http://www.w3.org/2000/svg" xmlns:xlink="http://www.w3.org/1999/xlink">
    <!--Generated by IJSVG (https://github.com/iconjar/IJSVG)-->
    <g transform="scale(1.00542)">
        <path fill="currentColor" d="M52.035,4.143h-31.06c-0.971,0 -1.759,0.786 -1.759,1.757v14.241h3.515v-12.484h22.546l-9.077,5.147c-0.55,0.312 -0.891,0.896 -0.891,1.528v27.196h-12.579v-9.68h-3.515v11.438c0,0.971 0.788,1.756 1.759,1.756h14.334v6.676c0,0.625 0.332,1.203 0.873,1.518c0.273,0.16 0.578,0.239 0.884,0.239c0.301,0 0.598,-0.075 0.867,-0.229l14.615,-8.288c0.719,-0.222 1.244,-0.882 1.244,-1.672v-37.386c0.001,-0.971 -0.785,-1.757 -1.756,-1.757Z"></path>
        <path fill="currentColor" d="M24.96,28.46c1.358,0 2.459,-1.101 2.459,-2.46c0,-1.357 -1.101,-2.459 -2.459,-2.459h-9.401v-4.585c0,-0.397 -0.224,-0.76 -0.576,-0.94c-0.354,-0.179 -0.776,-0.147 -1.097,0.087l-9.701,7.044c-0.273,0.2 -0.436,0.517 -0.436,0.853c0,0.338 0.163,0.656 0.436,0.854l9.699,7.046c0.184,0.133 0.4,0.201 0.619,0.201c0.164,0 0.328,-0.037 0.479,-0.115c0.353,-0.18 0.576,-0.543 0.576,-0.939v-4.587h9.402Z"></path>
    </g>
</svg>