<?xml version="1.0" encoding="UTF-8"?>
<svg version="1.1" viewBox="0 0 24 24" xmlns="http://www.w3.org/2000/svg" xmlns:xlink="http://www.w3.org/1999/xlink">
    <!--Generated by IJSVG (https://github.com/iconjar/IJSVG)-->
    <g>
        <path d="M14.2981,0.951903c1.2692,1.2692 1.2692,3.32699 0,4.59619c-1.2692,1.2692 -3.32699,1.2692 -4.59619,8.88178e-16c-1.2692,-1.2692 -1.2692,-3.32699 0,-4.59619c1.2692,-1.2692 3.32699,-1.2692 4.59619,-4.44089e-16"></path>
        <path d="M14.2981,9.7019c1.2692,1.2692 1.2692,3.32699 0,4.59619c-1.2692,1.2692 -3.32699,1.2692 -4.59619,0c-1.2692,-1.2692 -1.2692,-3.32699 0,-4.59619c1.2692,-1.2692 3.32699,-1.2692 4.59619,0"></path>
        <path d="M14.2981,18.4519c1.2692,1.2692 1.2692,3.32699 0,4.59619c-1.2692,1.2692 -3.32699,1.2692 -4.59619,0c-1.2692,-1.2692 -1.2692,-3.32699 0,-4.59619c1.2692,-1.2692 3.32699,-1.2692 4.59619,0"></path>
    </g>
</svg>