<?xml version="1.0" encoding="UTF-8"?>
<svg version="1.1" viewBox="0 0 24 24" xmlns="http://www.w3.org/2000/svg" xmlns:xlink="http://www.w3.org/1999/xlink">
    <!--Generated by IJSVG (https://github.com/iconjar/IJSVG)-->
    <path d="M21.961,6.308l-0.108,-0.162l-5.999,-5.999l-0.162,-0.108l-0.192,-0.039h-13c-0.276,0 -0.5,0.224 -0.5,0.5v23c0,0.276 0.224,0.5 0.5,0.5h19c0.276,0 0.5,-0.224 0.5,-0.5v-17l-0.039,-0.192Zm-5.961,-4.601l4.293,4.293h-4.293v-4.293Zm-13,21.293v-22h12v5.5c0,0.276 0.224,0.5 0.5,0.5h5.5v16h-18Zm15.5,-10h-2.255c-0.276,0 -0.5,0.224 -0.5,0.5v5.188c0,0.276 0.224,0.5 0.5,0.5c0.276,0 0.5,-0.224 0.5,-0.5v-2.094h1.141c0.276,0 0.5,-0.224 0.5,-0.5c0,-0.276 -0.224,-0.5 -0.5,-0.5h-1.141v-1.594h1.755c0.276,0 0.5,-0.224 0.5,-0.5c0,-0.276 -0.224,-0.5 -0.5,-0.5Zm-6.47,0h-0.938c-0.276,0 -0.5,0.224 -0.5,0.5v5.188c0,0.276 0.224,0.5 0.5,0.5h0.938c1.357,0 2.269,-1.243 2.269,-3.094c0.001,-1.851 -0.911,-3.094 -2.269,-3.094Zm0,5.188h-0.438v-4.188h0.438c0.937,0 1.269,1.128 1.269,2.094c0.001,0.966 -0.332,2.094 -1.269,2.094Zm-4.509,-5.188h-1.241c-0.276,0 -0.5,0.224 -0.5,0.5v5.188c0,0.276 0.224,0.5 0.5,0.5c0.276,0 0.5,-0.224 0.5,-0.5v-2.094h0.74c1.155,0 1.74,-0.604 1.74,-1.797c0,-1.193 -0.585,-1.797 -1.739,-1.797Zm0,2.594h-0.741v-1.594h0.74c0.638,0 0.74,0.189 0.74,0.797c0,0.608 -0.101,0.797 -0.739,0.797Z"></path>
</svg>