<?xml version="1.0" encoding="UTF-8"?>
<svg version="1.1" viewBox="0 0 24 24" xmlns="http://www.w3.org/2000/svg" xmlns:xlink="http://www.w3.org/1999/xlink">
    <!--Generated by IJSVG (https://github.com/iconjar/IJSVG)-->
    <path d="M23.854,23.146l-9.009,-9.009c1.336,-1.502 2.155,-3.473 2.155,-5.637c0,-4.687 -3.813,-8.5 -8.5,-8.5c-4.687,0 -8.5,3.813 -8.5,8.5c0,4.687 3.813,8.5 8.5,8.5c2.164,0 4.135,-0.819 5.637,-2.156l9.009,9.009c0.098,0.098 0.226,0.147 0.354,0.147c0.128,0 0.256,-0.049 0.354,-0.146c0.195,-0.196 0.195,-0.512 0,-0.708Zm-22.854,-14.646c0,-4.136 3.364,-7.5 7.5,-7.5c4.136,0 7.5,3.364 7.5,7.5c0,4.136 -3.364,7.5 -7.5,7.5c-4.136,0 -7.5,-3.364 -7.5,-7.5Z" ></path>
</svg>