<?xml version="1.0" encoding="UTF-8"?>
<svg version="1.1" viewBox="0 0 57 57" xmlns="http://www.w3.org/2000/svg" xmlns:xlink="http://www.w3.org/1999/xlink">
    <!--Generated by IJSVG (https://github.com/iconjar/IJSVG)-->
    <path d="M51.847,44.821c-7.998,-3.091 -16.877,-2.929 -17.623,-5.32v-3.597c7.988,-0.023 11.156,-2.604 11.156,-2.604c-3.333,-1.893 -4.39,-15.122 -4.39,-15.122c0,-4.049 -1.701,-7.671 -4.382,-10.148c-1.012,-1.174 -2.4,-2.058 -4.191,-2.585c-1.34,-0.498 -2.776,-0.783 -4.278,-0.783c-1.596,0 -3.117,0.32 -4.527,0.88c-1.447,0.478 -2.631,1.201 -3.555,2.135c-2.907,2.477 -4.769,6.26 -4.769,10.502c0,0 -1.057,13.229 -4.39,15.122c0,0 3.169,2.581 11.156,2.604v3.595c-0.744,2.389 -9.625,2.228 -17.623,5.32c-0.682,0.265 -1.133,0.928 -1.133,1.669v6.274c0,0.985 0.788,1.786 1.76,1.786h46.162c0.972,0 1.76,-0.801 1.76,-1.786v-6.273c0,-0.742 -0.451,-1.407 -1.133,-1.669Z" transform="scale(1.00542)" fill="#000000"></path>
</svg>