<?xml version="1.0" encoding="UTF-8"?>
<svg version="1.1" viewBox="0 0 57 57" xmlns="http://www.w3.org/2000/svg" xmlns:xlink="http://www.w3.org/1999/xlink">
    <!--Generated by IJSVG (https://github.com/iconjar/IJSVG)-->
    <g transform="scale(1.00542)">
        <path d="M15.241,43.039c1,0.656 3.009,1.42 5.387,1.42c5.324,0 7.749,-3.38 7.749,-6.524c0,-2.177 -1.165,-4.023 -3.033,-5.015c1.483,-1.051 2.303,-2.578 2.303,-4.374c0,-2.667 -1.936,-5.356 -6.262,-5.356c-2.37,0 -4.43,0.869 -5.472,1.613c-0.309,0.22 -0.432,0.621 -0.298,0.977l0.7,1.867c0.092,0.244 0.292,0.431 0.539,0.506c0.25,0.076 0.521,0.031 0.733,-0.12c0.707,-0.506 1.997,-1.098 3.302,-1.098c1.603,0 2.486,0.718 2.486,2.02c0,1.739 -2.026,2.37 -3.39,2.37h-1.428c-0.463,0 -0.838,0.375 -0.838,0.838v1.925c0,0.462 0.375,0.837 0.838,0.837h1.428c0.674,0 4.029,0.143 4.062,2.967c0.013,0.722 -0.254,1.416 -0.731,1.902c-0.6,0.61 -1.513,0.919 -2.718,0.919c-1.598,0 -3.119,-0.66 -3.768,-1.048c-0.215,-0.128 -0.479,-0.155 -0.713,-0.07c-0.236,0.083 -0.423,0.27 -0.507,0.507l-0.701,1.953c-0.129,0.366 0.008,0.772 0.332,0.984Z"></path>
        <path d="M31.423,28.725c0.064,0.25 0.239,0.456 0.475,0.562c0.238,0.104 0.508,0.091 0.736,-0.031l2.117,-1.143v15.188c0,0.461 0.375,0.837 0.838,0.837h2.479c0.463,0 0.838,-0.375 0.838,-0.837v-18.952c0,-0.463 -0.375,-0.838 -0.838,-0.838h-2.188c-0.137,0 -0.273,0.033 -0.395,0.099l-4.141,2.216c-0.339,0.182 -0.511,0.571 -0.416,0.945l0.495,1.954Z"></path>
        <path d="M48.007,4.662h-39.385c-2.84,0 -5.151,2.31 -5.151,5.15v39.474c0,2.84 2.31,5.151 5.151,5.151h39.385c2.84,0 5.151,-2.312 5.151,-5.151v-39.473c0,-2.84 -2.31,-5.151 -5.151,-5.151Zm-8.922,3.72c1.102,0 1.994,0.894 1.994,1.995c0,1.101 -0.893,1.994 -1.994,1.994c-1.101,0 -1.995,-0.892 -1.995,-1.994c0,-1.102 0.893,-1.995 1.995,-1.995Zm-21.434,-0.016c1.102,0 1.994,0.894 1.994,1.995c0,1.102 -0.893,1.994 -1.994,1.994c-1.101,0 -1.995,-0.893 -1.995,-1.994c1.77636e-15,-1.101 0.894,-1.995 1.995,-1.995Zm32.155,40.921c0,0.991 -0.806,1.799 -1.798,1.799h-39.386c-0.992,0 -1.798,-0.808 -1.798,-1.799v-33.886h42.982v33.886Z"></path>
    </g>
</svg>