<?xml version="1.0" encoding="UTF-8"?>
<svg xmlns="http://www.w3.org/2000/svg" xmlns:xlink="http://www.w3.org/1999/xlink" version="1.2" >
<font id="Lanoline Script Regular">
<font-face  font-family="Lanoline Script" units-per-em="1000" ascent="718" descent="-282" font-style="normal" font-weight="400" font-stretch="normal" cap-height="700" x-height="407" underline-position="-100" underline-thickness="50" />
<missing-glyph  horiz-adv-x="250" d="" />
<glyph glyph-name="NULL" d="" />
<glyph glyph-name="CR" unicode="&#xd;" horiz-adv-x="250" d="" />
<glyph glyph-name="space" unicode="&#x20;" horiz-adv-x="260" d="" />
<glyph glyph-name="uni0000" d="" />
<glyph glyph-name="uni000D" horiz-adv-x="250" d="" />
<glyph glyph-name="exclam" unicode="&#x21;" horiz-adv-x="211" d="M103 169 C108 168 113 165 117 165 C124 165 131 172 143 199 C163 245 183 655 181 659 C176 668 163 702 121 702 C115 702 110 701 103 700 C39 688 45 647 45 634 C45 561 63 249 64 224 C64 196 89 172 103 169 L103 169 Z M111 120 C54 120 29 81 29 51 C29 20 74 -5 115 -5 C156 -5 181 39 181 61 C181 82 168 120 111 120 L111 120 Z " />
<glyph glyph-name="quotedbl" unicode="&#x22;" horiz-adv-x="408" d="M138 443 C146 451 171 570 175 629 C177 660 154 675 130 675 C102 675 72 655 76 616 C82 554 91 475 98 449 C100 443 102 442 106 440 C109 438 115 436 121 436 C127 436 133 438 138 443 L138 443 Z M285 442 C293 450 327 570 331 629 C333 660 310 675 286 675 C258 675 228 655 232 616 C238 554 238 474 245 448 C247 442 249 441 253 439 C256 437 262 435 268 435 C274 435 280 437 285 442 L285 442 Z " />
<glyph glyph-name="numbersign" unicode="&#x23;" horiz-adv-x="850" d="M124 155 C157 153 193 152 232 151 C222 116 212 82 204 52 C198 28 225 24 242 24 C259 24 269 31 278 56 C288 83 299 113 311 149 C349 148 387 148 423 148 C413 114 404 81 396 52 C390 28 417 24 435 24 C451 24 462 31 471 56 C481 82 492 112 504 147 C549 147 585 148 606 148 C640 149 668 149 678 178 C689 208 674 221 662 221 C614 222 570 223 529 223 C541 260 554 300 569 346 C614 346 650 347 671 347 C706 348 734 348 744 377 C754 408 739 420 727 420 C678 421 634 422 593 422 C602 453 612 485 623 520 C626 530 618 547 584 547 C552 547 543 521 532 491 C527 476 519 453 509 423 C469 424 433 424 400 424 C409 454 419 486 430 520 C433 531 426 547 391 547 C359 547 351 521 340 491 C335 476 327 453 317 424 C278 423 245 422 215 421 C188 420 177 413 172 397 C168 382 163 355 189 354 C221 352 256 351 293 350 C281 311 267 268 254 225 C214 224 180 223 150 222 C122 221 111 213 107 198 C102 183 98 156 124 155 L124 155 Z M336 225 C348 261 361 302 376 348 C413 347 449 347 484 347 C472 308 459 267 446 224 C406 225 369 225 336 225 L336 225 Z " />
<glyph glyph-name="dollar" unicode="&#x24;" horiz-adv-x="511" d="M222 81 C221 57 222 19 229 12 C235 6 255 0 274 0 C288 0 301 3 307 12 C317 26 305 60 294 82 C397 95 438 161 438 224 C438 308 347 332 256 368 C150 410 196 554 300 554 C338 554 362 519 352 476 C339 420 289 419 286 416 C284 413 286 408 286 408 C287 399 313 388 344 388 C357 388 371 390 385 395 C440 414 457 445 457 494 C457 545 400 597 312 604 C314 630 313 674 307 689 C301 705 271 709 250 709 C240 709 231 708 228 707 C217 704 219 655 226 622 C228 612 231 605 235 599 C139 578 95 506 95 458 C95 346 220 340 270 313 C321 286 337 253 337 224 C337 179 312 123 252 123 C174 123 164 179 164 198 C164 241 226 253 226 263 C226 274 198 288 155 288 C111 288 55 250 55 195 C55 146 114 91 222 81 L222 81 Z " />
<glyph glyph-name="percent" unicode="&#x25;" horiz-adv-x="786" d="M621 756 C621 764 586 803 575 803 C558 803 479 719 370 719 C356 719 341 721 325 724 C316 755 290 798 253 798 C229 798 215 778 218 759 C214 760 209 760 204 760 C75 760 0 571 0 459 C0 405 32 345 96 345 C206 345 329 558 332 665 C332 667 334 668 335 668 C354 663 374 660 395 660 C421 660 447 664 470 670 C473 671 475 668 474 666 C390 539 191 201 191 59 C191 -7 269 -30 286 -30 C298 -30 307 -22 312 -17 C314 -15 313 -12 311 -11 C304 -7 289 6 289 32 C289 158 622 740 621 756 L621 756 Z M88 424 C83 424 83 435 83 438 C83 517 152 702 252 716 C256 711 264 703 275 696 C275 694 275 693 275 691 C275 612 120 424 88 424 L88 424 Z M658 401 C637 401 554 393 482 287 C410 181 412 88 412 88 C412 88 423 -11 532 -14 C595 -16 739 138 739 239 C739 380 680 401 658 401 L658 401 Z M501 62 C498 61 494 65 495 68 C524 161 586 295 681 332 C682 332 683 333 683 333 C686 333 688 330 688 327 C680 244 586 84 501 62 L501 62 Z " />
<glyph glyph-name="ampersand" unicode="&#x26;" horiz-adv-x="685" d="M51 178 C51 1 249 -17 275 -17 C398 -17 491 58 491 196 C491 218 487 235 482 249 C557 254 631 287 631 374 C631 443 590 475 521 479 C515 479 509 472 515 467 C539 447 547 432 547 392 C547 339 474 300 436 300 C402 300 352 312 308 312 C265 312 226 301 212 257 C196 208 227 168 270 168 C276 168 283 169 290 171 C294 172 293 176 290 178 C268 192 270 258 362 258 C367 258 372 257 378 257 C396 236 420 200 420 154 C420 88 356 33 291 33 C216 33 159 104 159 188 C159 352 283 371 283 371 C283 371 323 361 354 361 C386 361 400 374 397 390 C393 410 347 415 331 415 C303 415 275 411 275 411 C275 411 217 430 217 519 C217 608 313 653 362 653 C370 653 376 651 381 649 C422 629 386 517 305 516 C301 516 298 511 300 507 C322 474 355 462 394 462 C470 462 504 541 491 607 C480 668 406 710 328 710 C322 710 317 709 312 709 C228 702 121 627 121 524 C121 420 211 392 211 392 C211 392 51 355 51 178 L51 178 Z " />
<glyph glyph-name="quotesingle" unicode="&#x27;" horiz-adv-x="225" d="M67 443 C75 451 94 570 98 629 C100 660 77 675 53 675 C25 675 -5 655 -1 616 C5 554 20 475 27 449 C29 443 31 442 35 440 C38 438 44 436 50 436 C56 436 62 438 67 443 L67 443 Z " />
<glyph glyph-name="parenleft" unicode="&#x28;" horiz-adv-x="279" d="M228 641 C228 641 253 641 253 669 C253 697 222 709 155 709 C88 709 41 653 33 561 C25 473 21 174 36 89 C49 18 98 -17 161 -17 C173 -17 185 -16 198 -13 C276 3 250 53 244 57 C242 58 240 59 238 59 C221 59 187 28 161 28 C142 28 127 44 124 100 C121 173 105 613 147 660 C150 661 153 662 157 662 C183 662 228 641 228 641 L228 641 Z " />
<glyph glyph-name="parenright" unicode="&#x29;" horiz-adv-x="340" d="M81 641 C81 641 127 662 153 662 C157 662 160 661 163 660 C205 613 189 173 186 100 C183 44 168 28 149 28 C122 28 89 59 71 59 C69 59 67 58 65 57 C59 53 33 3 111 -13 C124 -16 136 -17 148 -17 C207 -17 249 18 268 89 C291 175 283 466 276 561 C269 653 221 709 154 709 C87 709 56 697 56 669 C56 641 81 641 81 641 L81 641 Z " />
<glyph glyph-name="asterisk" unicode="&#x2a;" horiz-adv-x="301" d="M9 636 C18 630 47 610 82 586 C39 558 2 533 1 528 C0 526 17 489 40 489 C43 489 46 490 49 491 C58 494 81 509 110 527 C111 489 113 459 116 456 C116 455 122 454 130 454 C145 454 168 459 173 479 C175 486 175 504 176 526 C204 508 226 494 235 491 C238 490 241 489 244 489 C267 489 284 526 283 528 C282 531 248 554 200 585 C236 609 266 630 275 636 C279 638 284 643 281 651 C275 665 254 678 236 678 C229 678 223 677 218 673 C214 670 197 660 175 646 C174 681 173 710 172 721 C172 729 161 731 155 731 C145 731 133 727 127 723 C115 714 109 700 109 681 C109 677 109 663 109 645 C95 654 80 663 66 673 C61 677 55 678 48 678 C30 678 9 665 3 651 C0 643 5 638 9 636 L9 636 Z " />
<glyph glyph-name="plus" unicode="&#x2b;" horiz-adv-x="455" d="M48 317 C61 298 81 291 105 291 C113 291 145 290 185 290 C185 219 186 154 190 149 C190 148 203 145 218 145 C239 145 265 151 270 175 C273 190 275 236 276 289 C345 289 410 290 415 294 C418 295 424 365 382 374 C368 377 326 379 276 380 C276 442 275 498 274 515 C274 520 272 532 261 534 C259 534 257 535 254 535 C227 535 187 510 187 477 C187 468 186 429 186 380 C124 380 67 379 49 378 C44 378 40 374 39 370 C36 359 38 331 48 317 L48 317 Z " />
<glyph glyph-name="comma" unicode="&#x2c;" horiz-adv-x="236" d="M114 136 C76 136 44 101 44 62 C44 19 77 -3 111 -5 C113 -5 115 -7 113 -8 C100 -26 55 -49 55 -55 C55 -64 68 -88 89 -88 C108 -88 192 -40 192 42 C192 93 163 136 114 136 L114 136 Z " />
<glyph glyph-name="hyphen" unicode="&#x2d;" horiz-adv-x="455" d="M105 285 C118 285 200 284 277 284 C346 284 410 285 415 289 C418 290 424 360 382 369 C363 373 295 375 226 375 C149 375 70 373 49 372 C44 372 40 368 39 364 C36 353 38 325 48 311 C61 292 81 285 105 285 L105 285 Z " />
<glyph glyph-name="period" unicode="&#x2e;" horiz-adv-x="203" d="M172 61 C172 106 141 142 102 142 C63 142 31 106 31 61 C31 16 63 -21 102 -21 C141 -21 172 16 172 61 L172 61 Z " />
<glyph glyph-name="slash" unicode="&#x2f;" horiz-adv-x="550" d="M103 -1 C122 -1 136 7 151 36 C207 142 361 481 487 760 C492 772 486 792 446 792 C409 792 395 762 377 726 C340 652 132 202 63 32 C52 4 83 -1 103 -1 L103 -1 Z " />
<glyph glyph-name="zero" unicode="0" horiz-adv-x="485" d="M399 542 C366 662 259 698 196 708 C194 708 188 709 179 709 C131 709 0 681 0 350 C0 -17 190 -17 190 -17 C190 -17 197 -19 210 -19 C243 -19 314 -5 373 100 C416 200 423 453 399 542 L399 542 Z M232 54 C149 54 128 258 131 437 C134 585 199 636 213 650 C215 652 217 652 219 652 C222 652 226 651 228 649 C242 637 283 591 294 506 C305 410 302 54 232 54 L232 54 Z " />
<glyph glyph-name="one" unicode="1" horiz-adv-x="292" d="M0 568 C0 564 0 561 2 558 C6 549 18 536 43 534 C45 534 47 534 49 534 C91 534 109 578 126 591 C127 592 129 590 129 589 C123 534 97 140 112 31 C116 -1 147 -6 169 -6 C192 -6 227 0 230 9 C233 17 238 562 236 617 C234 672 217 683 190 697 C174 705 153 709 137 709 C128 709 120 708 115 705 C102 699 6 585 3 578 C2 574 1 571 0 568 L0 568 Z " />
<glyph glyph-name="two" unicode="2" horiz-adv-x="483" d="M200 403 C200 411 133 401 133 480 C133 600 208 648 258 648 C309 648 322 562 322 520 C322 295 153 152 80 113 C46 94 2 72 0 58 C-1 44 6 6 25 7 C39 7 150 14 244 14 C287 14 327 12 351 8 C411 -4 425 -26 433 -27 C456 -30 466 81 433 103 C409 118 376 124 342 124 C284 124 225 108 207 104 C205 103 203 106 206 108 C322 189 442 316 442 466 C442 599 378 707 232 707 C134 707 15 650 14 516 C13 386 108 369 141 369 C145 369 148 370 150 370 C178 374 200 396 200 403 L200 403 Z " />
<glyph glyph-name="three" unicode="3" horiz-adv-x="503" d="M0 141 C0 66 52 -17 217 -17 C382 -17 450 81 449 193 C448 298 357 335 325 345 C362 361 465 414 465 525 C465 676 358 709 247 709 C235 709 223 709 211 708 C114 703 33 652 38 553 C43 474 105 436 179 436 C220 437 236 467 241 480 C242 484 240 488 236 488 C213 489 166 501 161 560 C157 608 190 665 244 667 C308 667 334 594 340 541 C347 479 330 375 262 375 C229 375 204 397 182 397 C145 397 123 380 123 365 C123 338 158 318 184 318 C219 318 250 323 250 323 C250 323 311 289 318 191 C326 93 263 40 217 40 C182 40 127 67 125 126 C123 191 179 195 181 202 C183 212 151 242 91 242 C31 242 0 188 0 141 L0 141 Z " />
<glyph glyph-name="four" unicode="4" horiz-adv-x="581" d="M1 265 C-7 226 35 186 50 187 C158 193 250 197 321 197 C320 161 319 131 319 114 C320 43 344 -7 376 -17 C429 -18 438 42 438 42 C438 42 441 104 445 188 C495 178 513 161 519 154 C520 153 522 153 524 154 C528 159 537 175 541 200 C547 235 546 277 466 292 C461 293 456 294 451 294 C458 454 466 634 464 651 C460 681 432 709 402 709 C384 709 377 705 377 705 C373 697 358 666 347 569 C341 514 332 396 326 292 C243 284 157 266 121 259 C118 258 116 262 117 265 C138 305 273 579 273 635 C273 695 239 709 225 709 C225 709 216 707 208 701 C201 694 6 288 1 265 L1 265 Z " />
<glyph glyph-name="five" unicode="5" horiz-adv-x="541" d="M0 155 C0 70 72 -17 251 -17 C413 -17 529 95 529 255 C529 457 386 515 285 515 C235 515 199 503 158 474 C156 514 153 561 155 597 C155 600 157 601 159 601 C176 603 197 604 219 604 C304 604 416 593 448 593 C452 593 455 593 456 594 C472 603 469 622 466 629 C464 636 432 701 362 706 C335 708 296 709 257 709 C193 709 126 706 106 700 C87 694 74 687 67 683 C65 681 64 678 64 675 C64 669 63 663 60 658 C57 653 55 648 53 641 C45 617 49 446 51 435 C51 435 56 417 80 398 C95 386 110 378 124 378 C134 378 144 382 153 391 C172 407 206 445 255 445 C314 445 394 413 394 244 C394 90 297 34 243 34 C208 34 128 68 128 154 C128 239 187 267 206 270 C208 270 210 270 212 270 C231 270 255 260 268 260 C272 260 275 261 277 264 C283 276 260 329 167 329 C75 329 0 240 0 155 L0 155 Z " />
<glyph glyph-name="six" unicode="6" horiz-adv-x="495" d="M331 512 C328 511 327 507 329 505 C337 496 357 481 397 481 C438 482 477 510 462 580 C445 659 361 709 259 709 C156 709 0 552 0 326 C0 154 51 -17 237 -17 C423 -17 457 130 457 230 C457 329 353 418 260 418 C190 418 154 390 140 376 C139 375 139 375 138 375 C136 375 133 377 134 379 C139 454 204 660 293 660 C326 660 363 609 363 565 C363 532 341 517 331 512 L331 512 Z M247 382 C285 382 343 339 343 220 C343 180 325 26 240 26 C139 26 133 191 133 220 C133 267 173 382 247 382 L247 382 Z " />
<glyph glyph-name="seven" unicode="7" horiz-adv-x="468" d="M0 689 C0 689 11 566 95 566 C183 566 293 616 354 618 C358 618 360 614 358 612 C318 565 80 232 80 73 C80 47 115 0 180 0 C197 0 206 2 212 4 C214 5 215 8 214 10 C211 15 211 24 211 44 C211 249 442 591 452 612 C461 632 434 693 391 706 C383 708 374 709 362 709 C309 709 222 690 132 690 C44 690 21 707 9 707 C7 707 6 707 4 706 C0 704 0 689 0 689 L0 689 Z " />
<glyph glyph-name="eight" unicode="8" horiz-adv-x="515" d="M347 415 C374 435 412 485 412 554 C412 640 341 709 248 709 C154 709 83 630 83 543 C83 470 131 427 159 410 C111 386 0 331 0 208 C0 59 110 -16 247 -16 C404 -16 494 64 494 199 C494 315 391 399 347 415 L347 415 Z M251 663 C294 663 322 582 322 547 C322 450 278 424 251 424 C229 424 175 452 175 551 C175 630 228 663 251 663 L251 663 Z M241 31 C152 31 116 120 116 205 C116 346 212 378 212 378 C212 378 235 373 251 373 C266 373 288 379 288 379 C288 379 378 335 378 205 C378 110 331 31 241 31 L241 31 Z " />
<glyph glyph-name="nine" unicode="9" horiz-adv-x="391" d="M280 698 C280 698 243 710 195 710 C171 710 144 707 117 698 C47 673 7 589 0 472 C-6 355 52 281 136 281 C182 281 215 324 246 375 C247 377 250 375 250 373 C242 323 233 206 235 148 C237 25 237 2 261 0 C282 0 313 4 332 13 C350 21 351 33 352 43 C353 52 359 576 359 622 C359 690 335 704 313 704 C300 704 287 699 280 698 L280 698 Z M154 336 C134 336 93 405 122 543 C145 656 222 666 250 669 C256 670 261 665 261 659 C258 632 252 567 247 512 C238 421 191 336 154 336 L154 336 Z " />
<glyph glyph-name="colon" unicode="&#x3a;" horiz-adv-x="256" d="M199 61 C199 106 168 142 129 142 C90 142 58 106 58 61 C58 16 90 -21 129 -21 C168 -21 199 16 199 61 L199 61 Z M199 359 C199 404 168 440 129 440 C90 440 58 404 58 359 C58 314 90 277 129 277 C168 277 199 314 199 359 L199 359 Z " />
<glyph glyph-name="semicolon" unicode="&#x3b;" horiz-adv-x="250" d="M192 359 C192 314 161 277 122 277 C83 277 51 314 51 359 C51 404 83 440 122 440 C161 440 192 404 192 359 L192 359 Z M121 136 C83 136 51 101 51 62 C51 19 84 -3 118 -5 C120 -5 122 -7 120 -8 C107 -26 62 -49 62 -55 C62 -64 75 -88 96 -88 C115 -88 199 -40 199 42 C199 93 170 136 121 136 L121 136 Z " />
<glyph glyph-name="less" unicode="&#x3c;" horiz-adv-x="264" d="M9 346 C12 343 164 200 188 202 C212 205 239 239 230 263 C223 283 148 344 120 366 C145 387 227 459 235 476 C245 497 237 507 237 507 C227 521 220 542 202 545 C185 548 21 392 9 380 C-5 365 6 349 9 346 L9 346 Z " />
<glyph glyph-name="equal" unicode="&#x3d;" horiz-adv-x="442" d="M119 366 C144 366 373 364 382 364 C385 365 392 435 349 444 C332 448 284 449 231 449 C164 449 90 447 67 446 C62 446 58 442 57 438 C54 427 52 406 62 392 C75 372 95 366 119 366 L119 366 Z M355 300 C333 305 260 306 192 306 C137 306 85 305 67 305 C62 304 58 301 57 296 C54 285 52 265 62 251 C75 231 95 225 119 225 C138 225 282 222 349 222 C369 222 382 222 382 223 C384 225 398 291 355 300 L355 300 Z " />
<glyph glyph-name="greater" unicode="&#x3e;" horiz-adv-x="258" d="M5 476 C13 459 95 387 120 366 C92 344 17 283 10 263 C1 239 28 205 52 202 C76 200 228 343 231 346 C234 349 245 365 231 380 C219 392 55 548 38 545 C20 542 13 521 3 507 C3 507 -5 497 5 476 L5 476 Z " />
<glyph glyph-name="question" unicode="&#x3f;" horiz-adv-x="498" d="M230 710 C80 710 22 583 22 525 C22 436 91 393 161 393 C220 393 220 419 220 419 C220 445 129 406 129 513 C129 566 164 655 249 655 C301 655 360 588 360 543 C360 403 203 358 193 265 C186 198 197 163 255 163 C285 163 280 192 280 219 C280 306 462 388 462 505 C462 643 359 710 230 710 L230 710 Z M242 120 C185 120 160 81 160 51 C160 20 205 -5 246 -5 C287 -5 312 39 312 61 C312 82 299 120 242 120 L242 120 Z " />
<glyph glyph-name="at" unicode="&#x40;" horiz-adv-x="716" d="M0 340 C0 84 189 0 318 0 C448 0 508 97 508 123 C508 142 470 158 454 158 C442 158 413 157 413 136 C413 119 365 52 306 52 C248 52 120 142 120 329 C120 501 226 650 373 650 C520 650 597 566 597 429 C597 292 558 228 535 228 C512 228 507 254 506 268 C499 337 506 522 506 522 C506 522 493 545 466 545 C454 545 445 540 438 535 C425 548 404 564 371 564 C261 564 212 432 212 340 C212 224 285 193 321 193 C324 193 327 194 329 194 C362 199 390 281 406 339 C408 307 413 281 415 268 C419 244 449 184 541 184 C632 184 701 256 701 420 C701 583 584 709 367 709 C150 709 0 548 0 340 L0 340 Z M323 262 C316 262 308 293 310 341 C313 388 351 505 384 519 C386 520 389 521 391 521 C407 521 416 490 417 486 C416 482 415 477 414 471 C407 443 360 262 323 262 L323 262 Z " />
<glyph glyph-name="A" unicode="A" horiz-adv-x="901" d="M179 264 C212 264 250 270 250 280 C250 308 141 294 141 423 C141 593 347 654 479 654 C484 654 487 650 486 646 C464 556 343 52 238 33 C232 32 227 31 222 31 C196 31 188 47 168 68 C158 79 144 83 133 83 C122 83 113 79 110 74 C104 63 152 -17 248 -17 C341 -17 395 69 432 159 C450 155 484 154 520 154 C540 154 562 154 581 155 C606 42 663 -17 748 -17 C851 -17 922 282 927 345 C929 373 926 397 901 407 C901 407 816 49 750 49 C713 49 695 283 689 348 C676 474 669 599 666 614 C654 676 605 683 584 683 C577 683 573 682 573 682 C573 682 515 703 417 703 C252 703 41 653 2 468 C-36 287 179 264 179 264 L179 264 Z M467 254 C497 346 522 439 539 516 C542 530 546 545 548 545 C549 545 550 537 550 516 C552 444 557 344 567 254 C553 255 538 255 523 255 C503 255 483 255 467 254 L467 254 Z " />
<glyph glyph-name="B" unicode="B" horiz-adv-x="739" d="M2 511 C-18 336 110 310 161 310 C166 310 170 311 173 311 C177 312 179 317 176 320 C155 346 105 451 169 567 C196 614 276 654 323 654 C458 654 523 566 523 502 C523 420 418 364 372 351 C373 424 373 502 367 523 C359 555 325 587 298 587 C293 587 287 586 283 583 C266 572 256 544 256 532 C250 461 252 241 252 182 C252 130 241 96 234 81 C220 85 202 88 185 88 C160 88 137 81 130 54 C124 31 158 1 210 1 C226 1 242 5 258 11 C289 -1 333 -16 372 -16 C504 -16 639 63 639 175 C639 275 553 318 514 332 C513 332 513 334 514 334 C558 352 643 415 643 504 C643 677 454 719 316 719 C130 711 13 600 2 511 L2 511 Z M306 45 C343 82 369 141 369 211 C369 217 370 254 371 302 C437 297 528 273 528 171 C528 90 424 40 345 40 C331 40 318 42 306 45 L306 45 Z " />
<glyph glyph-name="C" unicode="C" horiz-adv-x="532" d="M532 407 C532 407 520 356 492 277 C488 266 405 42 269 42 C206 42 140 160 140 323 C140 560 229 635 250 650 C252 651 253 652 255 652 C257 652 259 651 261 650 C274 643 310 611 310 493 C310 401 228 374 206 368 C203 367 201 364 202 361 C208 347 228 315 289 315 C347 315 439 347 439 476 C439 606 349 709 236 709 C124 709 0 600 0 312 C0 115 127 -16 269 -16 C426 -16 535 196 564 336 C570 364 557 393 532 407 L532 407 Z " />
<glyph glyph-name="D" unicode="D" horiz-adv-x="761" d="M1 511 C-14 337 111 310 161 310 C165 310 169 311 172 311 C176 312 178 317 175 320 C154 346 103 453 168 567 C195 614 252 644 299 644 C421 644 527 548 527 339 C527 194 492 40 351 40 C334 40 314 43 293 48 C329 85 353 143 353 211 C353 227 362 482 351 523 C343 555 309 587 282 587 C277 587 271 586 267 583 C250 572 241 544 240 532 C235 461 237 241 237 182 C237 130 225 96 218 81 C204 85 186 88 169 88 C144 88 121 81 114 54 C108 31 142 1 194 1 C210 1 226 5 242 11 C273 0 326 -16 366 -16 C464 -16 660 31 660 341 C660 613 449 709 296 709 C120 709 9 600 1 511 L1 511 Z " />
<glyph glyph-name="E" unicode="E" horiz-adv-x="526" d="M526 407 C526 407 515 356 486 277 C482 266 413 67 289 46 C280 45 271 44 263 44 C186 44 126 103 126 183 C126 312 265 356 265 356 C265 356 299 347 334 347 C349 347 364 348 377 353 C402 362 397 405 352 405 C328 405 303 404 279 399 C279 399 166 420 166 522 C166 613 221 672 283 672 C347 672 365 614 365 577 C365 538 315 520 278 520 C274 520 269 520 265 521 C261 522 259 517 260 514 C267 497 294 459 352 459 C422 459 469 508 460 581 C448 675 356 710 272 710 C170 708 64 649 61 544 C61 415 195 380 195 380 C195 380 7 341 0 193 C-6 47 103 -16 268 -16 C443 -16 522 191 558 336 C564 364 552 393 526 407 L526 407 Z " />
<glyph glyph-name="F" unicode="F" horiz-adv-x="628" d="M127 413 C139 413 145 429 135 436 C113 452 99 483 103 515 C108 564 129 620 234 620 C257 620 283 618 314 612 C313 609 312 500 310 405 C248 388 204 364 203 358 C203 358 218 326 237 322 C240 321 243 321 249 321 C262 321 282 323 307 325 C302 204 310 25 258 25 C232 25 215 57 229 86 C231 89 229 93 225 94 C221 95 217 95 213 95 C174 95 164 57 167 41 C172 10 207 -17 271 -17 C282 -17 294 -16 307 -14 C427 3 430 172 428 242 C427 259 426 294 424 335 C430 336 436 337 444 337 C482 337 536 320 539 321 C547 323 540 381 520 402 C507 415 478 422 436 422 C430 422 425 422 419 422 C415 512 410 600 410 600 C410 600 504 570 579 570 C601 570 621 573 637 579 C673 593 697 632 697 664 C697 738 648 767 618 767 C613 767 608 766 604 764 C595 759 627 725 590 688 C578 676 559 672 531 672 C493 672 439 680 365 692 C313 700 251 709 193 709 C108 709 32 689 9 615 C-31 480 68 417 127 413 L127 413 Z " />
<glyph glyph-name="G" unicode="G" horiz-adv-x="573" d="M242 456 C242 456 238 453 240 445 C241 435 264 407 333 407 C396 407 456 446 455 559 C454 650 373 710 276 710 C271 710 265 709 260 709 C170 704 -6 626 0 404 C6 182 148 146 190 146 C295 146 349 207 358 219 C359 220 360 219 360 218 C360 206 363 152 356 99 C346 20 300 -65 243 -65 C209 -65 156 -24 156 31 C156 73 177 92 185 99 C187 100 187 103 185 104 C181 106 176 109 169 112 C159 117 142 120 123 120 C78 120 23 101 23 31 C23 -70 132 -112 247 -112 C454 -112 476 78 476 225 C476 329 454 376 409 376 C363 376 364 338 364 338 C364 338 338 206 235 206 C186 206 134 278 134 430 C134 606 245 657 278 664 C284 664 288 663 294 662 C318 653 352 632 352 559 C352 512 322 449 272 449 C263 449 253 451 242 456 L242 456 Z " />
<glyph glyph-name="H" unicode="H" horiz-adv-x="927" d="M44 342 C81 303 134 289 171 289 C189 289 203 293 208 298 C216 306 209 313 209 313 C209 313 124 342 134 462 C145 580 223 655 341 655 C343 655 344 653 343 651 C339 645 332 630 332 610 L331 397 C325 396 320 396 317 396 C312 396 308 393 307 388 C304 377 303 356 312 343 C317 336 324 330 331 326 C330 259 340 30 244 30 C193 30 192 45 166 73 C155 84 140 89 128 89 C117 89 107 85 104 79 C97 67 148 -18 251 -18 C455 -18 443 167 450 317 C471 316 492 316 513 316 C558 316 602 317 637 318 C634 225 632 149 632 149 C632 80 704 1 773 1 C798 1 846 28 889 114 C920 180 946 278 959 336 C966 364 952 393 927 407 C927 407 912 336 881 234 C848 122 797 76 779 76 C777 76 776 76 775 77 C768 80 765 115 763 159 C763 167 764 637 764 649 C761 697 741 710 718 710 C695 710 654 698 651 670 L640 400 C620 401 590 402 557 402 C524 402 487 401 451 400 L447 650 C447 654 449 657 453 660 C460 664 465 671 465 678 C465 698 447 705 407 708 C401 709 386 709 367 709 C300 709 171 699 93 638 C-18 551 -23 413 44 342 L44 342 Z " />
<glyph glyph-name="I" unicode="I" horiz-adv-x="555" d="M209 313 C209 313 124 342 134 462 C145 580 223 655 341 655 C343 655 344 653 343 651 C339 645 332 630 332 610 C332 584 332 263 327 185 C321 101 296 30 244 30 C193 30 192 45 166 73 C155 84 140 89 128 89 C117 89 107 85 104 79 C97 67 148 -18 251 -18 C382 -18 441 40 456 198 C471 355 456 656 456 656 C456 656 481 663 481 673 C481 693 460 704 420 708 C414 708 400 709 381 709 C312 709 172 700 93 638 C-18 551 -23 413 44 342 C81 303 134 289 171 289 C189 289 203 293 208 298 C216 306 209 313 209 313 L209 313 Z " />
<glyph glyph-name="J" unicode="J" horiz-adv-x="538" d="M0 50 C0 -49 86 -113 207 -113 C328 -113 428 5 428 260 C428 446 415 563 407 615 C449 615 481 616 485 617 C495 621 495 642 495 656 C495 665 485 697 467 703 C452 708 416 710 376 710 C332 710 283 707 252 701 C188 689 187 666 189 643 C191 620 210 617 210 617 C210 617 252 616 303 616 L303 563 C303 497 328 -57 194 -57 C153 -57 123 -21 123 26 C123 135 201 126 201 149 C201 157 172 178 124 178 C39 178 0 108 0 50 L0 50 Z " />
<glyph glyph-name="K" unicode="K" horiz-adv-x="850" d="M850 407 C850 407 835 335 805 234 C770 120 718 58 701 58 C700 58 699 59 698 59 C689 66 697 240 696 271 C690 374 578 392 557 395 C554 395 553 398 554 400 C569 434 659 619 813 623 C816 623 818 625 818 627 C818 646 809 711 706 711 C608 711 497 434 447 297 C446 296 445 295 444 295 C442 295 441 296 441 298 C441 430 441 597 426 636 C403 695 362 711 294 711 C162 711 0 656 0 498 C0 371 121 332 195 332 C220 332 240 336 248 343 C250 345 250 350 247 351 C227 362 150 408 146 493 C140 620 237 653 298 653 C304 653 310 653 316 652 C319 651 321 648 321 645 C321 579 323 114 306 38 C306 36 303 34 300 35 C282 41 276 54 259 73 C248 84 233 89 221 89 C210 89 200 85 197 79 C190 67 241 -18 343 -18 C370 -18 384 -16 384 -16 C450 -11 442 52 442 97 C442 107 442 136 443 178 C465 231 501 317 515 341 C517 343 517 344 520 344 C521 344 522 344 524 344 C612 335 571 105 578 74 C581 61 612 -17 696 -17 C721 -17 770 10 812 97 C844 162 868 277 882 336 C888 364 876 393 850 407 L850 407 Z " />
<glyph glyph-name="L" unicode="L" horiz-adv-x="552" d="M131 568 C58 568 0 483 0 416 C0 307 81 224 190 224 C198 224 206 224 214 225 C208 87 186 50 186 50 C186 50 147 61 104 61 C62 61 24 41 23 6 C22 -27 51 -57 109 -57 C140 -57 181 -48 230 -25 C263 -42 294 -62 314 -78 C363 -120 413 -172 485 -172 C597 -172 588 -53 559 -38 C558 -37 557 -37 556 -37 C554 -37 553 -38 552 -40 C543 -53 539 -65 493 -65 C449 -65 378 -3 281 26 C318 85 328 172 330 258 C449 323 504 465 504 553 C504 621 452 682 382 682 C220 682 215 456 215 296 C215 293 215 291 215 288 C207 287 198 286 189 286 C143 286 115 328 115 405 C115 486 171 526 186 536 C189 537 189 540 187 542 C180 550 160 568 131 568 L131 568 Z M400 509 C386 469 363 412 328 366 C327 416 325 460 327 491 C328 600 381 628 403 635 C406 636 409 637 410 637 C413 637 413 634 414 627 C417 602 416 558 400 509 L400 509 Z " />
<glyph glyph-name="M" unicode="M" horiz-adv-x="1110" d="M114 194 C136 186 153 183 168 183 C210 183 225 208 225 208 C225 208 153 230 153 379 C153 538 270 615 320 640 C328 645 334 647 338 647 C347 647 349 638 349 623 L349 74 C349 17 398 1 436 1 C454 1 486 13 486 36 L487 189 C487 189 548 608 580 608 C598 608 578 206 578 142 C578 75 613 56 661 56 C696 56 705 72 706 84 C718 166 804 506 823 518 C833 525 823 196 823 187 L823 188 C822 152 821 130 821 130 C821 124 823 104 828 91 C847 32 906 -16 956 -16 C981 -16 1029 11 1072 97 C1103 162 1129 278 1142 336 C1149 364 1135 393 1110 407 C1110 407 1095 336 1064 234 C1029 119 978 58 960 58 C960 58 959 59 958 59 C951 62 945 487 939 514 C923 584 898 624 833 624 C809 624 781 565 764 512 C750 463 716 317 708 289 C708 288 707 288 707 289 C708 321 714 488 701 564 C687 648 655 709 588 709 C553 709 527 640 511 588 C498 544 485 459 479 428 C478 427 477 427 477 428 C476 463 472 583 464 619 C455 662 423 709 342 709 C285 709 0 645 0 382 C0 285 47 220 114 194 L114 194 Z " />
<glyph glyph-name="N" unicode="N" horiz-adv-x="947" d="M188 240 C255 240 299 278 284 281 C275 282 249 282 245 282 C225 282 132 309 132 419 C132 546 228 669 360 669 C378 669 391 666 399 665 C403 665 406 661 406 657 C404 621 387 431 381 263 C374 75 375 24 379 19 C383 13 406 1 441 1 C465 1 489 7 498 11 C502 12 504 16 504 20 C512 234 505 308 597 512 C625 573 647 606 671 606 C694 606 653 285 668 75 C668 62 708 -17 793 -17 C818 -17 866 10 908 97 C940 162 965 277 979 336 C985 364 972 393 946 407 C946 407 932 335 901 234 C866 119 823 58 806 58 C806 58 805 59 804 59 C771 80 795 374 797 436 C803 593 826 692 714 692 C620 692 560 565 529 476 C527 469 525 462 523 462 C522 462 522 467 522 481 C524 560 524 628 521 664 C519 681 511 709 385 709 C359 709 328 708 291 705 C74 690 6 551 0 442 C-5 332 83 240 188 240 L188 240 Z " />
<glyph glyph-name="O" unicode="O" horiz-adv-x="707" d="M108 256 C108 251 108 246 108 241 C108 79 206 -18 344 -18 C444 -18 609 87 609 371 C609 582 466 709 314 709 C171 710 32 607 5 474 C-20 347 48 282 108 256 L108 256 Z M134 436 C179 633 290 653 335 653 C347 653 354 652 354 652 C354 652 487 606 487 379 C487 150 370 36 341 36 C305 36 233 88 233 221 C233 405 362 428 384 430 C385 430 386 431 386 433 C382 443 348 489 295 489 C291 489 288 488 284 488 C238 483 163 444 127 353 C125 376 127 404 134 436 L134 436 Z " />
<glyph glyph-name="P" unicode="P" horiz-adv-x="706" d="M150 385 C153 385 154 389 151 391 C137 400 114 435 114 495 C114 582 176 667 327 667 C428 662 499 589 508 465 C518 311 407 266 349 254 L349 552 C349 597 310 616 279 616 C257 616 239 607 239 591 C241 593 227 44 231 39 C235 33 249 1 284 1 C309 1 333 7 341 11 C345 12 348 16 348 20 C348 33 349 114 349 210 C425 215 651 249 629 475 C612 654 464 712 314 712 C194 712 0 664 0 515 C0 416 62 385 150 385 L150 385 Z " />
<glyph glyph-name="Q" unicode="Q" horiz-adv-x="671" d="M0 412 C0 237 98 151 204 151 C332 151 405 252 405 365 C405 470 343 537 238 537 C231 536 227 528 232 522 C253 501 284 451 284 373 C284 263 257 187 206 187 C154 187 123 254 123 425 C123 595 226 667 292 667 C375 667 461 583 461 366 C461 157 328 75 242 43 C199 76 160 101 125 101 C83 101 72 73 72 56 C72 1 143 -4 183 -4 C195 -4 203 -4 203 -4 C203 -4 342 -225 493 -225 C584 -225 607 -161 607 -115 C607 -65 589 -55 583 -55 C575 -55 556 -100 509 -100 C428 -100 354 -44 286 9 C456 25 587 164 587 368 C587 570 452 711 285 711 C119 711 0 586 0 412 L0 412 Z " />
<glyph glyph-name="R" unicode="R" horiz-adv-x="740" d="M0 472 C0 373 62 342 150 342 C153 342 154 346 151 348 C137 357 114 393 114 453 C114 539 134 656 301 676 C311 677 321 678 331 678 C434 678 513 611 513 511 C513 376 432 333 382 333 C364 333 350 339 346 348 C346 455 346 549 346 552 C346 597 307 616 275 616 C253 616 235 607 235 591 C238 593 223 44 227 39 C231 33 246 1 281 1 C305 1 329 7 338 11 C342 12 344 16 344 20 C345 35 346 142 346 260 C346 269 347 277 358 279 C370 281 384 283 397 283 C433 283 467 272 467 240 C467 210 443 111 473 44 C473 44 522 -17 586 -17 C611 -17 659 10 701 97 C733 162 758 277 772 336 C778 364 765 393 740 407 C740 407 725 335 694 234 C659 120 608 58 591 58 C590 58 589 59 588 59 C571 76 590 190 589 223 C586 274 545 303 500 314 C564 344 643 405 643 514 C643 662 521 727 363 727 C333 727 303 724 271 720 C118 699 0 608 0 472 L0 472 Z " />
<glyph glyph-name="S" unicode="S" horiz-adv-x="614" d="M361 538 C361 538 349 560 302 560 C238 560 195 514 195 449 C195 360 293 324 368 324 C445 324 561 372 561 511 C561 640 409 711 298 711 C146 711 0 602 0 443 C0 167 353 259 354 102 C354 63 314 29 280 29 C168 29 199 137 204 137 C191 153 162 160 142 160 C110 160 79 143 79 104 C79 60 139 -15 287 -15 C429 -15 496 40 491 118 C480 293 130 176 130 456 C130 581 210 654 295 654 C368 654 458 606 458 514 C458 413 389 379 369 379 C349 379 316 403 316 459 C316 515 361 538 361 538 L361 538 Z " />
<glyph glyph-name="T" unicode="T" horiz-adv-x="627" d="M192 305 C249 305 293 338 316 383 C359 468 315 513 280 530 C269 536 260 537 252 538 C248 538 246 534 246 530 C248 514 250 479 229 438 C202 384 165 361 142 361 C115 361 104 400 104 421 C104 552 186 623 302 623 C335 623 373 619 413 612 C412 608 410 411 406 317 C401 196 409 25 357 25 C331 25 314 57 328 86 C330 89 328 93 324 94 C320 95 316 95 312 95 C273 95 263 57 266 41 C271 10 306 -17 370 -17 C381 -17 393 -16 406 -14 C526 3 529 172 527 242 C525 302 509 600 509 600 C509 600 622 570 678 570 C734 570 796 598 796 664 C796 738 747 767 717 767 C712 767 707 766 703 764 C700 762 738 675 621 675 C527 675 365 704 305 704 C159 704 4 648 4 477 C4 382 68 305 192 305 L192 305 Z " />
<glyph glyph-name="U" unicode="U" horiz-adv-x="950" d="M950 407 C950 407 935 337 904 236 C870 121 825 67 808 67 C807 67 806 68 805 68 C799 72 805 553 799 621 C794 681 749 711 719 711 C715 711 711 710 707 709 C679 698 675 386 669 336 C664 287 588 52 532 52 C517 52 503 70 495 124 C485 196 501 530 500 549 C499 568 518 711 330 711 C142 711 -5 552 0 417 C6 281 136 196 215 196 C268 196 287 214 294 226 C297 231 294 238 288 239 C277 241 260 243 241 243 C210 243 136 279 138 421 C140 560 284 660 351 660 C359 660 366 659 371 656 C386 647 337 281 349 143 C360 6 445 -15 531 -15 C588 -15 653 127 665 165 C666 168 667 167 667 166 C668 153 669 103 679 64 C683 51 723 -15 796 -15 C821 -15 870 12 912 98 C944 164 969 278 982 336 C989 365 976 394 950 407 L950 407 Z " />
<glyph glyph-name="V" unicode="V" horiz-adv-x="834" d="M206 248 C206 248 142 290 142 395 C137 544 265 597 313 612 C322 612 332 612 332 599 C339 521 364 213 375 163 C388 107 415 -16 525 -16 C635 -16 738 372 751 436 C764 499 784 646 724 690 C690 715 652 722 625 722 C604 722 590 718 590 714 C589 705 683 627 638 407 C610 270 549 95 529 64 C528 62 525 62 524 65 C511 115 470 535 460 571 C450 606 415 655 332 655 C326 655 320 655 313 654 C216 646 17 617 1 447 C-15 281 119 233 162 233 C164 233 165 233 166 233 C204 236 206 248 206 248 L206 248 Z " />
<glyph glyph-name="W" unicode="W" horiz-adv-x="1213" d="M444 646 C441 590 422 225 434 125 C447 18 510 -15 567 -15 C624 -15 732 294 732 294 C732 294 748 -15 884 -15 C1043 -15 1175 436 1141 599 C1122 690 1065 711 1019 711 C998 711 979 707 967 703 C962 702 960 695 965 692 C996 670 1028 597 1016 428 C1002 236 924 67 898 67 C864 67 872 613 869 653 C867 684 825 711 793 711 C785 711 778 710 772 706 C743 688 724 477 724 455 C724 405 604 93 580 93 C573 93 580 522 577 606 C574 691 512 711 324 711 C135 711 0 596 0 448 C0 301 156 245 213 245 C265 245 281 259 284 271 C285 276 281 280 277 280 C226 280 136 360 165 492 C190 611 330 653 437 653 C441 653 444 650 444 646 L444 646 Z " />
<glyph glyph-name="X" unicode="X" horiz-adv-x="882" d="M193 265 C250 267 258 282 258 282 C257 290 152 316 150 425 C149 516 187 595 278 631 C331 651 363 657 418 657 C426 657 426 651 426 646 C422 517 435 380 466 254 C342 110 231 58 200 45 C196 42 194 37 196 32 C217 -7 255 -23 298 -23 C329 -22 408 65 489 172 C527 62 585 -17 680 -17 C705 -17 756 10 808 97 C847 162 886 277 906 336 C915 364 906 393 882 407 C882 407 859 335 816 234 C766 113 695 53 688 53 C675 53 623 215 600 328 C692 460 805 615 850 642 C854 645 855 649 854 653 C848 672 826 720 767 720 C730 720 694 594 586 421 C563 593 567 672 540 691 C522 704 453 709 383 709 C343 709 302 708 269 705 C181 697 6 620 0 472 C-7 300 116 265 193 265 L193 265 Z " />
<glyph glyph-name="Y" unicode="Y" horiz-adv-x="815" d="M229 277 C234 278 236 283 232 285 C205 307 142 359 146 460 C152 637 268 670 328 672 C332 672 334 671 334 667 C332 629 316 422 316 315 C316 219 411 196 439 196 C499 196 576 379 593 423 C594 424 597 424 597 422 C600 384 588 196 584 155 C580 111 568 16 470 16 C423 16 408 41 405 69 C402 94 427 112 442 113 C445 113 445 116 445 119 C442 131 417 159 378 159 C374 159 369 159 365 158 C336 154 306 130 306 92 C306 33 339 -27 487 -27 C668 -27 698 110 706 164 C716 241 719 583 714 637 C710 690 661 709 623 709 C585 709 597 578 592 551 C569 433 467 271 441 271 C410 270 455 671 447 686 C439 700 374 718 272 718 C169 718 5 664 0 499 C-5 334 142 274 208 274 C217 274 224 275 229 277 L229 277 Z " />
<glyph glyph-name="Z" unicode="Z" horiz-adv-x="642" d="M642 407 C642 407 610 118 410 121 C392 154 336 176 304 181 C303 181 303 183 304 183 C463 213 542 336 542 455 C542 584 450 709 267 709 C56 709 0 542 0 456 C0 332 79 274 184 274 C291 274 328 344 328 418 C328 512 269 533 230 533 C218 533 207 530 202 528 C197 526 197 522 200 518 C207 505 225 474 225 428 C225 356 206 318 185 318 C164 318 116 339 116 458 C116 577 184 647 266 647 C347 647 404 607 404 449 C404 243 243 212 243 212 C243 212 216 218 187 218 C150 218 108 209 108 170 C108 151 134 145 164 145 C194 145 227 151 244 158 C263 153 288 134 289 113 C289 113 57 101 57 2 C57 -77 180 -113 217 -113 C407 -113 418 70 418 70 C574 81 629 187 669 347 C674 371 663 395 642 407 L642 407 Z M208 -75 C196 -75 132 -41 133 -8 C136 46 253 61 294 61 C294 8 265 -75 208 -75 L208 -75 Z " />
<glyph glyph-name="bracketleft" unicode="&#x5b;" horiz-adv-x="267" d="M139 659 C142 659 145 659 149 659 C168 659 194 658 205 658 C207 658 209 658 210 658 C217 660 227 715 210 715 L64 715 C58 715 53 711 52 706 C32 639 22 39 38 -8 C39 -12 79 -13 121 -13 C166 -13 214 -12 217 -10 C223 -8 224 38 213 41 C206 42 183 43 160 43 C151 43 143 43 136 43 C131 43 128 46 128 51 C117 189 120 516 134 654 C134 657 136 659 139 659 L139 659 Z " />
<glyph glyph-name="backslash" unicode="&#x5c;" horiz-adv-x="555" d="M450 -1 C470 -1 501 4 490 32 C421 202 213 652 176 726 C158 762 144 792 107 792 C67 792 61 772 66 760 C192 481 346 142 402 36 C417 7 431 -1 450 -1 L450 -1 Z " />
<glyph glyph-name="bracketright" unicode="&#x5d;" horiz-adv-x="283" d="M128 659 C131 659 133 657 133 654 C147 516 150 189 139 51 C139 46 136 43 131 43 C124 43 116 43 107 43 C84 43 61 42 54 41 C43 38 44 -8 50 -10 C53 -12 101 -13 146 -13 C188 -13 228 -12 229 -8 C245 39 235 639 215 706 C214 711 209 715 203 715 L57 715 C40 715 50 660 57 658 C58 658 60 658 62 658 C73 658 99 659 118 659 C122 659 125 659 128 659 L128 659 Z " />
<glyph glyph-name="asciicircum" unicode="&#x5e;" horiz-adv-x="388" d="M376 568 C371 598 217 743 184 743 C150 743 9 584 9 584 C-15 556 15 505 45 505 C70 505 162 618 182 640 C184 641 187 641 188 639 C226 603 305 511 324 511 C337 511 381 537 376 568 L376 568 Z " />
<glyph glyph-name="underscore" unicode="&#x5f;" horiz-adv-x="637" d="M143 -1 C156 -1 268 -2 372 -2 C466 -2 554 -1 559 3 C562 4 568 54 526 63 C507 67 415 69 320 69 C216 69 108 67 87 66 C82 66 78 62 77 58 C67 22 114 -1 143 -1 L143 -1 Z " />
<glyph glyph-name="grave" unicode="&#x60;" horiz-adv-x="230" d="M163 477 C177 477 187 486 193 492 C196 495 198 497 197 502 C190 541 141 674 121 694 C116 698 110 700 102 700 C74 700 33 675 33 665 C33 652 150 477 163 477 L163 477 Z " />
<glyph glyph-name="a" unicode="a" horiz-adv-x="473" d="M119 1 C162 1 195 60 212 102 C234 45 291 1 338 1 C419 1 491 273 505 336 C512 364 498 393 473 407 C467 370 383 77 340 77 C322 77 334 304 332 348 C326 445 273 451 240 451 C222 451 220 400 219 388 C214 408 194 461 121 461 C-4 461 -40 370 -55 204 C-65 89 14 1 119 1 L119 1 Z M77 265 C92 376 125 407 149 407 C189 407 208 323 211 305 C208 259 206 215 204 184 C199 166 170 72 126 72 C83 72 61 148 77 265 L77 265 Z " />
<glyph glyph-name="b" unicode="b" horiz-adv-x="455" d="M-8 122 C-5 41 63 8 108 8 C114 8 117 11 118 16 L118 70 C150 26 173 1 222 1 C282 1 336 45 373 89 C432 161 468 272 485 336 C493 364 480 393 455 407 C455 407 421 240 356 145 C358 157 359 168 359 181 C359 422 297 461 214 461 C181 461 144 390 118 329 L118 608 C113 693 60 709 26 709 C18 709 11 695 9 683 C7 665 -9 140 -8 122 L-8 122 Z M118 210 C118 245 197 412 211 412 C224 412 249 384 244 231 C241 139 231 81 222 58 C219 49 207 42 197 42 C163 42 126 132 118 160 L118 210 Z " />
<glyph glyph-name="c" unicode="c" horiz-adv-x="349" d="M349 407 C349 407 269 63 138 63 C75 63 63 195 65 240 C70 348 102 392 113 404 C114 405 115 406 116 406 C118 406 119 405 120 405 C132 401 153 386 153 344 C153 320 136 312 136 312 C136 312 140 285 167 285 C169 285 172 286 174 286 C184 287 206 301 206 348 C206 436 134 461 79 461 C24 461 -48 371 -54 248 C-57 164 -38 1 131 1 C281 1 354 216 381 336 C387 364 374 393 349 407 L349 407 Z " />
<glyph glyph-name="d" unicode="d" horiz-adv-x="497" d="M123 1 C167 1 199 60 216 103 C238 46 295 1 343 1 C368 1 416 28 458 114 C490 180 515 278 529 336 C535 364 522 393 497 407 C497 407 482 336 451 234 C417 122 367 76 348 76 C346 76 345 76 344 77 C338 80 334 115 333 159 C332 167 334 596 333 608 C328 694 275 710 242 710 C233 710 226 695 225 684 C223 669 219 538 215 408 C204 432 179 461 125 461 C0 461 -50 371 -51 204 C-52 85 18 1 123 1 L123 1 Z M81 265 C96 376 129 407 153 407 C188 407 206 343 212 315 C211 263 210 217 209 187 C209 187 180 72 130 72 C87 72 65 148 81 265 L81 265 Z " />
<glyph glyph-name="e" unicode="e" horiz-adv-x="372" d="M372 407 C372 407 306 63 182 63 C152 63 93 75 76 153 C177 157 265 239 265 330 C265 422 223 461 142 461 C28 461 -41 407 -52 253 C-64 90 38 1 174 1 C329 1 376 215 404 336 C410 364 398 393 372 407 L372 407 Z M158 405 C178 405 234 374 176 259 C157 223 110 197 71 194 C44 320 120 405 158 405 L158 405 Z " />
<glyph glyph-name="f" unicode="f" horiz-adv-x="334" d="M117 -245 C180 -244 247 -178 247 -13 C247 60 226 109 200 142 C304 151 341 246 365 336 C373 364 360 393 334 407 C334 407 308 247 241 207 C226 198 208 193 190 193 C164 193 137 202 117 216 C116 340 115 475 115 483 C110 568 57 584 23 584 C15 584 8 569 6 558 C1 516 -12 -25 -14 -75 C-17 -176 52 -246 117 -245 L117 -245 Z M114 148 C146 122 191 79 191 -13 C191 -78 173 -146 144 -171 C142 -173 140 -174 138 -174 C129 -174 120 -158 117 -126 C108 -43 115 29 114 148 L114 148 Z " />
<glyph glyph-name="g" unicode="g" horiz-adv-x="484" d="M103 -282 C235 -282 335 -202 335 -22 C368 -11 417 19 444 78 C482 142 504 276 516 336 C522 365 509 393 484 407 C471 315 432 80 335 42 C334 163 329 323 328 347 C323 432 269 448 236 448 C228 448 220 433 219 422 C218 417 218 411 217 404 C207 428 182 461 125 461 C0 461 -50 371 -51 204 C-52 83 18 7 123 7 C160 7 189 48 207 85 C206 54 206 24 206 -1 C86 -29 -39 -29 -60 -107 C-85 -201 -16 -282 103 -282 L103 -282 Z M153 407 C187 407 205 346 212 317 C210 277 209 231 208 185 C204 170 175 79 130 79 C96 79 71 123 71 201 C71 283 91 407 153 407 L153 407 Z M31 -135 C37 -89 105 -73 206 -50 C206 -113 186 -237 103 -237 C62 -237 24 -201 31 -135 L31 -135 Z " />
<glyph glyph-name="h" unicode="h" horiz-adv-x="468" d="M-8 122 C-5 40 63 7 108 7 C123 7 133 58 136 69 C159 153 185 290 203 330 C203 331 205 331 205 330 C209 327 205 217 205 161 C205 89 252 -4 333 -4 C412 -4 488 273 503 336 C509 364 494 393 468 407 C461 349 394 77 335 77 C324 77 318 158 318 168 C318 246 315 335 313 360 C308 445 269 461 235 461 C209 461 146 277 118 191 L118 613 C113 699 60 715 26 715 C18 715 11 700 9 689 C7 671 -9 139 -8 122 L-8 122 Z " />
<glyph glyph-name="i" unicode="i" horiz-adv-x="275" d="M66 511 C85 511 96 528 99 536 C107 554 129 659 129 702 C129 730 84 749 56 749 C30 749 14 747 -1 743 C-8 741 -12 735 -12 729 C-10 694 -4 579 6 551 C17 517 47 511 66 511 L66 511 Z M275 407 C275 407 260 336 229 234 C195 122 143 76 124 76 C123 76 121 76 120 77 C115 79 105 99 104 129 C101 191 108 274 108 345 C108 439 52 450 18 450 C10 450 3 435 1 424 C-5 379 -8 314 -10 257 L-14 148 C-14 80 52 1 121 1 C146 1 194 28 236 114 C268 180 293 278 307 336 C313 364 300 393 275 407 L275 407 Z " />
<glyph glyph-name="j" unicode="j" horiz-adv-x="258" d="M-76 -303 C58 -303 103 -191 114 -79 C117 -41 117 -3 115 36 C224 110 264 205 292 331 C299 361 285 392 258 407 C258 407 221 192 144 127 C135 118 125 109 114 101 C112 213 110 326 109 347 C104 432 51 448 18 448 C9 448 2 433 1 422 C-7 363 -11 159 -12 29 C-102 -16 -197 -60 -229 -123 C-269 -209 -232 -303 -76 -303 L-76 -303 Z M-15 714 C-13 679 -7 564 3 536 C14 502 54 492 73 492 C92 492 103 509 106 517 C114 535 137 622 137 666 C137 694 80 734 53 734 C27 734 11 732 -4 728 C-11 726 -15 720 -15 714 L-15 714 Z M-140 -159 C-126 -106 -66 -65 -13 -35 C-15 -85 -13 -243 -87 -243 C-129 -243 -152 -203 -140 -159 L-140 -159 Z " />
<glyph glyph-name="k" unicode="k" horiz-adv-x="456" d="M456 407 C456 407 441 336 410 234 C386 153 331 64 287 64 C235 64 216 106 202 135 C201 136 202 137 204 137 C280 137 321 201 321 271 C321 407 273 461 218 461 C185 461 138 348 121 304 C121 302 118 303 118 304 C118 448 118 605 118 608 C113 693 60 709 26 709 C18 709 11 695 9 683 C7 665 -9 140 -8 122 C-5 41 63 7 108 7 C118 7 119 18 119 29 C119 32 120 69 120 122 C148 75 208 1 303 1 C351 1 401 81 417 114 C449 180 475 278 488 336 C494 364 481 393 456 407 L456 407 Z M120 199 C128 220 189 375 227 408 C228 409 230 408 230 407 C233 395 242 321 217 262 C196 212 153 200 122 197 C121 197 120 198 120 199 L120 199 Z " />
<glyph glyph-name="l" unicode="l" horiz-adv-x="281" d="M281 407 C281 407 266 336 235 234 C201 122 151 76 132 76 C130 76 129 76 128 77 C121 80 118 115 117 159 C116 167 118 596 117 608 C112 694 59 710 26 710 C17 710 10 695 9 684 C5 654 -8 148 -8 148 C-8 80 58 1 127 1 C152 1 200 28 242 114 C274 180 299 278 313 336 C319 364 306 393 281 407 L281 407 Z " />
<glyph glyph-name="m" unicode="m" horiz-adv-x="684" d="M84 7 C95 8 103 18 103 29 C126 134 175 259 199 315 C200 316 203 316 203 314 C200 240 197 135 199 108 C205 43 261 16 302 8 C315 8 321 12 322 27 C342 126 388 251 413 309 C414 312 415 313 416 313 C417 313 418 310 418 308 C415 239 414 161 414 146 C414 70 489 1 549 1 C633 1 702 271 717 336 C723 364 710 393 684 407 C684 407 672 333 638 232 C629 204 582 77 544 77 C526 84 536 314 533 358 C530 415 518 460 456 460 C421 460 324 211 312 172 C312 172 310 172 310 173 C311 242 311 317 311 340 C311 450 265 461 231 461 C200 461 117 226 104 188 C104 263 103 338 103 347 C98 432 52 448 18 448 C10 448 3 433 1 422 C-4 381 -13 200 -15 150 C-18 50 19 7 82 7 C83 7 83 7 84 7 L84 7 Z " />
<glyph glyph-name="n" unicode="n" horiz-adv-x="466" d="M466 407 C466 407 454 333 420 232 C412 207 367 77 333 77 C315 84 321 314 318 359 C315 414 294 461 234 461 C227 461 219 453 211 442 C178 393 121 213 105 166 C105 164 103 165 103 166 C103 240 103 343 103 347 C98 433 52 449 18 449 C10 449 3 434 1 422 C-2 397 -16 125 -16 122 C-13 41 55 8 100 8 C109 8 109 16 112 25 C134 130 182 273 206 328 C206 329 208 329 208 328 C205 255 204 161 204 146 C204 70 271 1 331 1 C414 1 484 271 498 336 C505 364 492 393 466 407 L466 407 Z " />
<glyph glyph-name="o" unicode="o" horiz-adv-x="341" d="M104 1 C188 1 231 84 246 191 C247 191 248 191 249 191 C351 191 371 338 372 341 C377 375 364 393 341 407 C338 354 320 246 252 246 C253 261 253 275 253 290 C253 436 180 437 180 437 C180 437 138 461 96 461 C-33 461 -43 283 -43 191 C-43 67 43 1 104 1 L104 1 Z M84 277 C89 316 107 408 162 408 C162 408 189 398 194 302 C184 300 156 292 156 257 C156 234 170 215 192 203 C189 163 175 55 117 55 C100 58 62 120 84 277 L84 277 Z " />
<glyph glyph-name="p" unicode="p" horiz-adv-x="448" d="M88 -255 C99 -254 107 -244 107 -233 C108 -224 109 -72 109 74 C111 73 112 71 113 69 C143 27 165 1 220 1 C373 19 449 224 479 336 C487 364 474 393 448 407 C448 400 414 247 351 152 C352 161 353 171 353 181 C361 378 291 461 208 461 C174 461 136 388 110 326 C110 338 110 346 110 348 C105 434 52 450 18 450 C10 450 3 435 1 424 C-4 382 -17 -63 -19 -113 C-22 -213 23 -255 86 -255 C87 -255 87 -255 88 -255 L88 -255 Z M112 215 C131 312 198 412 205 412 C218 412 243 384 238 231 C235 139 224 81 216 58 C213 49 201 42 191 42 C157 42 119 134 110 162 C110 176 110 190 110 204 C111 207 111 211 112 215 L112 215 Z " />
<glyph glyph-name="q" unicode="q" horiz-adv-x="376" d="M118 1 C154 1 182 40 200 78 C197 -33 195 -130 195 -137 C198 -218 265 -251 310 -251 C316 -251 319 -248 320 -243 L320 118 C320 195 321 271 321 348 C316 434 262 450 229 450 C221 450 213 435 212 424 C212 422 211 416 211 407 C200 430 175 461 120 461 C-5 461 -41 370 -56 204 C-66 89 13 1 118 1 L118 1 Z M76 265 C91 376 124 407 148 407 C183 407 201 343 207 315 C206 277 205 231 203 184 C198 167 169 72 125 72 C82 72 60 148 76 265 L76 265 Z " />
<glyph glyph-name="r" unicode="r" horiz-adv-x="353" d="M36 358 C60 348 86 348 111 348 C99 265 84 170 84 148 C84 72 158 1 219 1 C300 1 371 272 386 336 C392 364 379 393 353 407 C353 407 339 336 308 234 C272 117 240 76 224 76 C223 76 221 76 220 77 C203 84 226 265 224 309 C220 374 195 399 169 407 C148 410 134 410 112 410 C89 410 64 412 58 423 C51 436 75 504 67 527 C59 546 49 576 14 584 C12 585 10 585 8 585 C-23 585 -42 527 -42 485 C-42 441 -39 387 36 358 L36 358 Z " />
<glyph glyph-name="s" unicode="s" horiz-adv-x="332" d="M-46 48 C-45 41 -22 0 67 0 C109 0 138 10 159 25 C274 55 338 245 363 336 C370 364 358 393 332 407 C332 407 285 177 194 108 C178 155 85 182 76 266 C65 353 114 409 140 409 C141 409 142 409 143 409 C169 405 163 345 149 307 C140 281 129 270 123 266 C119 263 118 257 121 253 C127 245 140 240 155 240 C211 240 237 301 237 350 C237 416 183 461 111 461 C22 461 -39 388 -39 290 C-39 181 21 139 50 116 C79 93 90 85 90 71 C90 59 78 55 62 55 C50 55 36 57 23 61 C9 65 -8 83 -26 83 C-30 83 -33 83 -37 81 C-48 76 -48 56 -46 48 L-46 48 Z " />
<glyph glyph-name="t" unicode="t" horiz-adv-x="280" d="M280 407 C280 407 265 336 234 234 C201 122 150 76 132 76 C130 76 129 76 128 77 C121 80 118 115 116 159 C116 162 116 384 116 424 C165 424 208 425 223 428 C226 429 227 432 227 434 C224 446 215 478 204 481 C197 483 161 483 116 483 L116 493 C111 579 58 595 24 595 C16 595 9 580 7 569 C6 561 4 537 2 482 C-48 481 -53 481 -63 480 C-68 480 -76 431 -52 428 C-44 426 -38 425 1 424 C-1 376 -8 148 -8 148 C-8 141 -7 122 -2 109 C17 49 76 1 126 1 C151 1 199 28 242 114 C273 180 299 278 312 336 C319 364 306 393 280 407 L280 407 Z " />
<glyph glyph-name="u" unicode="u" horiz-adv-x="487" d="M110 1 C165 1 205 90 218 137 C225 65 295 1 353 1 C434 1 505 272 520 336 C526 364 513 393 487 407 C487 407 473 336 442 234 C406 117 366 76 347 76 C346 76 344 76 343 77 C326 84 331 304 329 348 C324 445 282 451 248 451 C240 451 233 436 231 425 C229 412 228 397 226 381 C220 347 167 76 101 76 L100 77 C93 81 102 305 99 349 C94 434 52 450 19 450 C10 450 3 435 2 424 C-10 337 -25 173 -25 148 C-25 72 70 1 110 1 L110 1 Z " />
<glyph glyph-name="v" unicode="v" horiz-adv-x="379" d="M150 1 C190 1 229 94 256 194 C265 192 275 191 287 191 C389 191 409 338 410 341 C416 375 402 393 379 407 C379 407 369 246 296 246 C285 246 276 250 270 255 C281 307 291 360 291 413 C291 413 294 496 231 496 C200 496 171 410 171 352 C171 302 180 251 215 213 C192 128 157 56 142 56 C100 56 91 387 91 429 C91 483 20 483 20 483 C20 483 -21 406 -21 196 C-21 45 95 1 150 1 L150 1 Z " />
<glyph glyph-name="w" unicode="w" horiz-adv-x="556" d="M123 1 C150 1 171 67 184 133 C209 29 301 1 348 1 C389 1 422 93 444 192 C450 191 457 191 464 191 C567 191 587 338 587 341 C592 375 580 393 556 407 C556 407 547 246 474 246 C466 246 460 248 455 251 C466 321 471 387 468 420 C464 455 441 464 421 464 C417 464 413 464 409 463 C406 462 406 460 408 455 C416 411 421 348 413 303 C408 302 371 297 371 257 C371 237 381 220 398 208 C381 125 355 56 340 56 C305 56 294 354 294 396 C294 450 222 450 222 450 C222 450 194 418 183 298 C172 251 132 70 114 48 C113 47 110 47 109 50 C87 98 99 339 99 347 C94 444 53 450 20 450 C11 450 6 435 3 424 C-8 384 -21 265 -21 265 C-24 234 -26 198 -26 157 C-26 7 68 1 123 1 L123 1 Z " />
<glyph glyph-name="x" unicode="x" horiz-adv-x="447" d="M-28 -4 C-13 -27 3 -40 31 -40 C44 -38 78 42 99 95 C118 52 183 1 229 1 C287 1 346 68 365 91 C424 162 461 272 478 335 C485 363 473 393 447 407 C447 407 422 288 374 195 C347 136 295 82 271 77 C259 77 230 135 201 200 L361 411 C361 415 336 454 302 454 C297 454 292 453 287 451 C256 442 201 330 172 268 C148 325 129 376 126 384 C119 405 89 451 53 451 C18 451 -2 414 -2 414 C12 334 33 254 63 178 C40 147 -17 49 -31 15 C-33 9 -32 2 -28 -4 L-28 -4 Z " />
<glyph glyph-name="y" unicode="y" horiz-adv-x="516" d="M135 -282 C267 -282 367 -202 367 -22 C400 -11 449 19 476 78 C514 142 536 276 548 336 C554 365 541 393 516 407 C503 315 464 80 367 42 C366 163 361 323 360 347 C355 432 301 448 268 448 C260 448 252 433 251 422 C250 418 250 413 249 407 C249 407 201 79 119 79 C96 79 114 304 111 348 C106 434 53 450 19 450 C11 450 4 435 2 424 C-10 336 -11 160 -11 135 C-11 59 77 7 117 7 C176 7 216 108 241 207 C239 133 238 56 238 -1 C118 -29 -7 -29 -28 -107 C-53 -201 16 -282 135 -282 L135 -282 Z M63 -135 C69 -89 137 -73 238 -50 C238 -113 218 -237 135 -237 C94 -237 56 -201 63 -135 L63 -135 Z " />
<glyph glyph-name="z" unicode="z" horiz-adv-x="444" d="M444 407 C444 407 429 314 398 213 C371 122 322 69 282 60 C260 112 233 143 188 159 C229 198 343 314 343 350 C343 385 323 404 323 404 C323 404 321 450 262 450 C229 450 150 450 85 450 C53 450 24 450 7 450 C-4 450 -12 444 -9 434 C2 400 8 354 77 354 C138 354 189 356 217 357 C220 357 222 353 219 351 C170 303 53 187 53 168 C53 145 80 112 123 112 C126 112 132 113 139 113 C147 113 155 112 158 107 C177 81 180 55 180 23 C154 14 114 2 58 -12 C-63 -41 -108 -55 -108 -124 C-108 -193 -62 -259 72 -259 C314 -259 296 -1 296 3 C429 61 450 208 476 336 C482 365 469 393 444 407 L444 407 Z M48 -206 C8 -206 -17 -186 -17 -129 C-17 -72 57 -67 179 -28 C177 -107 138 -206 48 -206 L48 -206 Z " />
<glyph glyph-name="braceleft" unicode="&#x7b;" horiz-adv-x="349" d="M126 301 C126 301 135 287 133 266 C132 245 125 83 132 51 C138 22 166 -17 227 -17 C302 -17 316 8 313 29 C310 50 297 60 290 60 C284 60 247 23 230 23 C214 23 215 41 215 62 C215 83 234 245 222 287 C215 312 204 324 196 331 C207 341 224 362 224 399 C222 484 184 622 220 653 C229 660 237 664 244 664 C255 664 266 655 280 638 C281 637 282 637 283 637 C292 637 308 652 308 654 C308 667 301 709 232 709 C150 709 109 643 115 584 C120 525 145 367 127 354 C127 354 107 359 85 359 C61 359 36 353 36 327 C36 300 57 293 78 293 C102 293 126 301 126 301 L126 301 Z " />
<glyph glyph-name="bar" unicode="&#x7c;" horiz-adv-x="418" d="M247 -116 C253 4 253 376 249 682 C249 691 240 702 224 702 C173 702 169 644 168 605 C165 522 164 26 173 -157 C174 -176 186 -183 199 -183 C236 -183 245 -147 247 -116 L247 -116 Z " />
<glyph glyph-name="braceright" unicode="&#x7d;" horiz-adv-x="344" d="M119 -17 C180 -17 208 22 214 51 C221 83 214 245 213 266 C211 287 220 301 220 301 C220 301 244 293 268 293 C289 293 310 300 310 327 C310 353 285 359 261 359 C239 359 219 354 219 354 C201 367 226 525 231 584 C237 643 196 709 114 709 C45 709 38 667 38 654 C38 652 54 637 63 637 C64 637 65 637 66 638 C80 655 91 664 102 664 C109 664 117 660 126 653 C162 622 124 484 122 399 C122 362 139 341 150 331 C142 324 131 312 124 287 C112 245 131 83 131 62 C131 41 132 23 116 23 C99 23 62 60 56 60 C49 60 36 50 33 29 C30 8 44 -17 119 -17 L119 -17 Z " />
<glyph glyph-name="asciitilde" unicode="&#x7e;" horiz-adv-x="471" d="M34 273 C36 271 38 271 41 271 C45 271 50 273 52 278 C60 298 74 341 120 341 C201 341 244 284 356 284 C445 284 455 358 455 379 C455 401 440 429 429 429 C418 429 402 373 335 373 C268 373 189 425 110 425 C32 425 0 384 0 336 C0 300 22 280 34 273 L34 273 Z " />
<glyph glyph-name="exclamdown" unicode="&#xa1;" horiz-adv-x="211" d="M109 537 C104 538 99 541 95 541 C88 541 81 534 69 507 C49 461 29 51 31 47 C36 38 49 4 91 4 C97 4 102 5 109 6 C173 18 167 59 167 72 C167 145 149 457 148 482 C148 510 123 534 109 537 L109 537 Z M101 586 C158 586 183 625 183 655 C183 686 138 711 97 711 C56 711 31 667 31 645 C31 624 44 586 101 586 L101 586 Z " />
<glyph glyph-name="cent" unicode="&#xa2;" horiz-adv-x="447" d="M0 365 C-1 246 58 121 193 110 C185 93 182 17 199 12 C202 11 211 10 221 10 C242 10 272 14 278 30 C283 42 276 73 276 98 C340 105 390 153 390 198 C390 235 362 242 343 242 C335 242 329 241 326 240 C322 239 320 236 321 233 C331 181 282 148 239 148 C236 148 233 148 230 148 C161 155 114 240 112 359 C114 478 161 557 230 564 C234 564 237 565 241 565 C284 565 331 538 321 486 C320 483 322 480 326 479 C329 478 335 477 343 477 C362 477 390 484 390 521 C390 566 340 614 276 621 C276 646 275 677 270 689 C264 705 234 709 213 709 C203 709 194 708 191 707 C180 704 182 655 189 622 C190 617 191 613 193 609 C71 599 1 477 0 365 L0 365 Z " />
<glyph glyph-name="sterling" unicode="&#xa3;" horiz-adv-x="596" d="M126 0 C154 0 181 10 204 29 C251 17 315 -1 369 -12 C385 -15 401 -17 416 -17 C483 -17 535 16 537 84 C538 142 491 172 476 179 C475 180 472 179 472 177 C467 162 457 93 377 87 C366 86 354 86 343 86 C313 86 283 88 253 92 C264 116 270 142 270 171 C270 209 263 251 255 295 C307 295 355 294 359 294 C368 294 380 309 367 331 C354 353 337 370 310 370 C301 370 274 370 242 370 C235 417 231 466 236 516 C245 616 287 649 305 658 C307 659 309 660 311 660 C314 660 317 658 319 655 C327 645 346 619 346 563 C346 496 306 476 294 471 C291 470 291 468 292 466 C299 458 318 446 346 446 C353 446 361 447 370 449 C431 462 446 567 428 618 C407 677 357 711 297 711 C285 711 271 709 258 706 C180 688 137 580 139 491 C139 456 144 414 149 371 C117 371 93 371 92 371 C84 371 80 360 80 360 C75 351 87 297 125 297 C132 297 144 297 159 297 C164 254 169 215 170 186 C171 151 167 123 163 103 C151 104 141 105 131 105 C68 105 58 70 58 70 L59 69 C57 59 53 0 126 0 L126 0 Z " />
<glyph glyph-name="currency" unicode="&#xa4;" horiz-adv-x="563" d="M75 51 C102 51 108 65 108 65 C108 65 132 106 153 145 C194 115 237 100 265 100 C293 100 339 110 380 137 C396 103 434 57 433 57 C433 57 455 45 479 45 C482 45 486 45 490 46 C523 52 528 87 526 98 C525 108 466 184 444 204 C463 236 476 278 477 330 C478 398 455 447 423 479 C463 515 526 582 528 595 C530 613 501 641 461 645 C436 648 391 573 363 521 C337 533 311 537 291 537 C280 537 270 536 264 533 C264 533 248 536 230 536 C221 536 212 535 203 533 C197 531 190 529 183 526 C163 576 123 635 84 635 C79 635 73 633 68 631 C17 607 29 599 31 589 C33 580 86 510 118 481 C85 447 59 394 59 318 C59 275 72 238 92 208 C64 184 10 131 0 97 C5 84 27 51 75 51 L75 51 Z M173 322 C173 427 233 474 255 489 C260 492 264 493 269 493 C273 493 277 492 280 491 C305 480 364 439 364 322 C364 196 285 156 268 153 C266 153 263 153 261 153 C245 159 173 205 173 322 L173 322 Z " />
<glyph glyph-name="yen" unicode="&#xa5;" horiz-adv-x="515" d="M1 615 C7 590 100 438 170 342 L82 342 C73 342 70 333 70 333 C66 325 83 278 122 278 C134 278 163 278 198 277 C195 272 193 265 193 259 C192 246 190 232 189 219 L77 219 C68 219 65 210 65 210 C61 202 78 155 117 155 C128 155 155 155 187 155 C187 145 187 136 187 128 C189 22 189 1 211 0 C239 0 291 1 295 37 C295 40 296 88 297 154 C349 153 393 153 397 153 C407 153 418 166 403 185 C388 203 368 219 341 219 C341 219 340 219 339 219 L298 219 C298 238 298 257 298 276 C352 276 398 275 402 275 C412 275 423 289 408 308 C393 327 372 342 344 342 L313 342 C383 445 475 612 475 612 C488 636 471 678 459 698 C447 717 439 722 429 722 C391 722 276 501 246 416 C246 415 245 414 244 414 C243 414 242 415 241 417 C204 493 98 689 68 689 C50 689 -9 663 1 615 L1 615 Z " />
<glyph glyph-name="dieresis" unicode="&#xa8;" horiz-adv-x="428" d="M95 615 C63 615 42 574 33 553 C31 546 32 539 37 533 C50 519 80 491 127 491 C169 491 191 544 191 556 C191 568 139 615 95 615 L95 615 Z M301 615 C268 615 247 573 239 553 C236 545 238 538 242 533 C256 518 286 491 332 491 C374 491 396 544 396 556 C396 568 344 615 301 615 L301 615 Z " />
<glyph glyph-name="copyright" unicode="&#xa9;" horiz-adv-x="685" d="M412 288 C407 286 390 215 369 210 C368 210 367 210 367 210 C347 210 332 282 332 341 C332 408 362 451 377 468 C379 470 382 471 385 471 C388 471 391 470 393 467 C398 461 403 449 405 434 C408 409 415 403 429 403 C444 403 453 430 443 462 C435 488 408 510 373 510 C365 510 357 509 348 506 C301 492 248 442 248 348 C248 254 299 173 371 173 C442 173 461 265 458 274 C455 283 420 288 412 288 L412 288 Z M478 611 C454 621 428 617 403 623 C373 633 345 637 319 637 C147 637 55 447 63 299 C72 141 177 16 347 16 C563 16 638 169 638 365 C638 534 503 601 478 611 L478 611 Z M407 75 C390 71 373 69 357 69 C234 69 159 179 165 323 C172 511 250 569 318 583 C324 584 330 584 336 584 C365 584 395 576 406 574 C410 573 413 572 418 572 C438 572 512 561 532 460 C555 341 515 99 407 75 L407 75 Z " />
<glyph glyph-name="registered" unicode="&#xae;" horiz-adv-x="543" d="M362 722 C348 728 326 728 318 729 C316 729 314 730 311 730 C306 733 289 741 258 741 C244 741 227 739 206 735 C123 718 70 626 76 513 C82 410 159 326 272 326 C416 326 467 425 467 557 C467 669 377 716 362 722 L362 722 Z M314 365 C302 362 291 361 281 361 C199 361 150 433 154 529 C159 653 210 690 255 699 C259 700 263 700 267 700 C286 700 307 695 314 693 C316 692 318 692 321 692 C335 692 383 687 396 620 C412 541 385 380 314 365 L314 365 Z M345 458 C342 477 321 516 307 530 C306 531 306 532 307 532 C326 546 341 566 341 596 C338 644 282 650 276 650 C254 650 235 643 226 634 C220 634 215 628 214 623 C213 614 212 598 212 574 C213 530 211 471 213 454 C215 440 235 439 246 439 C254 441 258 444 258 470 C258 478 258 493 258 511 C258 512 258 513 259 513 C263 515 268 515 272 517 C273 517 274 517 274 516 C280 497 293 463 298 455 C305 445 316 440 334 440 C351 440 348 445 345 458 L345 458 Z M258 616 C265 621 275 626 285 626 C288 626 290 626 290 625 C307 598 285 562 260 549 C259 548 257 549 257 551 C255 575 257 593 257 612 C257 613 257 615 258 616 L258 616 Z " />
<glyph glyph-name="plusminus" unicode="&#xb1;" horiz-adv-x="466" d="M53 317 C66 298 86 291 110 291 C118 291 150 290 190 290 C190 219 191 154 195 149 C195 148 208 145 223 145 C244 145 270 151 275 175 C278 190 280 236 281 289 C350 289 415 290 420 294 C423 295 429 365 387 374 C373 377 331 379 281 380 C281 442 280 498 279 515 C279 520 277 532 266 534 C264 534 262 535 259 535 C232 535 192 510 192 477 C192 468 191 429 191 380 C129 380 72 379 54 378 C49 378 45 374 44 370 C41 359 43 331 53 317 L53 317 Z M48 28 C61 9 81 2 105 2 C118 2 200 1 277 1 C346 1 410 2 415 6 C418 7 424 77 382 86 C363 90 295 92 226 92 C149 92 70 90 49 89 C44 89 40 85 39 81 C36 70 38 42 48 28 L48 28 Z " />
<glyph glyph-name="acute" unicode="&#xb4;" horiz-adv-x="208" d="M56 476 C69 476 186 651 186 664 C186 674 145 700 117 700 C110 700 103 698 98 693 C78 674 29 540 22 501 C21 496 23 494 26 491 C32 485 42 476 56 476 L56 476 Z " />
<glyph glyph-name="cedilla" unicode="&#xb8;" horiz-adv-x="188" d="M37 13 C36 2 27 -28 27 -48 C27 -89 89 -63 89 -128 C89 -179 15 -171 15 -183 C15 -195 48 -202 92 -202 C135 -202 174 -170 174 -133 C174 -66 90 -70 90 -47 C92 -27 97 -1 95 9 C92 21 75 30 60 30 C45 30 37 13 37 13 L37 13 Z " />
<glyph glyph-name="questiondown" unicode="&#xbf;" horiz-adv-x="498" d="M254 1 C404 1 462 128 462 186 C462 275 393 318 323 318 C264 318 264 292 264 292 C264 266 355 305 355 198 C355 145 320 56 235 56 C183 56 124 123 124 168 C124 308 281 353 291 446 C298 513 287 548 229 548 C199 548 204 519 204 492 C204 405 22 323 22 206 C22 68 125 1 254 1 L254 1 Z M242 591 C299 591 324 630 324 660 C324 691 279 716 238 716 C197 716 172 672 172 650 C172 629 185 591 242 591 L242 591 Z " />
<glyph glyph-name="Agrave" unicode="&#xc0;" horiz-adv-x="901" d="M179 264 C212 264 250 270 250 280 C250 308 141 294 141 423 C141 593 347 654 479 654 C484 654 487 650 486 646 C464 556 343 52 238 33 C232 32 227 31 222 31 C196 31 188 47 168 68 C158 79 144 83 133 83 C122 83 113 79 110 74 C104 63 152 -17 248 -17 C341 -17 395 69 432 159 C450 155 484 154 520 154 C540 154 562 154 581 155 C606 42 663 -17 748 -17 C851 -17 922 282 927 345 C929 373 926 397 901 407 C901 407 816 49 750 49 C713 49 695 283 689 348 C676 474 669 599 666 614 C654 676 605 683 584 683 C577 683 573 682 573 682 C573 682 515 703 417 703 C252 703 41 653 2 468 C-36 287 179 264 179 264 L179 264 Z M467 254 C497 346 522 439 539 516 C542 530 546 545 548 545 C549 545 550 537 550 516 C552 444 557 344 567 254 C553 255 538 255 523 255 C503 255 483 255 467 254 L467 254 Z M554 769 C568 769 578 778 584 784 C587 787 589 789 588 794 C581 833 532 966 512 986 C507 990 501 992 493 992 C465 992 424 967 424 957 C424 944 541 769 554 769 L554 769 Z " />
<glyph glyph-name="Aacute" unicode="&#xc1;" horiz-adv-x="901" d="M179 264 C212 264 250 270 250 280 C250 308 141 294 141 423 C141 593 347 654 479 654 C484 654 487 650 486 646 C464 556 343 52 238 33 C232 32 227 31 222 31 C196 31 188 47 168 68 C158 79 144 83 133 83 C122 83 113 79 110 74 C104 63 152 -17 248 -17 C341 -17 395 69 432 159 C450 155 484 154 520 154 C540 154 562 154 581 155 C606 42 663 -17 748 -17 C851 -17 922 282 927 345 C929 373 926 397 901 407 C901 407 816 49 750 49 C713 49 695 283 689 348 C676 474 669 599 666 614 C654 676 605 683 584 683 C577 683 573 682 573 682 C573 682 515 703 417 703 C252 703 41 653 2 468 C-36 287 179 264 179 264 L179 264 Z M467 254 C497 346 522 439 539 516 C542 530 546 545 548 545 C549 545 550 537 550 516 C552 444 557 344 567 254 C553 255 538 255 523 255 C503 255 483 255 467 254 L467 254 Z M536 769 C549 769 666 944 666 957 C666 967 625 993 597 993 C590 993 583 991 578 986 C558 967 509 833 502 794 C501 789 503 787 506 784 C512 778 522 769 536 769 L536 769 Z " />
<glyph glyph-name="Acircumflex" unicode="&#xc2;" horiz-adv-x="901" d="M179 264 C212 264 250 270 250 280 C250 308 141 294 141 423 C141 593 347 654 479 654 C484 654 487 650 486 646 C464 556 343 52 238 33 C232 32 227 31 222 31 C196 31 188 47 168 68 C158 79 144 83 133 83 C122 83 113 79 110 74 C104 63 152 -17 248 -17 C341 -17 395 69 432 159 C450 155 484 154 520 154 C540 154 562 154 581 155 C606 42 663 -17 748 -17 C851 -17 922 282 927 345 C929 373 926 397 901 407 C901 407 816 49 750 49 C713 49 695 283 689 348 C676 474 669 599 666 614 C654 676 605 683 584 683 C577 683 573 682 573 682 C573 682 515 703 417 703 C252 703 41 653 2 468 C-36 287 179 264 179 264 L179 264 Z M467 254 C497 346 522 439 539 516 C542 530 546 545 548 545 C549 545 550 537 550 516 C552 444 557 344 567 254 C553 255 538 255 523 255 C503 255 483 255 467 254 L467 254 Z M532 972 C522 972 511 969 509 966 C475 912 440 841 387 797 C385 795 386 792 387 790 C392 779 402 768 418 768 C454 768 515 859 532 889 C533 891 535 891 536 891 C538 891 539 891 540 889 C556 859 614 765 666 765 C707 765 713 781 710 785 C648 852 613 906 595 934 C579 958 557 972 532 972 L532 972 Z " />
<glyph glyph-name="Atilde" unicode="&#xc3;" horiz-adv-x="901" d="M179 264 C212 264 250 270 250 280 C250 308 141 294 141 423 C141 593 347 654 479 654 C484 654 487 650 486 646 C464 556 343 52 238 33 C232 32 227 31 222 31 C196 31 188 47 168 68 C158 79 144 83 133 83 C122 83 113 79 110 74 C104 63 152 -17 248 -17 C341 -17 395 69 432 159 C450 155 484 154 520 154 C540 154 562 154 581 155 C606 42 663 -17 748 -17 C851 -17 922 282 927 345 C929 373 926 397 901 407 C901 407 816 49 750 49 C713 49 695 283 689 348 C676 474 669 599 666 614 C654 676 605 683 584 683 C577 683 573 682 573 682 C573 682 515 703 417 703 C252 703 41 653 2 468 C-36 287 179 264 179 264 L179 264 Z M467 254 C497 346 522 439 539 516 C542 530 546 545 548 545 C549 545 550 537 550 516 C552 444 557 344 567 254 C553 255 538 255 523 255 C503 255 483 255 467 254 L467 254 Z M668 922 C654 922 647 857 595 857 C542 857 529 921 464 921 C420 921 393 893 385 853 C382 836 384 815 393 804 C395 801 398 800 402 800 C405 800 409 802 411 805 C420 822 432 853 463 853 C512 853 547 784 613 784 C668 784 689 842 689 865 C689 888 681 922 668 922 L668 922 Z " />
<glyph glyph-name="Adieresis" unicode="&#xc4;" horiz-adv-x="901" d="M179 264 C212 264 250 270 250 280 C250 308 141 294 141 423 C141 593 347 654 479 654 C484 654 487 650 486 646 C464 556 343 52 238 33 C232 32 227 31 222 31 C196 31 188 47 168 68 C158 79 144 83 133 83 C122 83 113 79 110 74 C104 63 152 -17 248 -17 C341 -17 395 69 432 159 C450 155 484 154 520 154 C540 154 562 154 581 155 C606 42 663 -17 748 -17 C851 -17 922 282 927 345 C929 373 926 397 901 407 C901 407 816 49 750 49 C713 49 695 283 689 348 C676 474 669 599 666 614 C654 676 605 683 584 683 C577 683 573 682 573 682 C573 682 515 703 417 703 C252 703 41 653 2 468 C-36 287 179 264 179 264 L179 264 Z M467 254 C497 346 522 439 539 516 C542 530 546 545 548 545 C549 545 550 537 550 516 C552 444 557 344 567 254 C553 255 538 255 523 255 C503 255 483 255 467 254 L467 254 Z M399 908 C367 908 346 867 337 846 C335 839 336 832 341 826 C354 812 384 784 431 784 C473 784 495 837 495 849 C495 861 443 908 399 908 L399 908 Z M605 908 C572 908 551 866 543 846 C540 838 542 831 546 826 C560 811 590 784 636 784 C678 784 700 837 700 849 C700 861 648 908 605 908 L605 908 Z " />
<glyph glyph-name="Aring" unicode="&#xc5;" horiz-adv-x="901" d="M179 264 C212 264 250 270 250 280 C250 308 141 294 141 423 C141 593 347 654 479 654 C484 654 487 650 486 646 C464 556 343 52 238 33 C232 32 227 31 222 31 C196 31 188 47 168 68 C158 79 144 83 133 83 C122 83 113 79 110 74 C104 63 152 -17 248 -17 C341 -17 395 69 432 159 C450 155 484 154 520 154 C540 154 562 154 581 155 C606 42 663 -17 748 -17 C851 -17 922 282 927 345 C929 373 926 397 901 407 C901 407 816 49 750 49 C713 49 695 283 689 348 C676 474 669 599 666 614 C654 676 605 683 584 683 C577 683 573 682 573 682 C573 682 515 703 417 703 C252 703 41 653 2 468 C-36 287 179 264 179 264 L179 264 Z M467 254 C497 346 522 439 539 516 C542 530 546 545 548 545 C549 545 550 537 550 516 C552 444 557 344 567 254 C553 255 538 255 523 255 C503 255 483 255 467 254 L467 254 Z M573 991 C513 991 468 950 468 888 C468 812 489 749 575 749 C639 753 681 822 681 888 C681 952 633 991 573 991 L573 991 Z M574 794 C572 793 570 792 568 792 C566 792 564 793 562 794 C554 802 542 820 541 863 C539 912 556 940 569 949 C571 951 574 952 576 952 C578 952 580 951 581 950 C589 944 600 926 600 878 C600 823 583 801 574 794 L574 794 Z " />
<glyph glyph-name="AE" unicode="&#xc6;" horiz-adv-x="1065" d="M129 -17 C240 -17 318 67 386 157 C406 155 432 154 460 154 C488 154 517 155 540 155 C553 36 657 -16 807 -16 C982 -16 1061 191 1097 336 C1103 364 1091 393 1065 407 C1039 288 958 68 828 46 C819 45 810 44 802 44 C725 44 665 103 665 183 C665 312 804 356 804 356 C804 356 838 347 873 347 C888 347 903 348 916 353 C941 362 936 405 891 405 C867 405 842 404 818 399 C818 399 705 420 705 522 C705 613 760 672 822 672 C886 672 904 614 904 577 C904 538 854 520 817 520 C813 520 808 520 804 521 C800 522 798 517 799 514 C806 497 833 459 891 459 C961 459 1008 508 999 581 C987 675 895 710 811 710 C772 709 732 700 698 683 C656 712 533 716 481 716 C316 716 97 669 57 480 C19 299 234 276 234 276 C267 276 305 282 305 292 C305 320 196 306 196 435 C196 605 402 666 534 666 C546 666 598 664 598 646 C540 556 237 51 125 31 C118 30 112 29 107 29 C77 29 70 47 58 68 C52 79 40 83 29 83 C18 83 8 79 3 74 C-8 63 11 -17 129 -17 L129 -17 Z M458 255 C506 323 563 406 611 485 C643 404 734 380 734 380 C734 380 593 351 551 247 C536 253 507 255 476 255 C470 255 464 255 458 255 L458 255 Z " />
<glyph glyph-name="Ccedilla" unicode="&#xc7;" horiz-adv-x="532" d="M0 312 C0 146 91 26 204 -7 C201 -20 198 -36 198 -48 C198 -89 260 -63 260 -128 C260 -179 186 -171 186 -183 C186 -195 219 -202 263 -202 C306 -202 345 -170 345 -133 C345 -66 261 -70 261 -47 C262 -37 264 -26 265 -16 C429 -16 535 198 564 336 C570 364 557 393 532 407 C503 284 415 42 269 42 C206 42 140 160 140 323 C140 560 229 635 250 650 C252 651 253 652 255 652 C257 652 259 651 261 650 C274 643 310 611 310 493 C310 401 228 374 206 368 C203 367 201 364 202 361 C208 347 228 315 289 315 C347 315 439 347 439 476 C439 606 349 709 236 709 C124 709 0 600 0 312 L0 312 Z " />
<glyph glyph-name="Egrave" unicode="&#xc8;" horiz-adv-x="526" d="M526 407 C526 407 515 356 486 277 C482 266 413 67 289 46 C280 45 271 44 263 44 C186 44 126 103 126 183 C126 312 265 356 265 356 C265 356 299 347 334 347 C349 347 364 348 377 353 C402 362 397 405 352 405 C328 405 303 404 279 399 C279 399 166 420 166 522 C166 613 221 672 283 672 C347 672 365 614 365 577 C365 538 315 520 278 520 C274 520 269 520 265 521 C261 522 259 517 260 514 C267 497 294 459 352 459 C422 459 469 508 460 581 C448 675 356 710 272 710 C170 708 64 649 61 544 C61 415 195 380 195 380 C195 380 7 341 0 193 C-6 47 103 -16 268 -16 C443 -16 522 191 558 336 C564 364 552 393 526 407 L526 407 Z M289 769 C303 769 313 778 319 784 C322 787 324 789 323 794 C316 833 267 966 247 986 C242 990 236 992 228 992 C200 992 159 967 159 957 C159 944 276 769 289 769 L289 769 Z " />
<glyph glyph-name="Eacute" unicode="&#xc9;" horiz-adv-x="526" d="M526 407 C526 407 515 356 486 277 C482 266 413 67 289 46 C280 45 271 44 263 44 C186 44 126 103 126 183 C126 312 265 356 265 356 C265 356 299 347 334 347 C349 347 364 348 377 353 C402 362 397 405 352 405 C328 405 303 404 279 399 C279 399 166 420 166 522 C166 613 221 672 283 672 C347 672 365 614 365 577 C365 538 315 520 278 520 C274 520 269 520 265 521 C261 522 259 517 260 514 C267 497 294 459 352 459 C422 459 469 508 460 581 C448 675 356 710 272 710 C170 708 64 649 61 544 C61 415 195 380 195 380 C195 380 7 341 0 193 C-6 47 103 -16 268 -16 C443 -16 522 191 558 336 C564 364 552 393 526 407 L526 407 Z M266 769 C279 769 396 944 396 957 C396 967 355 993 327 993 C320 993 313 991 308 986 C288 967 239 833 232 794 C231 789 233 787 236 784 C242 778 252 769 266 769 L266 769 Z " />
<glyph glyph-name="Ecircumflex" unicode="&#xca;" horiz-adv-x="526" d="M526 407 C526 407 515 356 486 277 C482 266 413 67 289 46 C280 45 271 44 263 44 C186 44 126 103 126 183 C126 312 265 356 265 356 C265 356 299 347 334 347 C349 347 364 348 377 353 C402 362 397 405 352 405 C328 405 303 404 279 399 C279 399 166 420 166 522 C166 613 221 672 283 672 C347 672 365 614 365 577 C365 538 315 520 278 520 C274 520 269 520 265 521 C261 522 259 517 260 514 C267 497 294 459 352 459 C422 459 469 508 460 581 C448 675 356 710 272 710 C170 708 64 649 61 544 C61 415 195 380 195 380 C195 380 7 341 0 193 C-6 47 103 -16 268 -16 C443 -16 522 191 558 336 C564 364 552 393 526 407 L526 407 Z M243 948 C233 948 222 945 220 942 C186 888 151 817 98 773 C96 771 97 768 98 766 C103 755 113 744 129 744 C165 744 226 835 243 865 C244 867 246 867 247 867 C249 867 250 867 251 865 C267 835 325 741 377 741 C418 741 424 757 421 761 C359 828 324 882 306 910 C290 934 268 948 243 948 L243 948 Z " />
<glyph glyph-name="Edieresis" unicode="&#xcb;" horiz-adv-x="526" d="M526 407 C526 407 515 356 486 277 C482 266 413 67 289 46 C280 45 271 44 263 44 C186 44 126 103 126 183 C126 312 265 356 265 356 C265 356 299 347 334 347 C349 347 364 348 377 353 C402 362 397 405 352 405 C328 405 303 404 279 399 C279 399 166 420 166 522 C166 613 221 672 283 672 C347 672 365 614 365 577 C365 538 315 520 278 520 C274 520 269 520 265 521 C261 522 259 517 260 514 C267 497 294 459 352 459 C422 459 469 508 460 581 C448 675 356 710 272 710 C170 708 64 649 61 544 C61 415 195 380 195 380 C195 380 7 341 0 193 C-6 47 103 -16 268 -16 C443 -16 522 191 558 336 C564 364 552 393 526 407 L526 407 Z M144 908 C112 908 91 867 82 846 C80 839 81 832 86 826 C99 812 129 784 176 784 C218 784 240 837 240 849 C240 861 188 908 144 908 L144 908 Z M350 908 C317 908 296 866 288 846 C285 838 287 831 291 826 C305 811 335 784 381 784 C423 784 445 837 445 849 C445 861 393 908 350 908 L350 908 Z " />
<glyph glyph-name="Igrave" unicode="&#xcc;" horiz-adv-x="488" d="M209 313 C209 313 124 342 134 462 C145 580 223 655 341 655 C343 655 344 653 343 651 C339 645 332 630 332 610 C332 584 332 263 327 185 C321 101 296 30 244 30 C193 30 192 45 166 73 C155 84 140 89 128 89 C117 89 107 85 104 79 C97 67 148 -18 251 -18 C382 -18 441 40 456 198 C471 355 456 656 456 656 C456 656 481 663 481 673 C481 693 460 704 420 708 C414 708 400 709 381 709 C312 709 172 700 93 638 C-18 551 -23 413 44 342 C81 303 134 289 171 289 C189 289 203 293 208 298 C216 306 209 313 209 313 L209 313 Z M327 769 C341 769 351 778 357 784 C360 787 362 789 361 794 C354 833 305 966 285 986 C280 990 274 992 266 992 C238 992 197 967 197 957 C197 944 314 769 327 769 L327 769 Z " />
<glyph glyph-name="Iacute" unicode="&#xcd;" horiz-adv-x="488" d="M209 313 C209 313 124 342 134 462 C145 580 223 655 341 655 C343 655 344 653 343 651 C339 645 332 630 332 610 C332 584 332 263 327 185 C321 101 296 30 244 30 C193 30 192 45 166 73 C155 84 140 89 128 89 C117 89 107 85 104 79 C97 67 148 -18 251 -18 C382 -18 441 40 456 198 C471 355 456 656 456 656 C456 656 481 663 481 673 C481 693 460 704 420 708 C414 708 400 709 381 709 C312 709 172 700 93 638 C-18 551 -23 413 44 342 C81 303 134 289 171 289 C189 289 203 293 208 298 C216 306 209 313 209 313 L209 313 Z M315 769 C328 769 445 944 445 957 C445 967 404 993 376 993 C369 993 362 991 357 986 C337 967 288 833 281 794 C280 789 282 787 285 784 C291 778 301 769 315 769 L315 769 Z " />
<glyph glyph-name="Icircumflex" unicode="&#xce;" horiz-adv-x="488" d="M209 313 C209 313 124 342 134 462 C145 580 223 655 341 655 C343 655 344 653 343 651 C339 645 332 630 332 610 C332 584 332 263 327 185 C321 101 296 30 244 30 C193 30 192 45 166 73 C155 84 140 89 128 89 C117 89 107 85 104 79 C97 67 148 -18 251 -18 C382 -18 441 40 456 198 C471 355 456 656 456 656 C456 656 481 663 481 673 C481 693 460 704 420 708 C414 708 400 709 381 709 C312 709 172 700 93 638 C-18 551 -23 413 44 342 C81 303 134 289 171 289 C189 289 203 293 208 298 C216 306 209 313 209 313 L209 313 Z M274 957 C264 957 253 954 251 951 C217 897 182 826 129 782 C127 780 128 777 129 775 C134 764 144 753 160 753 C196 753 257 844 274 874 C275 876 277 876 278 876 C280 876 281 876 282 874 C298 844 356 750 408 750 C449 750 455 766 452 770 C390 837 355 891 337 919 C321 943 299 957 274 957 L274 957 Z " />
<glyph glyph-name="Idieresis" unicode="&#xcf;" horiz-adv-x="488" d="M209 313 C209 313 124 342 134 462 C145 580 223 655 341 655 C343 655 344 653 343 651 C339 645 332 630 332 610 C332 584 332 263 327 185 C321 101 296 30 244 30 C193 30 192 45 166 73 C155 84 140 89 128 89 C117 89 107 85 104 79 C97 67 148 -18 251 -18 C382 -18 441 40 456 198 C471 355 456 656 456 656 C456 656 481 663 481 673 C481 693 460 704 420 708 C414 708 400 709 381 709 C312 709 172 700 93 638 C-18 551 -23 413 44 342 C81 303 134 289 171 289 C189 289 203 293 208 298 C216 306 209 313 209 313 L209 313 Z M166 887 C134 887 113 846 104 825 C102 818 103 811 108 805 C121 791 151 763 198 763 C240 763 262 816 262 828 C262 840 210 887 166 887 L166 887 Z M372 887 C339 887 318 845 310 825 C307 817 309 810 313 805 C327 790 357 763 403 763 C445 763 467 816 467 828 C467 840 415 887 372 887 L372 887 Z " />
<glyph glyph-name="Eth" unicode="&#xd0;" horiz-adv-x="761" d="M136 369 C140 370 141 375 139 378 C117 404 80 489 165 579 C203 620 252 644 299 644 C421 644 527 548 527 339 C527 45 385 39 352 39 C335 39 313 43 293 48 C351 108 354 184 354 261 C397 261 434 262 439 266 C442 267 448 337 406 346 C396 348 378 350 356 351 C357 424 357 502 351 523 C343 555 309 587 282 587 C277 587 271 586 267 583 C250 572 241 544 240 532 C237 496 237 423 237 351 C202 351 172 350 158 349 C153 349 149 345 148 341 C145 330 147 302 157 288 C170 269 190 262 214 262 C218 262 226 262 237 262 C237 227 237 198 237 182 C237 130 225 96 218 81 C204 85 186 88 169 88 C144 88 121 81 114 54 C108 31 142 1 194 1 C210 1 226 5 242 11 C273 0 326 -16 366 -16 C464 -16 660 31 660 341 C660 613 449 709 296 709 C120 709 11 600 1 511 C-13 381 89 368 124 368 C131 368 135 369 136 369 L136 369 Z " />
<glyph glyph-name="Ntilde" unicode="&#xd1;" horiz-adv-x="947" d="M188 240 C255 240 299 278 284 281 C275 282 249 282 245 282 C225 282 132 309 132 419 C132 546 228 669 360 669 C378 669 391 666 399 665 C403 665 406 661 406 657 C404 621 387 431 381 263 C374 75 375 24 379 19 C383 13 406 1 441 1 C465 1 489 7 498 11 C502 12 504 16 504 20 C512 234 505 308 597 512 C625 573 647 606 671 606 C694 606 653 285 668 75 C668 62 708 -17 793 -17 C818 -17 866 10 908 97 C940 162 965 277 979 336 C985 364 972 393 946 407 C946 407 932 335 901 234 C866 119 823 58 806 58 C806 58 805 59 804 59 C771 80 795 374 797 436 C803 593 826 692 714 692 C620 692 560 565 529 476 C527 469 525 462 523 462 C522 462 522 467 522 481 C524 560 524 628 521 664 C519 681 511 709 385 709 C359 709 328 708 291 705 C74 690 6 551 0 442 C-5 332 83 240 188 240 L188 240 Z M706 921 C692 921 685 856 633 856 C580 856 567 920 502 920 C458 920 431 892 423 852 C420 835 422 814 431 803 C433 800 436 799 440 799 C443 799 447 801 449 804 C458 821 470 852 501 852 C550 852 585 783 651 783 C706 783 727 841 727 864 C727 887 719 921 706 921 L706 921 Z " />
<glyph glyph-name="Ograve" unicode="&#xd2;" horiz-adv-x="707" d="M108 256 C108 251 108 246 108 241 C108 79 206 -18 344 -18 C444 -18 609 87 609 371 C609 582 466 709 314 709 C171 710 32 607 5 474 C-20 347 48 282 108 256 L108 256 Z M134 436 C179 633 290 653 335 653 C347 653 354 652 354 652 C354 652 487 606 487 379 C487 150 370 36 341 36 C305 36 233 88 233 221 C233 405 362 428 384 430 C385 430 386 431 386 433 C382 443 348 489 295 489 C291 489 288 488 284 488 C238 483 163 444 127 353 C125 376 127 404 134 436 L134 436 Z M296 769 C310 769 320 778 326 784 C329 787 331 789 330 794 C323 833 274 966 254 986 C249 990 243 992 235 992 C207 992 166 967 166 957 C166 944 283 769 296 769 L296 769 Z " />
<glyph glyph-name="Oacute" unicode="&#xd3;" horiz-adv-x="707" d="M108 256 C108 251 108 246 108 241 C108 79 206 -18 344 -18 C444 -18 609 87 609 371 C609 582 466 709 314 709 C171 710 32 607 5 474 C-20 347 48 282 108 256 L108 256 Z M134 436 C179 633 290 653 335 653 C347 653 354 652 354 652 C354 652 487 606 487 379 C487 150 370 36 341 36 C305 36 233 88 233 221 C233 405 362 428 384 430 C385 430 386 431 386 433 C382 443 348 489 295 489 C291 489 288 488 284 488 C238 483 163 444 127 353 C125 376 127 404 134 436 L134 436 Z M306 769 C319 769 436 944 436 957 C436 967 395 993 367 993 C360 993 353 991 348 986 C328 967 279 833 272 794 C271 789 273 787 276 784 C282 778 292 769 306 769 L306 769 Z " />
<glyph glyph-name="Ocircumflex" unicode="&#xd4;" horiz-adv-x="707" d="M108 256 C108 251 108 246 108 241 C108 79 206 -18 344 -18 C444 -18 609 87 609 371 C609 582 466 709 314 709 C171 710 32 607 5 474 C-20 347 48 282 108 256 L108 256 Z M134 436 C179 633 290 653 335 653 C347 653 354 652 354 652 C354 652 487 606 487 379 C487 150 370 36 341 36 C305 36 233 88 233 221 C233 405 362 428 384 430 C385 430 386 431 386 433 C382 443 348 489 295 489 C291 489 288 488 284 488 C238 483 163 444 127 353 C125 376 127 404 134 436 L134 436 Z M336 948 C326 948 315 945 313 942 C279 888 244 817 191 773 C189 771 190 768 191 766 C196 755 206 744 222 744 C258 744 319 835 336 865 C337 867 339 867 340 867 C342 867 343 867 344 865 C360 835 418 741 470 741 C511 741 517 757 514 761 C452 828 417 882 399 910 C383 934 361 948 336 948 L336 948 Z " />
<glyph glyph-name="Otilde" unicode="&#xd5;" horiz-adv-x="707" d="M108 256 C108 251 108 246 108 241 C108 79 206 -18 344 -18 C444 -18 609 87 609 371 C609 582 466 709 314 709 C171 710 32 607 5 474 C-20 347 48 282 108 256 L108 256 Z M134 436 C179 633 290 653 335 653 C347 653 354 652 354 652 C354 652 487 606 487 379 C487 150 370 36 341 36 C305 36 233 88 233 221 C233 405 362 428 384 430 C385 430 386 431 386 433 C382 443 348 489 295 489 C291 489 288 488 284 488 C238 483 163 444 127 353 C125 376 127 404 134 436 L134 436 Z M485 920 C471 920 464 855 412 855 C359 855 346 919 281 919 C237 919 210 891 202 851 C199 834 201 813 210 802 C212 799 215 798 219 798 C222 798 226 800 228 803 C237 820 249 851 280 851 C329 851 364 782 430 782 C485 782 506 840 506 863 C506 886 498 920 485 920 L485 920 Z " />
<glyph glyph-name="Odieresis" unicode="&#xd6;" horiz-adv-x="707" d="M108 256 C108 251 108 246 108 241 C108 79 206 -18 344 -18 C444 -18 609 87 609 371 C609 582 466 709 314 709 C171 710 32 607 5 474 C-20 347 48 282 108 256 L108 256 Z M134 436 C179 633 290 653 335 653 C347 653 354 652 354 652 C354 652 487 606 487 379 C487 150 370 36 341 36 C305 36 233 88 233 221 C233 405 362 428 384 430 C385 430 386 431 386 433 C382 443 348 489 295 489 C291 489 288 488 284 488 C238 483 163 444 127 353 C125 376 127 404 134 436 L134 436 Z M235 908 C203 908 182 867 173 846 C171 839 172 832 177 826 C190 812 220 784 267 784 C309 784 331 837 331 849 C331 861 279 908 235 908 L235 908 Z M441 908 C408 908 387 866 379 846 C376 838 378 831 382 826 C396 811 426 784 472 784 C514 784 536 837 536 849 C536 861 484 908 441 908 L441 908 Z " />
<glyph glyph-name="multiply" unicode="&#xd7;" horiz-adv-x="446" d="M125 113 C138 122 179 166 224 218 C286 162 343 110 350 109 C353 108 407 153 383 189 C374 203 333 243 285 288 C334 346 379 399 391 412 C394 416 401 426 395 435 C386 449 361 460 338 460 C325 460 312 457 302 447 C296 440 260 400 217 351 C160 403 107 450 94 462 C92 464 89 464 86 464 C84 464 82 464 81 463 C70 457 53 436 50 419 C46 397 55 378 72 361 C78 355 113 322 156 281 C98 214 44 151 43 144 C42 142 73 107 104 107 C111 107 118 109 125 113 L125 113 Z " />
<glyph glyph-name="Oslash" unicode="&#xd8;" horiz-adv-x="707" d="M108 256 C108 178 121 104 179 46 C160 3 143 -35 132 -63 C121 -91 125 -100 145 -100 C164 -100 180 -99 195 -70 C204 -52 217 -26 233 7 C265 -9 303 -18 344 -18 C444 -18 609 87 609 371 C609 479 572 565 515 623 C531 660 548 696 563 730 C568 742 554 749 544 749 C507 749 493 719 475 683 C473 678 469 672 465 664 C420 693 368 709 314 709 C171 710 32 607 5 474 C-20 347 48 282 108 256 L108 256 Z M467 516 C479 480 487 435 487 379 C487 150 370 36 341 36 C322 36 293 51 269 84 C325 202 397 363 467 516 L467 516 Z M134 436 C179 633 290 653 335 653 C347 653 354 652 354 652 C354 652 394 638 430 589 C412 552 391 506 367 457 C340 484 319 488 284 488 C238 483 163 444 127 353 C125 376 127 404 134 436 L134 436 Z M236 174 C234 188 233 204 233 221 C233 359 306 406 351 422 C314 343 273 255 236 174 L236 174 Z " />
<glyph glyph-name="Ugrave" unicode="&#xd9;" horiz-adv-x="950" d="M950 407 C950 407 935 337 904 236 C870 121 825 67 808 67 C807 67 806 68 805 68 C799 72 805 553 799 621 C794 681 749 711 719 711 C715 711 711 710 707 709 C679 698 675 386 669 336 C664 287 588 52 532 52 C517 52 503 70 495 124 C485 196 501 530 500 549 C499 568 518 711 330 711 C142 711 -5 552 0 417 C6 281 136 196 215 196 C268 196 287 214 294 226 C297 231 294 238 288 239 C277 241 260 243 241 243 C210 243 136 279 138 421 C140 560 284 660 351 660 C359 660 366 659 371 656 C386 647 337 281 349 143 C360 6 445 -15 531 -15 C588 -15 653 127 665 165 C666 168 667 167 667 166 C668 153 669 103 679 64 C683 51 723 -15 796 -15 C821 -15 870 12 912 98 C944 164 969 278 982 336 C989 365 976 394 950 407 L950 407 Z M589 783 C603 783 613 792 619 798 C622 801 624 803 623 808 C616 847 567 980 547 1000 C542 1004 536 1006 528 1006 C500 1006 459 981 459 971 C459 958 576 783 589 783 L589 783 Z " />
<glyph glyph-name="Uacute" unicode="&#xda;" horiz-adv-x="950" d="M950 407 C950 407 935 337 904 236 C870 121 825 67 808 67 C807 67 806 68 805 68 C799 72 805 553 799 621 C794 681 749 711 719 711 C715 711 711 710 707 709 C679 698 675 386 669 336 C664 287 588 52 532 52 C517 52 503 70 495 124 C485 196 501 530 500 549 C499 568 518 711 330 711 C142 711 -5 552 0 417 C6 281 136 196 215 196 C268 196 287 214 294 226 C297 231 294 238 288 239 C277 241 260 243 241 243 C210 243 136 279 138 421 C140 560 284 660 351 660 C359 660 366 659 371 656 C386 647 337 281 349 143 C360 6 445 -15 531 -15 C588 -15 653 127 665 165 C666 168 667 167 667 166 C668 153 669 103 679 64 C683 51 723 -15 796 -15 C821 -15 870 12 912 98 C944 164 969 278 982 336 C989 365 976 394 950 407 L950 407 Z M577 753 C590 753 707 928 707 941 C707 951 666 977 638 977 C631 977 624 975 619 970 C599 951 550 817 543 778 C542 773 544 771 547 768 C553 762 563 753 577 753 L577 753 Z " />
<glyph glyph-name="Ucircumflex" unicode="&#xdb;" horiz-adv-x="950" d="M950 407 C950 407 935 337 904 236 C870 121 825 67 808 67 C807 67 806 68 805 68 C799 72 805 553 799 621 C794 681 749 711 719 711 C715 711 711 710 707 709 C679 698 675 386 669 336 C664 287 588 52 532 52 C517 52 503 70 495 124 C485 196 501 530 500 549 C499 568 518 711 330 711 C142 711 -5 552 0 417 C6 281 136 196 215 196 C268 196 287 214 294 226 C297 231 294 238 288 239 C277 241 260 243 241 243 C210 243 136 279 138 421 C140 560 284 660 351 660 C359 660 366 659 371 656 C386 647 337 281 349 143 C360 6 445 -15 531 -15 C588 -15 653 127 665 165 C666 168 667 167 667 166 C668 153 669 103 679 64 C683 51 723 -15 796 -15 C821 -15 870 12 912 98 C944 164 969 278 982 336 C989 365 976 394 950 407 L950 407 Z M552 965 C542 965 531 962 529 959 C495 905 460 834 407 790 C405 788 406 785 407 783 C412 772 422 761 438 761 C474 761 535 852 552 882 C553 884 555 884 556 884 C558 884 559 884 560 882 C576 852 634 758 686 758 C727 758 733 774 730 778 C668 845 633 899 615 927 C599 951 577 965 552 965 L552 965 Z " />
<glyph glyph-name="Udieresis" unicode="&#xdc;" horiz-adv-x="950" d="M950 407 C950 407 935 337 904 236 C870 121 825 67 808 67 C807 67 806 68 805 68 C799 72 805 553 799 621 C794 681 749 711 719 711 C715 711 711 710 707 709 C679 698 675 386 669 336 C664 287 588 52 532 52 C517 52 503 70 495 124 C485 196 501 530 500 549 C499 568 518 711 330 711 C142 711 -5 552 0 417 C6 281 136 196 215 196 C268 196 287 214 294 226 C297 231 294 238 288 239 C277 241 260 243 241 243 C210 243 136 279 138 421 C140 560 284 660 351 660 C359 660 366 659 371 656 C386 647 337 281 349 143 C360 6 445 -15 531 -15 C588 -15 653 127 665 165 C666 168 667 167 667 166 C668 153 669 103 679 64 C683 51 723 -15 796 -15 C821 -15 870 12 912 98 C944 164 969 278 982 336 C989 365 976 394 950 407 L950 407 Z M462 908 C430 908 409 867 400 846 C398 839 399 832 404 826 C417 812 447 784 494 784 C536 784 558 837 558 849 C558 861 506 908 462 908 L462 908 Z M668 908 C635 908 614 866 606 846 C603 838 605 831 609 826 C623 811 653 784 699 784 C741 784 763 837 763 849 C763 861 711 908 668 908 L668 908 Z " />
<glyph glyph-name="Yacute" unicode="&#xdd;" horiz-adv-x="815" d="M229 277 C234 278 236 283 232 285 C205 307 142 359 146 460 C152 637 268 670 328 672 C332 672 334 671 334 667 C332 629 316 422 316 315 C316 219 411 196 439 196 C499 196 576 379 593 423 C594 424 597 424 597 422 C600 384 588 196 584 155 C580 111 568 16 470 16 C423 16 408 41 405 69 C402 94 427 112 442 113 C445 113 445 116 445 119 C442 131 417 159 378 159 C374 159 369 159 365 158 C336 154 306 130 306 92 C306 33 339 -27 487 -27 C668 -27 698 110 706 164 C716 241 719 583 714 637 C710 690 661 709 623 709 C585 709 597 578 592 551 C569 433 467 271 441 271 C410 270 455 671 447 686 C439 700 374 718 272 718 C169 718 5 664 0 499 C-5 334 142 274 208 274 C217 274 224 275 229 277 L229 277 Z M531 761 C544 761 661 936 661 949 C661 959 620 985 592 985 C585 985 578 983 573 978 C553 959 504 825 497 786 C496 781 498 779 501 776 C507 770 517 761 531 761 L531 761 Z " />
<glyph glyph-name="Thorn" unicode="&#xde;" horiz-adv-x="464" d="M0 57 C-2 43 22 2 55 2 C93 2 121 42 123 56 C123 58 124 66 124 79 C151 35 197 -17 268 -17 C391 -17 437 120 437 327 C437 614 366 709 253 709 C200 709 163 647 139 581 C140 637 141 675 141 680 C141 695 126 710 100 710 C69 710 30 687 25 654 L0 57 Z M139 240 C139 240 115 549 244 642 C245 643 247 643 248 643 C272 643 315 526 315 382 C315 231 284 60 233 60 C150 60 139 240 139 240 L139 240 Z " />
<glyph glyph-name="germandbls" unicode="&#xdf;" horiz-adv-x="591" d="M295 397 C295 452 402 484 402 567 C402 665 283 691 206 691 C19 691 11 507 9 461 C-1 298 0 89 0 79 C3 6 46 1 106 1 C122 1 125 11 126 16 C126 16 130 337 131 455 C131 455 129 577 156 613 C172 635 196 644 219 644 C258 644 295 618 295 577 C295 513 218 478 218 398 C218 256 358 254 358 161 C358 89 310 50 260 50 C243 50 226 55 210 64 C202 69 195 71 190 71 C168 71 165 38 187 20 C204 5 219 -18 311 -18 C368 -18 479 22 479 158 C479 322 295 322 295 397 L295 397 Z " />
<glyph glyph-name="agrave" unicode="&#xe0;" horiz-adv-x="473" d="M104 1 C147 1 180 60 197 102 C219 45 276 1 323 1 C404 1 476 273 490 336 C497 364 483 393 458 407 C452 370 368 77 325 77 C307 77 319 304 317 348 C311 445 258 451 225 451 C207 451 205 400 204 388 C199 408 179 461 106 461 C-19 461 -55 370 -70 204 C-80 89 -1 1 104 1 L104 1 Z M62 265 C77 376 110 407 134 407 C174 407 193 323 196 305 C193 259 191 215 189 184 C184 166 155 72 111 72 C68 72 46 148 62 265 L62 265 Z M199 476 C213 476 223 485 229 491 C232 494 234 496 233 501 C226 540 177 673 157 693 C152 697 146 699 138 699 C110 699 69 674 69 664 C69 651 186 476 199 476 L199 476 Z " />
<glyph glyph-name="aacute" unicode="&#xe1;" horiz-adv-x="473" d="M104 1 C147 1 180 60 197 102 C219 45 276 1 323 1 C404 1 476 273 490 336 C497 364 483 393 458 407 C452 370 368 77 325 77 C307 77 319 304 317 348 C311 445 258 451 225 451 C207 451 205 400 204 388 C199 408 179 461 106 461 C-19 461 -55 370 -70 204 C-80 89 -1 1 104 1 L104 1 Z M62 265 C77 376 110 407 134 407 C174 407 193 323 196 305 C193 259 191 215 189 184 C184 166 155 72 111 72 C68 72 46 148 62 265 L62 265 Z M210 476 C223 476 340 651 340 664 C340 674 299 700 271 700 C264 700 257 698 252 693 C232 674 183 540 176 501 C175 496 177 494 180 491 C186 485 196 476 210 476 L210 476 Z " />
<glyph glyph-name="acircumflex" unicode="&#xe2;" horiz-adv-x="473" d="M104 1 C147 1 180 60 197 102 C219 45 276 1 323 1 C404 1 476 273 490 336 C497 364 483 393 458 407 C452 370 368 77 325 77 C307 77 319 304 317 348 C311 445 258 451 225 451 C207 451 205 400 204 388 C199 408 179 461 106 461 C-19 461 -55 370 -70 204 C-80 89 -1 1 104 1 L104 1 Z M62 265 C77 376 110 407 134 407 C174 407 193 323 196 305 C193 259 191 215 189 184 C184 166 155 72 111 72 C68 72 46 148 62 265 L62 265 Z M152 678 C142 678 131 675 129 672 C95 618 60 547 7 503 C5 501 6 498 7 496 C12 485 22 474 38 474 C74 474 135 565 152 595 C153 597 155 597 156 597 C158 597 159 597 160 595 C176 565 234 471 286 471 C327 471 333 487 330 491 C268 558 233 612 215 640 C199 664 177 678 152 678 L152 678 Z " />
<glyph glyph-name="atilde" unicode="&#xe3;" horiz-adv-x="473" d="M104 1 C147 1 180 60 197 102 C219 45 276 1 323 1 C404 1 476 273 490 336 C497 364 483 393 458 407 C452 370 368 77 325 77 C307 77 319 304 317 348 C311 445 258 451 225 451 C207 451 205 400 204 388 C199 408 179 461 106 461 C-19 461 -55 370 -70 204 C-80 89 -1 1 104 1 L104 1 Z M62 265 C77 376 110 407 134 407 C174 407 193 323 196 305 C193 259 191 215 189 184 C184 166 155 72 111 72 C68 72 46 148 62 265 L62 265 Z M295 629 C281 629 274 564 222 564 C169 564 156 628 91 628 C47 628 20 600 12 560 C9 543 11 522 20 511 C22 508 25 507 29 507 C32 507 36 509 38 512 C47 529 59 560 90 560 C139 560 174 491 240 491 C295 491 316 549 316 572 C316 595 308 629 295 629 L295 629 Z " />
<glyph glyph-name="adieresis" unicode="&#xe4;" horiz-adv-x="473" d="M104 1 C147 1 180 60 197 102 C219 45 276 1 323 1 C404 1 476 273 490 336 C497 364 483 393 458 407 C452 370 368 77 325 77 C307 77 319 304 317 348 C311 445 258 451 225 451 C207 451 205 400 204 388 C199 408 179 461 106 461 C-19 461 -55 370 -70 204 C-80 89 -1 1 104 1 L104 1 Z M62 265 C77 376 110 407 134 407 C174 407 193 323 196 305 C193 259 191 215 189 184 C184 166 155 72 111 72 C68 72 46 148 62 265 L62 265 Z M21 615 C-11 615 -32 574 -41 553 C-43 546 -42 539 -37 533 C-24 519 6 491 53 491 C95 491 117 544 117 556 C117 568 65 615 21 615 L21 615 Z M227 615 C194 615 173 573 165 553 C162 545 164 538 168 533 C182 518 212 491 258 491 C300 491 322 544 322 556 C322 568 270 615 227 615 L227 615 Z " />
<glyph glyph-name="aring" unicode="&#xe5;" horiz-adv-x="473" d="M104 1 C147 1 180 60 197 102 C219 45 276 1 323 1 C404 1 476 273 490 336 C497 364 483 393 458 407 C452 370 368 77 325 77 C307 77 319 304 317 348 C314 403 295 429 273 441 C299 468 314 509 314 548 C314 612 266 651 206 651 C146 651 101 610 101 548 C101 511 107 482 117 461 C113 461 110 461 106 461 C-19 461 -55 370 -70 204 C-80 89 -1 1 104 1 L104 1 Z M62 265 C77 376 110 407 134 407 C174 407 193 323 196 305 C193 259 191 215 189 184 C184 166 155 72 111 72 C68 72 46 148 62 265 L62 265 Z M202 609 C204 611 207 612 209 612 C211 612 213 611 214 610 C222 604 233 586 233 538 C233 483 216 461 207 454 C205 453 203 452 201 452 C199 452 197 453 195 454 C187 462 175 480 174 523 C172 572 189 600 202 609 L202 609 Z M206 409 C205 400 204 392 204 388 C203 393 200 401 196 409 C199 409 203 409 206 409 L206 409 Z " />
<glyph glyph-name="ae" unicode="&#xe6;" horiz-adv-x="611" d="M119 1 C164 1 197 65 214 107 C252 38 326 1 413 1 C568 1 615 215 643 336 C649 364 637 393 611 407 C611 407 545 63 421 63 C391 63 332 75 315 153 C416 157 504 239 504 330 C504 422 462 461 381 461 C307 461 252 438 220 381 C219 390 205 461 121 461 C-4 461 -40 370 -55 204 C-65 89 14 1 119 1 L119 1 Z M77 265 C92 376 125 407 149 407 C176 407 193 369 202 339 C194 315 189 286 187 253 C184 217 187 184 195 156 C182 122 158 72 126 72 C83 72 61 148 77 265 L77 265 Z M397 405 C417 405 474 374 415 259 C397 223 349 197 310 194 C283 320 359 405 397 405 L397 405 Z " />
<glyph glyph-name="ccedilla" unicode="&#xe7;" horiz-adv-x="349" d="M108 2 C106 -9 104 -20 104 -29 C104 -70 166 -44 166 -109 C166 -160 92 -152 92 -164 C92 -176 125 -183 169 -183 C212 -183 251 -151 251 -114 C251 -47 167 -51 167 -28 C168 -17 170 -4 171 6 C294 41 357 227 381 336 C387 364 374 393 349 407 C349 407 269 63 138 63 C75 63 63 195 65 240 C70 348 102 392 113 404 C114 405 115 406 116 406 C118 406 119 405 120 405 C132 401 153 386 153 344 C153 320 136 312 136 312 C136 312 140 285 167 285 C169 285 172 286 174 286 C184 287 206 301 206 348 C206 436 134 461 79 461 C24 461 -48 371 -54 248 C-57 168 -40 16 108 2 L108 2 Z " />
<glyph glyph-name="egrave" unicode="&#xe8;" horiz-adv-x="372" d="M372 407 C372 407 306 63 182 63 C152 63 93 75 76 153 C177 157 265 239 265 330 C265 422 223 461 142 461 C28 461 -41 407 -52 253 C-64 90 38 1 174 1 C329 1 376 215 404 336 C410 364 398 393 372 407 L372 407 Z M158 405 C178 405 234 374 176 259 C157 223 110 197 71 194 C44 320 120 405 158 405 L158 405 Z M136 497 C150 497 160 506 166 512 C169 515 171 517 170 522 C163 561 114 694 94 714 C89 718 83 720 75 720 C47 720 6 695 6 685 C6 672 123 497 136 497 L136 497 Z " />
<glyph glyph-name="eacute" unicode="&#xe9;" horiz-adv-x="372" d="M372 407 C372 407 306 63 182 63 C152 63 93 75 76 153 C177 157 265 239 265 330 C265 422 223 461 142 461 C28 461 -41 407 -52 253 C-64 90 38 1 174 1 C329 1 376 215 404 336 C410 364 398 393 372 407 L372 407 Z M158 405 C178 405 234 374 176 259 C157 223 110 197 71 194 C44 320 120 405 158 405 L158 405 Z M135 503 C148 503 265 678 265 691 C265 701 224 727 196 727 C189 727 182 725 177 720 C157 701 108 567 101 528 C100 523 102 521 105 518 C111 512 121 503 135 503 L135 503 Z " />
<glyph glyph-name="ecircumflex" unicode="&#xea;" horiz-adv-x="372" d="M372 407 C372 407 306 63 182 63 C152 63 93 75 76 153 C177 157 265 239 265 330 C265 422 223 461 142 461 C28 461 -41 407 -52 253 C-64 90 38 1 174 1 C329 1 376 215 404 336 C410 364 398 393 372 407 L372 407 Z M158 405 C178 405 234 374 176 259 C157 223 110 197 71 194 C44 320 120 405 158 405 L158 405 Z M102 670 C92 670 81 667 79 664 C45 610 10 539 -43 495 C-45 493 -44 490 -43 488 C-38 477 -28 466 -12 466 C24 466 85 557 102 587 C103 589 105 589 106 589 C108 589 109 589 110 587 C126 557 184 463 236 463 C277 463 283 479 280 483 C218 550 183 604 165 632 C149 656 127 670 102 670 L102 670 Z " />
<glyph glyph-name="edieresis" unicode="&#xeb;" horiz-adv-x="372" d="M372 407 C372 407 306 63 182 63 C152 63 93 75 76 153 C177 157 265 239 265 330 C265 422 223 461 142 461 C28 461 -41 407 -52 253 C-64 90 38 1 174 1 C329 1 376 215 404 336 C410 364 398 393 372 407 L372 407 Z M158 405 C178 405 234 374 176 259 C157 223 110 197 71 194 C44 320 120 405 158 405 L158 405 Z M2 651 C-30 651 -51 610 -60 589 C-62 582 -61 575 -56 569 C-43 555 -13 527 34 527 C76 527 98 580 98 592 C98 604 46 651 2 651 L2 651 Z M208 651 C175 651 154 609 146 589 C143 581 145 574 149 569 C163 554 193 527 239 527 C281 527 303 580 303 592 C303 604 251 651 208 651 L208 651 Z " />
<glyph glyph-name="igrave" unicode="&#xec;" horiz-adv-x="275" d="M275 407 C275 407 260 336 229 234 C195 122 145 76 126 76 C124 76 123 76 122 77 C117 79 114 100 112 130 C111 139 111 252 111 265 C111 302 111 333 110 347 C105 444 52 450 18 450 C10 450 3 435 1 424 C-8 358 -11 289 -11 222 C-12 177 -14 148 -14 148 C-14 80 52 1 121 1 C146 1 194 28 236 114 C268 180 293 278 307 336 C313 364 300 393 275 407 L275 407 Z M104 502 C118 502 128 511 134 517 C137 520 139 522 138 527 C131 566 82 699 62 719 C57 723 51 725 43 725 C15 725 -26 700 -26 690 C-26 677 91 502 104 502 L104 502 Z " />
<glyph glyph-name="iacute" unicode="&#xed;" horiz-adv-x="275" d="M275 407 C275 407 260 336 229 234 C195 122 145 76 126 76 C124 76 123 76 122 77 C117 79 114 100 112 130 C111 139 111 252 111 265 C111 302 111 333 110 347 C105 444 52 450 18 450 C10 450 3 435 1 424 C-8 358 -11 289 -11 222 C-12 177 -14 148 -14 148 C-14 80 52 1 121 1 C146 1 194 28 236 114 C268 180 293 278 307 336 C313 364 300 393 275 407 L275 407 Z M2 502 C15 502 132 677 132 690 C132 700 91 726 63 726 C56 726 49 724 44 719 C24 700 -25 566 -32 527 C-33 522 -31 520 -28 517 C-22 511 -12 502 2 502 L2 502 Z " />
<glyph glyph-name="icircumflex" unicode="&#xee;" horiz-adv-x="275" d="M275 407 C275 407 260 336 229 234 C195 122 145 76 126 76 C124 76 123 76 122 77 C117 79 114 100 112 130 C111 139 111 252 111 265 C111 302 111 333 110 347 C105 444 52 450 18 450 C10 450 3 435 1 424 C-8 358 -11 289 -11 222 C-12 177 -14 148 -14 148 C-14 80 52 1 121 1 C146 1 194 28 236 114 C268 180 293 278 307 336 C313 364 300 393 275 407 L275 407 Z M34 670 C24 670 13 667 11 664 C-23 610 -58 539 -111 495 C-113 493 -112 490 -111 488 C-106 477 -96 466 -80 466 C-44 466 17 557 34 587 C35 589 37 589 38 589 C40 589 41 589 42 587 C58 557 116 463 168 463 C209 463 215 479 212 483 C150 550 115 604 97 632 C81 656 59 670 34 670 L34 670 Z " />
<glyph glyph-name="idieresis" unicode="&#xef;" horiz-adv-x="275" d="M275 407 C275 407 260 336 229 234 C195 122 145 76 126 76 C124 76 123 76 122 77 C117 79 114 100 112 130 C111 139 111 252 111 265 C111 302 111 333 110 347 C105 444 52 450 18 450 C10 450 3 435 1 424 C-8 358 -11 289 -11 222 C-12 177 -14 148 -14 148 C-14 80 52 1 121 1 C146 1 194 28 236 114 C268 180 293 278 307 336 C313 364 300 393 275 407 L275 407 Z M-87 615 C-119 615 -140 574 -149 553 C-151 546 -150 539 -145 533 C-132 519 -102 491 -55 491 C-13 491 9 544 9 556 C9 568 -43 615 -87 615 L-87 615 Z M119 615 C86 615 65 573 57 553 C54 545 56 538 60 533 C74 518 104 491 150 491 C192 491 214 544 214 556 C214 568 162 615 119 615 L119 615 Z " />
<glyph glyph-name="eth" unicode="&#xf0;" horiz-adv-x="435" d="M126 0 C337 0 337 247 337 247 C337 387 277 513 209 598 C208 600 209 602 210 603 C242 628 267 649 275 659 C277 661 276 663 275 665 C267 671 246 687 235 687 C233 687 232 687 231 686 C226 684 205 667 174 643 C173 642 171 642 169 644 C139 671 109 700 66 700 C49 700 34 695 18 685 C8 678 7 662 17 655 C44 637 59 625 91 591 C93 589 92 587 91 586 C58 560 39 549 32 543 C31 542 30 541 30 540 C32 529 47 511 66 511 C70 511 75 512 79 514 C88 518 98 525 124 545 C126 546 128 546 129 545 C137 536 166 504 190 436 C175 450 153 461 120 461 C-5 461 -41 370 -56 204 C-66 89 21 0 126 0 L126 0 Z M148 407 C180 407 222 351 222 230 C222 155 191 48 125 48 C92 48 71 109 71 191 C71 245 86 407 148 407 L148 407 Z " />
<glyph glyph-name="ntilde" unicode="&#xf1;" horiz-adv-x="466" d="M466 407 C466 407 454 333 420 232 C412 207 367 77 333 77 C315 84 321 314 318 359 C315 414 294 461 234 461 C227 461 219 453 211 442 C178 393 121 213 105 166 C105 164 103 165 103 166 C103 240 103 343 103 347 C98 433 52 449 18 449 C10 449 3 434 1 422 C-2 397 -16 125 -16 122 C-13 41 55 8 100 8 C109 8 109 16 112 25 C134 130 182 273 206 328 C206 329 208 329 208 328 C205 255 204 161 204 146 C204 70 271 1 331 1 C414 1 484 271 498 336 C505 364 492 393 466 407 L466 407 Z M294 627 C280 627 273 562 221 562 C168 562 155 626 90 626 C46 626 19 598 11 558 C8 541 10 520 19 509 C21 506 24 505 28 505 C31 505 35 507 37 510 C46 527 58 558 89 558 C138 558 173 489 239 489 C294 489 315 547 315 570 C315 593 307 627 294 627 L294 627 Z " />
<glyph glyph-name="ograve" unicode="&#xf2;" horiz-adv-x="341" d="M104 1 C188 1 231 84 246 191 C247 191 248 191 249 191 C351 191 371 338 372 341 C377 375 364 393 341 407 C338 354 320 246 252 246 C253 261 253 275 253 290 C253 436 180 437 180 437 C180 437 138 461 96 461 C-33 461 -43 283 -43 191 C-43 67 43 1 104 1 L104 1 Z M84 277 C89 316 107 408 162 408 C162 408 189 398 194 302 C184 300 156 292 156 257 C156 234 170 215 192 203 C189 163 175 55 117 55 C100 58 62 120 84 277 L84 277 Z M137 501 C151 501 161 510 167 516 C170 519 172 521 171 526 C164 565 115 698 95 718 C90 722 84 724 76 724 C48 724 7 699 7 689 C7 676 124 501 137 501 L137 501 Z " />
<glyph glyph-name="oacute" unicode="&#xf3;" horiz-adv-x="341" d="M104 1 C188 1 231 84 246 191 C247 191 248 191 249 191 C351 191 371 338 372 341 C377 375 364 393 341 407 C338 354 320 246 252 246 C253 261 253 275 253 290 C253 436 180 437 180 437 C180 437 138 461 96 461 C-33 461 -43 283 -43 191 C-43 67 43 1 104 1 L104 1 Z M84 277 C89 316 107 408 162 408 C162 408 189 398 194 302 C184 300 156 292 156 257 C156 234 170 215 192 203 C189 163 175 55 117 55 C100 58 62 120 84 277 L84 277 Z M123 506 C136 506 253 681 253 694 C253 704 212 730 184 730 C177 730 170 728 165 723 C145 704 96 570 89 531 C88 526 90 524 93 521 C99 515 109 506 123 506 L123 506 Z " />
<glyph glyph-name="ocircumflex" unicode="&#xf4;" horiz-adv-x="341" d="M104 1 C188 1 231 84 246 191 C247 191 248 191 249 191 C351 191 371 338 372 341 C377 375 364 393 341 407 C338 354 320 246 252 246 C253 261 253 275 253 290 C253 436 180 437 180 437 C180 437 138 461 96 461 C-33 461 -43 283 -43 191 C-43 67 43 1 104 1 L104 1 Z M84 277 C89 316 107 408 162 408 C162 408 189 398 194 302 C184 300 156 292 156 257 C156 234 170 215 192 203 C189 163 175 55 117 55 C100 58 62 120 84 277 L84 277 Z M103 668 C93 668 82 665 80 662 C46 608 11 537 -42 493 C-44 491 -43 488 -42 486 C-37 475 -27 464 -11 464 C25 464 86 555 103 585 C104 587 106 587 107 587 C109 587 110 587 111 585 C127 555 185 461 237 461 C278 461 284 477 281 481 C219 548 184 602 166 630 C150 654 128 668 103 668 L103 668 Z " />
<glyph glyph-name="otilde" unicode="&#xf5;" horiz-adv-x="341" d="M104 1 C188 1 231 84 246 191 C247 191 248 191 249 191 C351 191 371 338 372 341 C377 375 364 393 341 407 C338 354 320 246 252 246 C253 261 253 275 253 290 C253 436 180 437 180 437 C180 437 138 461 96 461 C-33 461 -43 283 -43 191 C-43 67 43 1 104 1 L104 1 Z M84 277 C89 316 107 408 162 408 C162 408 189 398 194 302 C184 300 156 292 156 257 C156 234 170 215 192 203 C189 163 175 55 117 55 C100 58 62 120 84 277 L84 277 Z M241 627 C227 627 220 562 168 562 C115 562 102 626 37 626 C-7 626 -34 598 -42 558 C-45 541 -43 520 -34 509 C-32 506 -29 505 -25 505 C-22 505 -18 507 -16 510 C-7 527 5 558 36 558 C85 558 120 489 186 489 C241 489 262 547 262 570 C262 593 254 627 241 627 L241 627 Z " />
<glyph glyph-name="odieresis" unicode="&#xf6;" horiz-adv-x="341" d="M104 1 C188 1 231 84 246 191 C247 191 248 191 249 191 C351 191 371 338 372 341 C377 375 364 393 341 407 C338 354 320 246 252 246 C253 261 253 275 253 290 C253 436 180 437 180 437 C180 437 138 461 96 461 C-33 461 -43 283 -43 191 C-43 67 43 1 104 1 L104 1 Z M84 277 C89 316 107 408 162 408 C162 408 189 398 194 302 C184 300 156 292 156 257 C156 234 170 215 192 203 C189 163 175 55 117 55 C100 58 62 120 84 277 L84 277 Z M-16 613 C-48 613 -69 572 -78 551 C-80 544 -79 537 -74 531 C-61 517 -31 489 16 489 C58 489 80 542 80 554 C80 566 28 613 -16 613 L-16 613 Z M190 613 C157 613 136 571 128 551 C125 543 127 536 131 531 C145 516 175 489 221 489 C263 489 285 542 285 554 C285 566 233 613 190 613 L190 613 Z " />
<glyph glyph-name="divide" unicode="&#xf7;" horiz-adv-x="497" d="M311 61 C311 106 280 142 241 142 C202 142 170 106 170 61 C170 16 202 -21 241 -21 C280 -21 311 16 311 61 L311 61 Z M311 359 C311 404 280 440 241 440 C202 440 170 404 170 359 C170 314 202 277 241 277 C280 277 311 314 311 359 L311 359 Z M99 168 C112 168 208 167 297 167 C378 167 453 168 458 172 C461 173 467 237 425 246 C406 250 327 252 246 252 C157 252 64 250 43 249 C38 249 34 245 33 241 C30 230 32 208 42 194 C55 175 75 168 99 168 L99 168 Z " />
<glyph glyph-name="oslash" unicode="&#xf8;" horiz-adv-x="341" d="M-48 -156 C-29 -156 -13 -155 2 -126 C17 -98 39 -51 67 8 C80 3 92 1 104 1 C188 1 231 84 246 191 L249 191 C351 191 371 338 372 341 C377 375 364 393 341 407 C338 354 320 246 252 246 C253 261 253 275 253 290 C253 332 247 362 238 383 C278 472 318 561 354 641 C360 653 345 660 335 660 C298 660 284 630 266 594 C255 571 226 512 190 435 C184 437 180 437 180 437 C180 437 138 461 96 461 C-33 461 -43 283 -43 191 C-43 127 -20 78 11 46 C-19 -20 -44 -78 -61 -119 C-72 -147 -68 -156 -48 -156 L-48 -156 Z M167 225 C173 216 182 209 192 203 C189 163 175 55 117 55 C112 56 105 62 98 75 C119 121 143 172 167 225 L167 225 Z M77 193 C79 246 87 408 162 408 C162 408 167 406 172 398 C143 335 110 263 77 193 L77 193 Z " />
<glyph glyph-name="ugrave" unicode="&#xf9;" horiz-adv-x="487" d="M110 1 C165 1 205 90 218 137 C225 65 295 1 353 1 C434 1 505 272 520 336 C526 364 513 393 487 407 C487 407 473 336 442 234 C406 117 366 76 347 76 C346 76 344 76 343 77 C326 84 331 304 329 348 C324 445 282 451 248 451 C240 451 233 436 231 425 C229 412 228 397 226 381 C220 347 167 76 101 76 L100 77 C93 81 102 305 99 349 C94 434 52 450 19 450 C10 450 3 435 2 424 C-10 337 -25 173 -25 148 C-25 72 70 1 110 1 L110 1 Z M162 477 C176 477 186 486 192 492 C195 495 197 497 196 502 C189 541 140 674 120 694 C115 698 109 700 101 700 C73 700 32 675 32 665 C32 652 149 477 162 477 L162 477 Z " />
<glyph glyph-name="uacute" unicode="&#xfa;" horiz-adv-x="487" d="M110 1 C165 1 205 90 218 137 C225 65 295 1 353 1 C434 1 505 272 520 336 C526 364 513 393 487 407 C487 407 473 336 442 234 C406 117 366 76 347 76 C346 76 344 76 343 77 C326 84 331 304 329 348 C324 445 282 451 248 451 C240 451 233 436 231 425 C229 412 228 397 226 381 C220 347 167 76 101 76 L100 77 C93 81 102 305 99 349 C94 434 52 450 19 450 C10 450 3 435 2 424 C-10 337 -25 173 -25 148 C-25 72 70 1 110 1 L110 1 Z M168 472 C181 472 298 647 298 660 C298 670 257 696 229 696 C222 696 215 694 210 689 C190 670 141 536 134 497 C133 492 135 490 138 487 C144 481 154 472 168 472 L168 472 Z " />
<glyph glyph-name="ucircumflex" unicode="&#xfb;" horiz-adv-x="487" d="M110 1 C165 1 205 90 218 137 C225 65 295 1 353 1 C434 1 505 272 520 336 C526 364 513 393 487 407 C487 407 473 336 442 234 C406 117 366 76 347 76 C346 76 344 76 343 77 C326 84 331 304 329 348 C324 445 282 451 248 451 C240 451 233 436 231 425 C229 412 228 397 226 381 C220 347 167 76 101 76 L100 77 C93 81 102 305 99 349 C94 434 52 450 19 450 C10 450 3 435 2 424 C-10 337 -25 173 -25 148 C-25 72 70 1 110 1 L110 1 Z M155 670 C145 670 134 667 132 664 C98 610 63 539 10 495 C8 493 9 490 10 488 C15 477 25 466 41 466 C77 466 138 557 155 587 C156 589 158 589 159 589 C161 589 162 589 163 587 C179 557 237 463 289 463 C330 463 336 479 333 483 C271 550 236 604 218 632 C202 656 180 670 155 670 L155 670 Z " />
<glyph glyph-name="udieresis" unicode="&#xfc;" horiz-adv-x="487" d="M110 1 C165 1 205 90 218 137 C225 65 295 1 353 1 C434 1 505 272 520 336 C526 364 513 393 487 407 C487 407 473 336 442 234 C406 117 366 76 347 76 C346 76 344 76 343 77 C326 84 331 304 329 348 C324 445 282 451 248 451 C240 451 233 436 231 425 C229 412 228 397 226 381 C220 347 167 76 101 76 L100 77 C93 81 102 305 99 349 C94 434 52 450 19 450 C10 450 3 435 2 424 C-10 337 -25 173 -25 148 C-25 72 70 1 110 1 L110 1 Z M38 615 C6 615 -15 574 -24 553 C-26 546 -25 539 -20 533 C-7 519 23 491 70 491 C112 491 134 544 134 556 C134 568 82 615 38 615 L38 615 Z M244 615 C211 615 190 573 182 553 C179 545 181 538 185 533 C199 518 229 491 275 491 C317 491 339 544 339 556 C339 568 287 615 244 615 L244 615 Z " />
<glyph glyph-name="yacute" unicode="&#xfd;" horiz-adv-x="516" d="M135 -282 C267 -282 367 -202 367 -22 C400 -11 449 19 476 78 C514 142 536 276 548 336 C554 365 541 393 516 407 C503 315 464 80 367 42 C366 163 361 323 360 347 C355 432 301 448 268 448 C260 448 252 433 251 422 C250 418 250 413 249 407 C249 407 201 79 119 79 C96 79 114 304 111 348 C106 434 53 450 19 450 C11 450 4 435 2 424 C-10 336 -11 160 -11 135 C-11 59 77 7 117 7 C176 7 216 108 241 207 C239 133 238 56 238 -1 C118 -29 -7 -29 -28 -107 C-53 -201 16 -282 135 -282 L135 -282 Z M63 -135 C69 -89 137 -73 238 -50 C238 -113 218 -237 135 -237 C94 -237 56 -201 63 -135 L63 -135 Z M178 482 C191 482 308 657 308 670 C308 680 267 706 239 706 C232 706 225 704 220 699 C200 680 151 546 144 507 C143 502 145 500 148 497 C154 491 164 482 178 482 L178 482 Z " />
<glyph glyph-name="thorn" unicode="&#xfe;" horiz-adv-x="434" d="M-39 -69 C-36 -150 32 -183 77 -183 C83 -183 86 -180 87 -175 L87 70 C119 26 142 1 191 1 C205 1 328 36 328 181 C328 422 266 461 183 461 C150 461 113 390 87 329 L87 626 C83 692 55 709 -5 709 C-13 709 -20 695 -22 683 C-24 665 -40 -51 -39 -69 L-39 -69 Z M180 412 C193 412 218 384 213 231 C210 139 200 81 191 58 C188 49 176 42 166 42 C132 42 95 132 87 160 L87 215 C106 312 174 412 180 412 L180 412 Z " />
<glyph glyph-name="ydieresis" unicode="&#xff;" horiz-adv-x="516" d="M135 -282 C267 -282 367 -202 367 -22 C400 -11 449 19 476 78 C514 142 536 276 548 336 C554 365 541 393 516 407 C503 315 464 80 367 42 C366 163 361 323 360 347 C355 432 301 448 268 448 C260 448 252 433 251 422 C250 418 250 413 249 407 C249 407 201 79 119 79 C96 79 114 304 111 348 C106 434 53 450 19 450 C11 450 4 435 2 424 C-10 336 -11 160 -11 135 C-11 59 77 7 117 7 C176 7 216 108 241 207 C239 133 238 56 238 -1 C118 -29 -7 -29 -28 -107 C-53 -201 16 -282 135 -282 L135 -282 Z M63 -135 C69 -89 137 -73 238 -50 C238 -113 218 -237 135 -237 C94 -237 56 -201 63 -135 L63 -135 Z M43 617 C11 617 -10 576 -19 555 C-21 548 -20 541 -15 535 C-2 521 28 493 75 493 C117 493 139 546 139 558 C139 570 87 617 43 617 L43 617 Z M249 617 C216 617 195 575 187 555 C184 547 186 540 190 535 C204 520 234 493 280 493 C322 493 344 546 344 558 C344 570 292 617 249 617 L249 617 Z " />
<glyph glyph-name="dotlessi" unicode="&#x131;" horiz-adv-x="275" d="M275 407 C275 407 260 336 229 234 C195 122 145 76 126 76 C124 76 123 76 122 77 C117 79 114 100 112 130 C111 139 111 252 111 265 C111 302 111 333 110 347 C105 444 52 450 18 450 C10 450 3 435 1 424 C-8 358 -11 289 -11 222 C-12 177 -14 148 -14 148 C-14 80 52 1 121 1 C146 1 194 28 236 114 C268 180 293 278 307 336 C313 364 300 393 275 407 L275 407 Z " />
<glyph glyph-name="Lslash" unicode="&#x141;" horiz-adv-x="552" d="M0 505 C0 396 81 313 190 313 C199 313 207 313 215 314 C215 308 215 302 215 296 C215 290 215 283 215 277 C167 261 125 248 107 243 C102 243 98 239 97 235 C94 224 96 196 106 182 C117 166 133 155 152 155 C155 155 159 155 163 156 C169 158 186 163 210 170 C202 77 186 50 186 50 C186 50 147 61 104 61 C62 61 24 41 23 6 C22 -27 50 -59 108 -59 C139 -59 178 -50 226 -28 C227 -27 229 -26 230 -25 C263 -42 294 -62 314 -78 C363 -120 413 -172 485 -172 C597 -172 588 -53 559 -38 C558 -37 557 -37 556 -37 C554 -37 553 -38 552 -40 C543 -53 539 -65 493 -65 C449 -65 378 -3 281 26 C311 73 323 138 328 206 C399 228 468 251 473 255 C476 256 482 326 440 335 C438 335 436 336 433 336 C414 336 375 326 330 313 C329 320 329 327 329 334 C449 373 504 465 504 553 C504 622 451 682 382 682 C246 682 221 522 216 376 C207 375 198 375 189 375 C143 375 115 417 115 494 C115 575 171 615 186 625 C189 626 189 628 187 631 C180 638 160 657 131 657 C58 657 0 572 0 505 L0 505 Z M327 410 C326 442 325 469 327 491 C328 628 412 637 412 637 L413 636 C417 607 418 563 400 509 C386 468 363 434 327 410 L327 410 Z " />
<glyph glyph-name="lslash" unicode="&#x142;" horiz-adv-x="401" d="M10 366 C21 350 37 339 56 339 C59 339 63 339 67 340 C73 342 92 347 118 355 C114 244 112 148 112 148 C112 80 178 1 247 1 C272 1 320 28 362 114 C394 180 419 278 433 336 C439 364 426 393 401 407 C401 407 386 336 355 234 C321 122 271 76 252 76 C250 76 249 76 248 77 C241 80 238 115 237 159 C236 163 237 279 237 391 C307 413 372 435 377 439 C380 440 386 510 344 519 C342 519 340 520 337 520 C319 520 281 510 237 498 C237 559 237 604 237 608 C232 694 179 710 146 710 C137 710 130 695 129 684 C127 671 124 572 121 462 C72 446 29 432 11 427 C6 427 2 423 1 419 C-2 408 0 380 10 366 L10 366 Z " />
<glyph glyph-name="OE" unicode="&#x152;" horiz-adv-x="987" d="M108 256 C108 251 108 246 108 241 C108 79 206 -18 344 -18 C391 -18 451 5 503 58 C548 6 628 -17 729 -17 C904 -17 983 191 1019 336 C1025 364 1013 393 987 407 C961 288 880 67 750 45 C741 44 732 43 724 43 C647 43 587 102 587 182 C587 311 726 355 726 355 C726 355 760 346 795 346 C810 346 825 347 838 352 C863 361 858 404 813 404 C789 404 764 403 740 398 C740 398 627 419 627 521 C627 612 682 671 744 671 C808 671 826 613 826 576 C826 537 776 519 739 519 C735 519 730 519 726 520 C722 521 720 516 721 513 C728 496 755 458 813 458 C883 458 930 507 921 580 C909 674 817 709 733 709 C651 707 567 669 535 600 C479 670 398 709 314 709 C171 710 32 607 5 474 C-20 347 48 282 108 256 L108 256 Z M134 436 C179 633 290 653 335 653 C347 653 354 652 354 652 C354 652 487 606 487 379 C487 329 481 284 472 245 C468 234 465 222 463 210 C427 94 362 36 341 36 C305 36 233 88 233 221 C233 405 362 428 384 430 C385 430 386 431 386 433 C382 443 348 489 295 489 C291 489 288 488 284 488 C238 483 163 444 127 353 C125 376 127 404 134 436 L134 436 Z M608 400 C634 385 656 379 656 379 C656 379 636 375 609 364 C609 366 609 369 609 371 C609 381 609 391 608 400 L608 400 Z " />
<glyph glyph-name="oe" unicode="&#x153;" horiz-adv-x="619" d="M104 1 C163 1 201 42 225 103 C263 36 336 1 421 1 C576 1 623 215 651 336 C657 364 645 393 619 407 C619 407 553 63 429 63 C399 63 340 75 323 153 C424 157 512 239 512 330 C512 422 470 461 389 461 C320 461 268 441 235 392 C213 437 180 437 180 437 C180 437 138 461 96 461 C-33 461 -43 283 -43 191 C-43 67 43 1 104 1 L104 1 Z M84 277 C89 316 107 408 162 408 C194 396 195 274 195 250 C194 243 194 235 194 228 C192 186 181 55 117 55 C100 58 62 120 84 277 L84 277 Z M405 405 C425 405 482 374 423 259 C405 223 357 197 318 194 C291 320 367 405 405 405 L405 405 Z " />
<glyph glyph-name="Scaron" unicode="&#x160;" horiz-adv-x="614" d="M361 538 C361 538 349 560 302 560 C238 560 195 514 195 449 C195 360 293 324 368 324 C445 324 561 372 561 511 C561 640 409 711 298 711 C146 711 0 602 0 443 C0 167 353 259 354 102 C354 63 314 29 280 29 C168 29 199 137 204 137 C191 153 162 160 142 160 C110 160 79 143 79 104 C79 60 139 -15 287 -15 C429 -15 496 40 491 118 C480 293 130 176 130 456 C130 581 210 654 295 654 C368 654 458 606 458 514 C458 413 389 379 369 379 C349 379 316 403 316 459 C316 515 361 538 361 538 L361 538 Z M316 770 C326 770 337 772 339 776 C373 829 408 901 461 945 C463 947 462 950 461 952 C456 963 446 974 430 974 C394 974 333 882 316 853 C315 851 314 850 312 850 C311 850 309 851 308 853 C292 882 234 977 182 977 C141 977 135 961 138 957 C200 890 235 836 253 808 C269 784 291 770 316 770 L316 770 Z " />
<glyph glyph-name="scaron" unicode="&#x161;" horiz-adv-x="333" d="M-46 48 C-45 41 -22 0 67 0 C109 0 138 10 159 25 C274 55 338 245 363 336 C370 364 358 393 332 407 C332 407 285 177 194 108 C178 155 85 182 76 266 C65 353 114 409 140 409 C141 409 142 409 143 409 C169 405 163 345 149 307 C140 281 129 270 123 266 C119 263 118 257 121 253 C127 245 140 240 155 240 C211 240 237 301 237 350 C237 416 183 461 111 461 C22 461 -39 388 -39 290 C-39 181 21 139 50 116 C79 93 90 85 90 71 C90 59 78 55 62 55 C50 55 36 57 23 61 C9 65 -8 83 -26 83 C-30 83 -33 83 -37 81 C-48 76 -48 56 -46 48 L-46 48 Z M132 485 C142 485 153 487 155 491 C189 544 224 616 277 660 C279 662 278 665 277 667 C272 678 262 689 246 689 C210 689 149 597 132 568 C131 566 130 565 128 565 C127 565 125 566 124 568 C108 597 50 692 -2 692 C-43 692 -49 676 -46 672 C16 605 51 551 69 523 C85 499 107 485 132 485 L132 485 Z " />
<glyph glyph-name="Ydieresis" unicode="&#x178;" horiz-adv-x="815" d="M229 277 C234 278 236 283 232 285 C205 307 142 359 146 460 C152 637 268 670 328 672 C332 672 334 671 334 667 C332 629 316 422 316 315 C316 219 411 196 439 196 C499 196 576 379 593 423 C594 424 597 424 597 422 C600 384 588 196 584 155 C580 111 568 16 470 16 C423 16 408 41 405 69 C402 94 427 112 442 113 C445 113 445 116 445 119 C442 131 417 159 378 159 C374 159 369 159 365 158 C336 154 306 130 306 92 C306 33 339 -27 487 -27 C668 -27 698 110 706 164 C716 241 719 583 714 637 C710 690 661 709 623 709 C585 709 597 578 592 551 C569 433 467 271 441 271 C410 270 455 671 447 686 C439 700 374 718 272 718 C169 718 5 664 0 499 C-5 334 142 274 208 274 C217 274 224 275 229 277 L229 277 Z M386 908 C354 908 333 867 324 846 C322 839 323 832 328 826 C341 812 371 784 418 784 C460 784 482 837 482 849 C482 861 430 908 386 908 L386 908 Z M592 908 C559 908 538 866 530 846 C527 838 529 831 533 826 C547 811 577 784 623 784 C665 784 687 837 687 849 C687 861 635 908 592 908 L592 908 Z " />
<glyph glyph-name="Zcaron" unicode="&#x17d;" horiz-adv-x="642" d="M642 407 C642 407 610 118 410 121 C392 154 336 176 304 181 C303 181 303 183 304 183 C463 213 542 336 542 455 C542 584 450 709 267 709 C56 709 0 542 0 456 C0 332 79 274 184 274 C291 274 328 344 328 418 C328 512 269 533 230 533 C218 533 207 530 202 528 C197 526 197 522 200 518 C207 505 225 474 225 428 C225 356 206 318 185 318 C164 318 116 339 116 458 C116 577 184 647 266 647 C347 647 404 607 404 449 C404 243 243 212 243 212 C243 212 216 218 187 218 C150 218 108 209 108 170 C108 151 134 145 164 145 C194 145 227 151 244 158 C263 153 288 134 289 113 C289 113 57 101 57 2 C57 -77 180 -113 217 -113 C407 -113 418 70 418 70 C574 81 629 187 669 347 C674 371 663 395 642 407 L642 407 Z M208 -75 C196 -75 132 -41 133 -8 C136 46 253 61 294 61 C294 8 265 -75 208 -75 L208 -75 Z M335 769 C345 769 356 771 358 775 C392 828 427 900 480 944 C482 946 481 949 480 951 C475 962 465 973 449 973 C413 973 352 881 335 852 C334 850 333 849 331 849 C330 849 328 850 327 852 C311 881 253 976 201 976 C160 976 154 960 157 956 C219 889 254 835 272 807 C288 783 310 769 335 769 L335 769 Z " />
<glyph glyph-name="zcaron" unicode="&#x17e;" horiz-adv-x="441" d="M444 407 C444 407 429 314 398 213 C371 122 322 69 282 60 C260 112 233 143 188 159 C229 198 343 314 343 350 C343 385 323 404 323 404 C323 404 321 450 262 450 C229 450 150 450 85 450 C53 450 24 450 7 450 C-4 450 -12 444 -9 434 C2 400 8 354 77 354 C138 354 189 356 217 357 C220 357 222 353 219 351 C170 303 53 187 53 168 C53 145 80 112 123 112 C126 112 132 113 139 113 C147 113 155 112 158 107 C177 81 180 55 180 23 C154 14 114 2 58 -12 C-63 -41 -108 -55 -108 -124 C-108 -193 -62 -259 72 -259 C314 -259 296 -1 296 3 C429 61 450 208 476 336 C482 365 469 393 444 407 L444 407 Z M48 -206 C8 -206 -17 -186 -17 -129 C-17 -72 57 -67 179 -28 C177 -107 138 -206 48 -206 L48 -206 Z M189 492 C199 492 210 494 212 498 C246 551 281 623 334 667 C336 669 335 672 334 674 C329 685 319 696 303 696 C267 696 206 604 189 575 C188 573 187 572 185 572 C184 572 182 573 181 575 C165 604 107 699 55 699 C14 699 8 683 11 679 C73 612 108 558 126 530 C142 506 164 492 189 492 L189 492 Z " />
<glyph glyph-name="florin" unicode="&#x192;" horiz-adv-x="481" d="M1 -77 C8 -95 34 -112 85 -112 C222 -112 281 -30 319 96 C347 191 365 303 382 396 C455 397 519 399 523 403 C536 414 540 460 492 475 C477 479 441 482 398 482 C406 523 438 630 466 651 C468 653 470 653 472 653 C484 653 496 633 499 629 C506 620 515 615 523 615 C532 615 540 621 545 634 C552 656 520 709 442 709 C342 709 296 562 276 481 C206 479 146 476 139 474 C123 470 115 462 115 462 C108 438 127 397 165 397 C176 397 212 397 258 396 C233 269 207 101 163 14 C131 -50 108 -69 92 -69 C66 -69 53 -24 40 -24 C28 -24 -6 -55 1 -77 L1 -77 Z " />
<glyph glyph-name="circumflex" unicode="&#x2c6;" horiz-adv-x="396" d="M182 672 C172 672 161 669 159 666 C125 612 90 541 37 497 C35 495 36 492 37 490 C42 479 52 468 68 468 C104 468 165 559 182 589 C183 591 185 591 186 591 C188 591 189 591 190 589 C206 559 264 465 316 465 C357 465 363 481 360 485 C298 552 263 606 245 634 C229 658 207 672 182 672 L182 672 Z " />
<glyph glyph-name="caron" unicode="&#x2c7;" horiz-adv-x="408" d="M221 493 C231 493 242 495 244 499 C278 552 313 624 366 668 C368 670 367 673 366 675 C361 686 351 697 335 697 C299 697 238 605 221 576 C220 574 219 573 217 573 C216 573 214 574 213 576 C197 605 139 700 87 700 C46 700 40 684 43 680 C105 613 140 559 158 531 C174 507 196 493 221 493 L221 493 Z " />
<glyph glyph-name="breve" unicode="&#x2d8;" horiz-adv-x="317" d="M284 673 C283 688 276 696 250 700 C248 700 246 700 244 700 C235 700 223 699 217 697 C213 696 210 692 211 688 C212 679 214 664 210 649 C205 626 188 572 152 572 C121 572 105 664 105 680 C105 691 71 700 63 700 C40 700 35 678 35 678 C35 678 33 670 35 649 C36 628 47 532 153 532 C277 532 284 658 284 673 L284 673 Z " />
<glyph glyph-name="ring" unicode="&#x2da;" horiz-adv-x="279" d="M138 698 C78 698 33 657 33 595 C33 519 54 456 140 456 C204 460 246 529 246 595 C246 659 198 698 138 698 L138 698 Z M139 501 C137 500 135 499 133 499 C131 499 129 500 127 501 C119 509 107 527 106 570 C104 619 121 647 134 656 C136 658 139 659 141 659 C143 659 145 658 146 657 C154 651 165 633 165 585 C165 530 148 508 139 501 L139 501 Z " />
<glyph glyph-name="tilde" unicode="&#x2dc;" horiz-adv-x="359" d="M311 627 C297 627 290 562 238 562 C185 562 172 626 107 626 C63 626 36 598 28 558 C25 541 27 520 36 509 C38 506 41 505 45 505 C48 505 52 507 54 510 C63 527 75 558 106 558 C155 558 190 489 256 489 C311 489 332 547 332 570 C332 593 324 627 311 627 L311 627 Z " />
<glyph glyph-name="quoteleft" unicode="&#x2018;" horiz-adv-x="197" d="M33 502 C33 464 54 437 87 437 C128 437 147 471 147 498 C147 519 135 537 135 560 C135 605 164 620 164 640 C164 651 144 661 130 661 C110 661 33 583 33 502 L33 502 Z " />
<glyph glyph-name="quoteright" unicode="&#x2019;" horiz-adv-x="190" d="M161 596 C161 634 140 661 107 661 C66 661 47 627 47 600 C47 579 59 561 59 538 C59 493 30 478 30 458 C30 447 50 437 64 437 C84 437 161 515 161 596 L161 596 Z " />
<glyph glyph-name="quotesinglbase" unicode="&#x201a;" horiz-adv-x="250" d="M143 -88 C151 -80 170 39 174 98 C176 129 153 144 129 144 C101 144 71 124 75 85 C81 23 96 -56 103 -82 C105 -88 107 -89 111 -91 C114 -93 120 -95 126 -95 C132 -95 138 -93 143 -88 L143 -88 Z " />
<glyph glyph-name="quotedblleft" unicode="&#x201c;" horiz-adv-x="427" d="M57 502 C57 464 78 437 111 437 C152 437 171 471 171 498 C171 519 159 537 159 560 C159 605 188 620 188 640 C188 651 168 661 154 661 C134 661 57 583 57 502 L57 502 Z M239 502 C239 464 260 437 293 437 C334 437 353 471 353 498 C353 519 341 537 341 560 C341 605 370 620 370 640 C370 651 350 661 336 661 C316 661 239 583 239 502 L239 502 Z " />
<glyph glyph-name="quotedblright" unicode="&#x201d;" horiz-adv-x="425" d="M369 596 C369 634 348 661 315 661 C274 661 255 627 255 600 C255 579 267 561 267 538 C267 493 238 478 238 458 C238 447 258 437 272 437 C292 437 369 515 369 596 L369 596 Z M187 596 C187 634 166 661 133 661 C92 661 73 627 73 600 C73 579 85 561 85 538 C85 493 56 478 56 458 C56 447 76 437 90 437 C110 437 187 515 187 596 L187 596 Z " />
<glyph glyph-name="quotedblbase" unicode="&#x201e;" horiz-adv-x="416" d="M142 -92 C150 -84 175 35 179 94 C181 125 158 140 134 140 C106 140 76 120 80 81 C86 19 95 -61 102 -86 C104 -93 106 -93 110 -95 C113 -97 119 -99 125 -99 C131 -99 137 -97 142 -92 L142 -92 Z M289 -93 C297 -85 331 35 335 94 C337 125 314 140 290 140 C262 140 232 120 236 81 C242 19 242 -62 249 -87 C251 -94 253 -94 257 -96 C260 -98 266 -100 272 -100 C278 -100 284 -98 289 -93 L289 -93 Z " />
<glyph glyph-name="ellipsis" unicode="&#x2026;" horiz-adv-x="560" d="M177 61 C177 106 146 142 107 142 C68 142 36 106 36 61 C36 16 68 -21 107 -21 C146 -21 177 16 177 61 L177 61 Z M352 61 C352 106 321 142 282 142 C243 142 211 106 211 61 C211 16 243 -21 282 -21 C321 -21 352 16 352 61 L352 61 Z M524 61 C524 106 493 142 454 142 C415 142 383 106 383 61 C383 16 415 -21 454 -21 C493 -21 524 16 524 61 L524 61 Z " />
<glyph glyph-name="Euro" unicode="&#x20ac;" horiz-adv-x="546" d="M109 246 L143 246 C157 78 232 0 348 0 C420 0 483 40 483 112 C483 162 464 193 418 193 C392 193 377 171 372 166 C370 164 370 160 372 158 C382 151 405 141 405 106 C405 64 368 46 351 46 C299 46 268 91 258 244 C314 244 365 243 369 243 C379 243 391 257 375 280 C359 303 349 314 320 314 L255 314 C254 337 255 358 256 377 C313 377 365 376 369 376 C379 376 390 391 375 413 C359 437 350 446 320 446 L265 446 C288 571 347 621 389 621 C392 621 395 619 396 617 C401 609 406 592 401 570 C394 545 372 532 364 529 C363 528 362 526 362 525 C365 515 376 488 427 488 C461 488 482 515 482 555 C482 594 458 668 341 668 C262 668 189 578 157 446 L77 446 C69 446 66 436 66 436 C62 427 69 379 109 379 L145 379 C143 358 142 336 141 314 L77 314 C69 314 66 303 66 303 C62 294 69 246 109 246 L109 246 Z " />
<glyph glyph-name="minus" unicode="&#x2212;" horiz-adv-x="572" d="M139 285 C152 285 248 284 337 284 C418 284 493 285 498 289 C501 290 507 354 465 363 C446 367 367 369 286 369 C197 369 104 367 83 366 C78 366 74 362 73 358 C70 347 72 325 82 311 C95 292 115 285 139 285 L139 285 Z " />
</font>
</svg>
